<svg id="Group_539" data-name="Group 539" xmlns="http://www.w3.org/2000/svg" width="538" height="454.297" viewBox="0 0 538 454.297">
  <path id="Path_2371" data-name="Path 2371" d="M93.512,503.156l10.437,2.918L120.173,467.2l-15.4-4.307Z" transform="translate(-13.733 -67.981)" fill="#ffb8b8"/>
  <path id="Path_2372" data-name="Path 2372" d="M0,0H34.062V13.16H11.843A11.843,11.843,0,0,1,0,1.317V0Z" transform="matrix(-0.963, -0.269, 0.269, -0.963, 107.638, 453.411)" fill="#2f2e41"/>
  <path id="Path_2373" data-name="Path 2373" d="M239.451,512.471h10.838l5.154-41.8h-16Z" transform="translate(-35.165 -69.122)" fill="#ffb8b8"/>
  <path id="Path_2374" data-name="Path 2374" d="M0,0H34.062V13.16H11.843A11.843,11.843,0,0,1,0,1.317V0Z" transform="translate(236.027 453.41) rotate(179.995)" fill="#2f2e41"/>
  <path id="Path_2375" data-name="Path 2375" d="M140.755,316.237l-24.946,61.111,101.862,22.884,1.3-34.19-46.254-49.266Z" transform="translate(-17.008 -46.443)" fill="#b3b3b3"/>
  <circle id="Ellipse_6" data-name="Ellipse 6" cx="23.284" cy="23.284" r="23.284" transform="translate(136.244 144.901) rotate(-28.663)" fill="#ffb8b8"/>
  <path id="Path_2376" data-name="Path 2376" d="M492.228,481.74l-46.107-18.874L442.016,435.8a31.1,31.1,0,0,1,24.654-35.2l6.1-1.225a31.388,31.388,0,0,1,28.109,8.337,29.968,29.968,0,0,1,8.793,26.963,26.106,26.106,0,0,1-4.932,11.492c-14.485,18.941-12.625,34.687-12.6,34.844Z" transform="translate(-307.745 -215.327)" fill="#4bad65"/>
  <path id="Path_2377" data-name="Path 2377" d="M518.484,552.326l-23.107-36.748,7.278-66.847L492.6,398.735l.535.013a22.782,22.782,0,0,1,22.213,22.223l9.78,48.991Z" transform="translate(-315.227 -215.323)" fill="#2f2e41"/>
  <path id="Path_2378" data-name="Path 2378" d="M502.328,660.76a4.22,4.22,0,0,1-4.133-3.387l-10.123-50.339a78.968,78.968,0,0,0-10.282-26.039l-28.565-46.208a1.469,1.469,0,0,0-2.606.208L399.656,647.813a4.228,4.228,0,0,1-4.737,2.512l-12.546-2.558a4.2,4.2,0,0,1-3.316-4.839l10.234-60.315a155.674,155.674,0,0,1,10.6-35.737l34.661-80.1,51.15,16.8,3.375,35.817,23.634,57.228a39.229,39.229,0,0,1,2.89,12.412l4.366,66.14a4.238,4.238,0,0,1-3.865,4.483l-13.422,1.1Q502.5,660.76,502.328,660.76Z" transform="translate(-298.543 -225.314)" fill="#2f2e41"/>
  <path id="Path_2379" data-name="Path 2379" d="M411.394,569.208l-16.216-15.392,30.646-118.175a49.533,49.533,0,0,1,29.147-33.3l.6-.245-1.638,71.924Z" transform="translate(-300.92 -215.816)" fill="#2f2e41"/>
  <path id="Path_2380" data-name="Path 2380" d="M471.121,382.74c-5.752-4.979-7.5-14.268-3.977-21.115s11.953-10.534,19.159-8.38c6.788,2.029,14.5-4.738,13.677-11.994s-9.853-11.983-16-8.378a26.031,26.031,0,0,0-27.748,5.4,28.261,28.261,0,0,0-6.718,28.359C452.758,376.36,461.806,383.721,471.121,382.74Z" transform="translate(-308.702 -205.375)" fill="#2f2e41"/>
  <path id="Path_2381" data-name="Path 2381" d="M438.4,592.541a3.976,3.976,0,0,1-.881.227L400.5,597.937a3.985,3.985,0,0,1-4.289-2.528l-31.867-82.921a4,4,0,0,1,2.863-5.341h0l34.815-7.769a3.179,3.179,0,0,0,.773-.283l33.863-17.7a3.965,3.965,0,0,1,.823-.32l37.266-9.935a3.994,3.994,0,0,1,4.766,2.431l27.786,72.3a3.981,3.981,0,0,1-.526,3.825l-9.609,12.9a4,4,0,0,1-1.774,1.345l-21,8.071a3.2,3.2,0,0,0-.436.208l-34.995,20.056a3.994,3.994,0,0,1-.555.264Z" transform="translate(-296.352 -225.935)" fill="#fff"/>
  <path id="Path_2382" data-name="Path 2382" d="M456.752,483.255l-4.732,1.262-12.541,3.345-.022.005-17.169,8.977-6.372,3.332h0l-9.57,5-.262.059-9.941,2.217-4.8,1.074-19.6,4.373L402.5,592.952l20.194-2.818,4.951-.692,10.553-1.475.123-.016,33.912-19.436,20.633-7.929,9.42-12.65-26.779-69.681Z" transform="translate(-297.478 -227.001)" fill="#e6e6e6"/>
  <rect id="Rectangle_3362" data-name="Rectangle 3362" width="109.293" height="4.87" transform="translate(80.425 301.939) rotate(-21.022)" fill="#fff"/>
  <rect id="Rectangle_3363" data-name="Rectangle 3363" width="109.293" height="4.87" transform="translate(86.249 317.093) rotate(-21.022)" fill="#fff"/>
  <rect id="Rectangle_3364" data-name="Rectangle 3364" width="109.293" height="4.87" transform="translate(98.012 347.703) rotate(-21.022)" fill="#fff"/>
  <path id="Path_2383" data-name="Path 2383" d="M185.877,300.365l30.542,79.473-4.546,1.747-30.729-79.958Z" transform="translate(-26.603 -44.111)" fill="#fff"/>
  <path id="Path_2384" data-name="Path 2384" d="M141.117,316.294l-6.271,17.45-2.175,6.053L127.6,353.921l-1.087,3.019-1.088,3.034-1.432,3.983L113.71,392.57l-2.673-6.956,8.383-23.333,1.9-5.283.278-.771,2.243-6.246,2.83-7.877,2.175-6.054,5.9-16.424h0Z" transform="translate(-16.307 -46.451)" fill="#fff"/>
  <path id="Path_2385" data-name="Path 2385" d="M194.192,386.135l-.74.284-33.912,19.436-.123.015L127.3,323.143l.263-.059,9.57-5h0l6.372-3.332,17.169-8.978.022-.005Z" transform="translate(-18.695 -44.905)" opacity="0.1"/>
  <path id="Path_2386" data-name="Path 2386" d="M438.482,592.866a4.406,4.406,0,0,1-.975.251l-37.022,5.168a4.409,4.409,0,0,1-4.746-2.8l-31.867-82.921a4.428,4.428,0,0,1,3.169-5.91l34.815-7.769a2.764,2.764,0,0,0,.668-.245l33.863-17.7a4.4,4.4,0,0,1,.91-.354l37.267-9.935a4.419,4.419,0,0,1,5.274,2.69l27.786,72.3a4.407,4.407,0,0,1-.582,4.234l-9.609,12.9a4.423,4.423,0,0,1-1.963,1.489l-21,8.071a2.778,2.778,0,0,0-.378.179L439.1,592.574A4.4,4.4,0,0,1,438.482,592.866Zm-71.454-84.428a2.722,2.722,0,0,0-1.564,3.517l31.867,82.921a2.71,2.71,0,0,0,2.917,1.719l37.022-5.168a2.732,2.732,0,0,0,.977-.334l35-20.056a4.45,4.45,0,0,1,.613-.291l21-8.071a2.72,2.72,0,0,0,1.207-.915l9.609-12.9a2.708,2.708,0,0,0,.357-2.6l-27.786-72.3A2.716,2.716,0,0,0,475,472.3l-37.266,9.935a2.812,2.812,0,0,0-.559.218l-33.863,17.705a4.506,4.506,0,0,1-1.087.4l-34.815,7.769A2.7,2.7,0,0,0,367.028,508.438Z" transform="translate(-296.279 -225.862)" fill="#e6e6e6"/>
  <path id="Path_2387" data-name="Path 2387" d="M114.819,328.733l31.507,81.986-4.951.692-31.361-81.6Z" transform="translate(-16.157 -48.278)" fill="#fff"/>
  <circle id="Ellipse_7" data-name="Ellipse 7" cx="2.273" cy="2.273" r="2.273" transform="translate(105.451 309.003)" fill="#3f3d56"/>
  <circle id="Ellipse_8" data-name="Ellipse 8" cx="2.273" cy="2.273" r="2.273" transform="translate(186.035 311.425)" fill="#4bad65"/>
  <path id="Path_2388" data-name="Path 2388" d="M501.308,501.611c2.579,6.712-.525,28.955-1.616,36.095a1.3,1.3,0,0,1-2.105.809c-5.592-4.571-22.794-19.011-25.373-25.723a15.585,15.585,0,1,1,29.094-11.181Z" transform="translate(-312.08 -228.963)" fill="#4bad65"/>
  <circle id="Ellipse_9" data-name="Ellipse 9" cx="8.442" cy="8.442" r="8.442" transform="translate(166.239 269.798)" fill="#fff"/>
  <path id="Path_2389" data-name="Path 2389" d="M476.677,485.21a8.89,8.89,0,0,1,12.384-5.7l15.07-13.622,10.512,7.139-21.552,18.938a8.938,8.938,0,0,1-16.414-6.759Z" transform="translate(-312.84 -225.185)" fill="#ffb8b8"/>
  <path id="Path_2390" data-name="Path 2390" d="M503.162,480.255,491.35,464.224l26.931-17.236-19.3-27.543A11.161,11.161,0,0,1,515.64,404.8l24.168,22.05a20.245,20.245,0,0,1-2.841,32.076Z" transform="translate(-315.044 -215.784)" fill="#2f2e41"/>
  <path id="Path_2391" data-name="Path 2391" d="M394.291,536.19a8.89,8.89,0,0,0,1.234-13.575l7.809-18.753L393.1,496.337,382.44,522.975a8.938,8.938,0,0,0,11.852,13.215Z" transform="translate(-298.722 -229.656)" fill="#ffb8b8"/>
  <path id="Path_2392" data-name="Path 2392" d="M399.72,504.153l-18.467-4.3,13.762-39.684a65.06,65.06,0,0,1,10.352-18.945l22.451-28.55a12.555,12.555,0,1,1,19.793,15.45L422.7,460.277Z" transform="translate(-298.875 -216.66)" fill="#2f2e41"/>
  <path id="Path_2393" data-name="Path 2393" d="M610.594,715.957H285.547a.853.853,0,0,1,0-1.707H610.594a.853.853,0,0,1,0,1.707Z" transform="translate(-284.694 -261.659)" fill="#ccc"/>
  <path id="Path_2394" data-name="Path 2394" d="M813.16,637.621h-7.678V187.589a3.839,3.839,0,1,1,7.678,0Z" transform="translate(-361.177 -183.75)" fill="#263329"/>
  <path id="Path_2395" data-name="Path 2395" d="M858.987,715.957H739.547a.853.853,0,0,1,0-1.707h119.44a.853.853,0,0,1,0,1.707Z" transform="translate(-351.369 -261.659)" fill="#ccc"/>
  <path id="Path_2396" data-name="Path 2396" d="M857.039,245.848H745.321a3.843,3.843,0,0,1-3.839-3.839V209.589a3.843,3.843,0,0,1,3.839-3.839H857.048a3.847,3.847,0,0,1,1.871.487L887.81,222.36a3.839,3.839,0,0,1,.015,6.7l-28.9,16.3A3.85,3.85,0,0,1,857.039,245.848Z" transform="translate(-351.778 -186.981)" fill="#4bad65"/>
  <path id="Path_2397" data-name="Path 2397" d="M840.114,327.848H728.4a3.848,3.848,0,0,1-1.886-.495l-28.9-16.3a3.839,3.839,0,0,1,.015-6.7l28.891-16.123a3.845,3.845,0,0,1,1.871-.487H840.114a3.843,3.843,0,0,1,3.839,3.839v32.419A3.843,3.843,0,0,1,840.114,327.848Z" transform="translate(-345.048 -199.023)" fill="#263329"/>
  <path id="Path_2398" data-name="Path 2398" d="M840.615,408.348H728.9a3.848,3.848,0,0,1-1.885-.495l-28.9-16.3a3.839,3.839,0,0,1,.015-6.7l28.891-16.123a3.847,3.847,0,0,1,1.871-.487H840.615a3.843,3.843,0,0,1,3.839,3.839v32.419A3.844,3.844,0,0,1,840.615,408.348Z" transform="translate(-345.122 -210.846)" fill="#263329"/>
</svg>
