<svg xmlns="http://www.w3.org/2000/svg" width="950" height="632.106" viewBox="0 0 950 632.106">
  <g id="Group_516" data-name="Group 516" transform="translate(-0.013 0.004)">
    <path id="Path_2488" data-name="Path 2488" d="M611.152,214.8c-55.889-1.986-109.119-20.026-159.913-39.723S350.065,133.461,295.514,123c-35.086-6.727-75.215-7.677-103.479,11.131-27.211,18.135-36,49.352-40.725,78.35-3.558,21.813-5.648,44.767,4.093,65.19,6.77,14.18,18.774,26.1,27.081,39.68,28.9,47.254,8.471,105.526-22.841,151.666-14.68,21.649-31.736,42.314-43.074,65.336S99.989,583.8,109.911,607.3c9.827,23.316,33.255,40.794,58.635,53.1,51.545,24.991,112.262,32.15,171.51,36.2,131.113,8.972,262.917,5.086,394.376,1.2,48.653-1.442,97.512-2.9,145.37-10.423,26.58-4.18,54.016-10.812,73.316-26.813,24.49-20.319,30.561-54.732,14.145-80.207-27.53-42.737-103.626-53.35-122.892-99.222-10.587-25.242.285-53.368,15.682-76.778,33.022-50.224,88.367-94.291,91.278-151.709,2-39.43-24.6-78.92-65.742-97.581-43.117-19.56-102.918-17.1-134.714,15.276C718.077,203.642,660.5,216.466,611.152,214.8Z" transform="translate(-57.405 -88.73)" fill="#c0ebd3" opacity="0.1"/>
    <ellipse id="Ellipse_70" data-name="Ellipse 70" cx="63.221" cy="12.159" rx="63.221" ry="12.159" transform="translate(725.673 607.785)" fill="#4bad65"/>
    <ellipse id="Ellipse_71" data-name="Ellipse 71" cx="7.357" cy="9.637" rx="7.357" ry="9.637" transform="translate(780.474 605.142)" fill="#3f3d56"/>
    <ellipse id="Ellipse_72" data-name="Ellipse 72" cx="7.357" cy="9.637" rx="7.357" ry="9.637" transform="translate(780.474 593.364)" fill="#3f3d56"/>
    <ellipse id="Ellipse_73" data-name="Ellipse 73" cx="7.357" cy="9.637" rx="7.357" ry="9.637" transform="translate(780.474 581.585)" fill="#3f3d56"/>
    <ellipse id="Ellipse_74" data-name="Ellipse 74" cx="7.357" cy="9.637" rx="7.357" ry="9.637" transform="translate(780.474 569.814)" fill="#3f3d56"/>
    <ellipse id="Ellipse_75" data-name="Ellipse 75" cx="7.357" cy="9.637" rx="7.357" ry="9.637" transform="translate(780.474 558.036)" fill="#3f3d56"/>
    <path id="Path_2489" data-name="Path 2489" d="M241.934,611.763a34.9,34.9,0,0,0,2.746-4.033l-19.344-3.178,20.915.156a35.294,35.294,0,0,0,.674-27.936l-28.057,14.56,25.907-19a35.259,35.259,0,1,0-58.238,39.456,35.567,35.567,0,0,0-4.024,6.433l25.112,13.04-26.77-8.981a35.242,35.242,0,0,0,5.682,33.109,35.259,35.259,0,1,0,55.423,0,35.259,35.259,0,0,0,0-43.6Z" transform="translate(573.453 -148.243)" fill="#4bad65"/>
    <path id="Path_2490" data-name="Path 2490" d="M179,645.918a35.112,35.112,0,0,0,7.547,21.8,35.259,35.259,0,1,0,55.423,0C246.668,661.73,179,641.972,179,645.918Z" transform="translate(573.452 -160.611)" opacity="0.1"/>
    <path id="Path_2491" data-name="Path 2491" d="M575.874,627.744c.535,6.908,3.2,14.059,8.791,18.135s14.5,4,18.774-1.477a21,21,0,0,0,3.117-6.779c3.6-11.382,6.157-23.834,2.211-35.1-8.9-.579-19.223-4.767-25.907,2.591C577.463,611.1,575.252,619.757,575.874,627.744Z" transform="translate(-121.687 -154.527)" fill="#3f3d56"/>
    <path id="Path_2492" data-name="Path 2492" d="M616.527,546.286c-1.183,10.043-3.2,20.043-2.988,30.155.078,3.9.492,7.772.5,11.693a57.634,57.634,0,0,1-7.772,28.99,9.722,9.722,0,0,1-2.124,2.746c-2.046,1.658-5.129,1.52-7.427.25a14.61,14.61,0,0,1-5.276-5.725c-6.433-11.019-6.615-24.413-9.162-36.908-1.952-9.56-5.371-18.826-6.606-28.5-.8-6.226-.682-12.573-1.96-18.722-.389-1.857-1.477-4.646-2.194-7.383-.656-2.444-1.019-4.845-.345-6.494,1.373-3.377,5.872-2.064,8.8-1.857a202.542,202.542,0,0,0,30.967-.078,2.662,2.662,0,0,1,3.584,1.857,41.92,41.92,0,0,1,1.874,6.908C617.822,530.742,617.425,538.626,616.527,546.286Z" transform="translate(-121.01 -142.696)" fill="#fabdbd"/>
    <g id="Group_511" data-name="Group 511" transform="translate(449.82 371.414)" opacity="0.1">
      <path id="Path_2493" data-name="Path 2493" d="M616.555,514.5a7.588,7.588,0,0,0-1.6,0q-7.409.6-14.827.622Q608.343,515.142,616.555,514.5Z" transform="translate(-574.831 -514.159)"/>
      <path id="Path_2494" data-name="Path 2494" d="M598.464,620.12a14.612,14.612,0,0,1-5.276-5.726c-6.434-11.019-6.615-24.412-9.162-36.908-1.952-9.56-5.371-18.825-6.606-28.5-.8-6.226-.682-12.573-1.96-18.722-.389-1.857-1.477-4.646-2.193-7.383-.656-2.444-1.019-4.845-.345-6.494a3.679,3.679,0,0,1,3.454-2.245c-2.185-.147-4.318.112-5.181,2.245-.674,1.649-.311,4.05.345,6.494.717,2.737,1.8,5.527,2.194,7.383,1.278,6.148,1.157,12.5,1.96,18.722,1.235,9.68,4.655,18.946,6.606,28.5,2.548,12.5,2.729,25.906,9.162,36.908a14.611,14.611,0,0,0,5.276,5.726,7.67,7.67,0,0,0,4.525.915,7.966,7.966,0,0,1-2.8-.916Z" transform="translate(-570.833 -514.111)"/>
    </g>
    <path id="Path_2495" data-name="Path 2495" d="M656.309,596.561c-5.182,10.363-4.318,25.043-4.318,25.043.864,34.542-12.953,107.08-12.953,107.08h-12.09s-1.727-80.31,0-87.219-.864-31.088-3.454-64.766c-1.926-25.043,3.316-47.737,6.131-57.694.967-3.454,1.641-5.345,1.641-5.345s19.862-29.361,31.088-15.544c2.591,3.212,3.964,9.7,4.439,17.884C668.33,543.012,660.282,588.607,656.309,596.561Z" transform="translate(-128.142 -140.01)" fill="#fabdbd"/>
    <path id="Path_2496" data-name="Path 2496" d="M668.905,516c-.475-8.187-1.831-14.68-4.439-17.884a8.9,8.9,0,0,0-8.48-3.6,9.206,9.206,0,0,1,5.889,3.6c2.591,3.212,3.964,9.7,4.439,17.884,1.537,27.012-6.511,72.607-10.484,80.561-5.181,10.363-4.318,25.043-4.318,25.043.864,34.542-12.953,107.081-12.953,107.081h2.591S654.968,656.147,654.1,621.6c0,0-.864-14.68,4.318-25.043C662.394,588.608,670.442,543.013,668.905,516Z" transform="translate(-130.254 -140.011)" opacity="0.1"/>
    <path id="Path_2497" data-name="Path 2497" d="M619.808,760.538a11.228,11.228,0,0,0-2.47,2.694c-1.546,2.919.648,6.408,3,8.731s5.181,4.81,5.181,8.117c0,2.66-2.012,4.939-4.266,6.356-1.209.76-2.729,1.727-2.478,3.161a2.97,2.97,0,0,0,.458,1.01c1.934,2.962,5.363,4.7,8.834,5.354a39.841,39.841,0,0,0,10.587.086,2.132,2.132,0,0,0,1.451-.5,1.969,1.969,0,0,0,.389-1.192c.172-1.831.06-3.765.864-5.414,1.123-2.254,3.7-3.4,5.181-5.423,2.072-2.763,1.787-6.606,1-9.966-1.727-7.314-5.57-15.656-11.338-20.725C629.514,747.006,624.273,756.332,619.808,760.538Z" transform="translate(-127.288 -175.015)" fill="#3f3d56"/>
    <path id="Path_2498" data-name="Path 2498" d="M608.712,251.216c4.819-7.2,3.566-17.271-1.356-24.439s-12.832-11.675-20.993-14.585c-11-3.921-23.135-5.259-34.439-2.314-9,2.34-17.081,7.237-25.561,11.019a109.921,109.921,0,0,1-47.737,9.5c-18.23-.509-38.2-5.181-53.5,4.784-28,18.212-15.544,67.78-42.029,88.082-7.142,5.475-16.131,7.867-24.076,12.09s-15.475,11.572-15.285,20.57c.086,4.318,1.986,8.437,4.318,12.09,9.931,15.743,28.5,25.483,47.09,25.3s36.736-10.069,47.452-25.285c2.686-3.808,5.052-8.048,8.946-10.587,7.772-5.095,18.014-1.528,27.288-.769,20.648,1.684,41.3-13.817,45.414-34.154,1.727-8.679,1.425-19.05,8.411-24.5,5.639-4.4,13.575-3.454,20.725-4.205,13.074-1.356,23.394-9.5,30.492-20.138,3.256-4.879,3.635-10.708,8.074-14.551C596.735,254.9,604.135,258.021,608.712,251.216Z" transform="translate(-90.026 -100.967)" fill="#3f3d56"/>
    <g id="Group_512" data-name="Group 512" transform="translate(301.2 107.289)" opacity="0.1">
      <path id="Path_2499" data-name="Path 2499" d="M475.732,235.306a109.477,109.477,0,0,0,22.6-1.727c-2.055.06-4.128.06-6.192,0-14.309-.4-29.689-3.351-43.039.207C457.908,233.872,467.019,235.064,475.732,235.306Z" transform="translate(-405.603 -211.499)"/>
      <path id="Path_2500" data-name="Path 2500" d="M441.761,382.574c-3.895,2.539-6.261,6.779-8.946,10.587a60.665,60.665,0,0,1-34.084,23.5c1.01.043,2.021.069,3.04.06,18.61-.181,36.736-10.069,47.452-25.285,2.686-3.808,5.052-8.048,8.946-10.587l.674-.414C452.745,379.595,446.761,379.3,441.761,382.574Z" transform="translate(-398.73 -231.67)"/>
      <path id="Path_2501" data-name="Path 2501" d="M637.709,226.748c-4.914-7.133-12.832-11.675-20.993-14.585-11-3.92-23.135-5.259-34.438-2.314-.259.06-.51.138-.76.207a66.1,66.1,0,0,1,18.791,3.834c8.161,2.91,16.079,7.452,20.993,14.585s6.175,17.271,1.356,24.439c-4.577,6.831-11.977,3.713-16.822,7.919-4.439,3.843-4.819,9.672-8.074,14.551-6.105,9.128-14.6,16.408-25.181,19.171,3.636-.432,7.47-.38,11.1-.76,13.074-1.356,23.394-9.5,30.492-20.138,3.256-4.879,3.636-10.708,8.074-14.551,4.844-4.206,12.245-1.088,16.822-7.919C643.892,243.984,642.64,233.881,637.709,226.748Z" transform="translate(-422.451 -208.252)"/>
      <path id="Path_2502" data-name="Path 2502" d="M557.1,309.294c-7.107.743-15.043-.19-20.725,4.205-6.986,5.449-6.649,15.82-8.411,24.5-3.031,15.173-15.345,27.685-29.965,32.34l1.028.1c20.647,1.684,41.3-13.817,45.414-34.154,1.727-8.679,1.425-19.05,8.411-24.5a15.6,15.6,0,0,1,5.363-2.591C557.827,309.2,557.473,309.259,557.1,309.294Z" transform="translate(-412.275 -222.025)"/>
    </g>
    <path id="Path_2503" data-name="Path 2503" d="M758.113,212.094s-20.725,41.451-27.634,56.994-69.948,38.86-78.583,39.723a11.122,11.122,0,0,0-6.166,2.971c-4.879,4.318-7.651,11.71-7.651,11.71s3.454,23.316-.864,62.176c-.086.751-.164,1.5-.233,2.228-3.765,36.977,4.119,45.7,4.119,45.7s-83.765,31.951-81.174-9.5c.812-13.048.691-22.582-.112-30.553a128.272,128.272,0,0,0-4.957-24.059c-2.047-7.159-4.49-15.008-7.021-25.7a112.761,112.761,0,0,0-4.8-15.673c-.061-.155-.121-.311-.173-.458-4.318-10.717-8.635-14.18-11.105-15.3a37.332,37.332,0,0,1-6.632-3.731c-7.979-5.76-25.1-18.67-40.354-33.92-20.725-20.725-41.45-69.948-41.45-69.948s-6.045-28.5,7.772-51.813,7.772,45.768,7.772,45.768,25.043,33.679,31.088,49.222c3.109,8,8.048,12.09,12.09,14.214A143.341,143.341,0,0,1,521.163,274.1a111.666,111.666,0,0,0,12.858,8.394c9.655,5.181,21.218,11.027,30.855,12.565a29.093,29.093,0,0,0,4.551.389,4.714,4.714,0,0,0,3.8-1.727c2.591-3.048,2.53-9.611,1.934-15.009a76.284,76.284,0,0,0-1.416-8.316s28.065-17.7,27.2,3.886a24.125,24.125,0,0,0,.656,7.1,12.305,12.305,0,0,0,8.368,9.154,20.727,20.727,0,0,0,10.363.337,10.13,10.13,0,0,0,3.057-1.045c2.591-1.727,28.5-9.5,36.269-10.363S706.291,259.6,706.291,259.6L748.6,200.876s-.864-34.542,16.407-48.359S758.113,212.094,758.113,212.094Z" transform="translate(-103.435 -92.76)" fill="#fabdbd"/>
    <g id="Group_513" data-name="Group 513" transform="translate(338.557 61.726)" opacity="0.1">
      <path id="Path_2504" data-name="Path 2504" d="M667.631,413.917a172.142,172.142,0,0,0-.993,20.9c.086-4.56.389-9.767.993-15.717.069-.725.147-1.477.233-2.228a338.61,338.61,0,0,0,2.159-40.06,346.811,346.811,0,0,1-2.159,34.879C667.812,412.44,667.7,413.191,667.631,413.917Z" transform="translate(-472.64 -185.689)"/>
      <path id="Path_2505" data-name="Path 2505" d="M595.464,289.07c-.579.337-.864.544-.864.544a73.961,73.961,0,0,1,1.658,11.226A52.958,52.958,0,0,0,595.464,289.07Z" transform="translate(-462.813 -173.717)"/>
      <path id="Path_2506" data-name="Path 2506" d="M461.943,197.08c.423-6.045,1.053-16.882.933-26.52-.147,12.884-1.3,26.027-1.3,26.027Z" transform="translate(-444.662 -157.546)"/>
      <path id="Path_2507" data-name="Path 2507" d="M578.611,466.53a5.678,5.678,0,0,1-.06,1.01c-2.591,41.451,81.174,9.5,81.174,9.5a14.058,14.058,0,0,1-2.185-4.387C644.923,477.143,581.521,498.024,578.611,466.53Z" transform="translate(-460.615 -197.931)"/>
      <path id="Path_2508" data-name="Path 2508" d="M789.094,207.916s-20.725,41.45-27.634,56.994-69.948,38.86-78.583,39.723a11.121,11.121,0,0,0-6.166,2.971c-4.879,4.318-7.651,11.71-7.651,11.71s.207,1.408.458,4.085c.967-2.219,3.454-7.314,7.193-10.613a11.123,11.123,0,0,1,6.166-2.971c8.636-.864,71.675-24.179,78.583-39.723S789.094,213.1,789.094,213.1s14.6-44.343,13-57.608C800.76,172.485,789.094,207.916,789.094,207.916Z" transform="translate(-472.973 -155.49)"/>
      <path id="Path_2509" data-name="Path 2509" d="M559.813,394.5a128.314,128.314,0,0,0-4.957-24.059c-2.047-7.159-4.49-15.008-7.021-25.7a112.759,112.759,0,0,0-4.8-15.673c-.061-.155-.121-.311-.173-.458-4.318-10.717-8.636-14.18-11.105-15.3a37.335,37.335,0,0,1-6.632-3.731c-7.979-5.76-25.1-18.67-40.354-33.92-20.725-20.725-41.45-69.948-41.45-69.948a78.082,78.082,0,0,1-1.278-12.591,83.254,83.254,0,0,0,1.278,17.772s20.725,49.223,41.45,69.948c15.25,15.25,32.375,28.16,40.354,33.92a37.329,37.329,0,0,0,6.684,3.731c2.461,1.123,6.77,4.585,11.105,15.3.052.147.112.3.173.458a112.692,112.692,0,0,1,4.776,15.673c2.53,10.691,4.974,18.54,7.021,25.7a128.3,128.3,0,0,1,4.957,24.059c.363,3.61.579,7.539.639,11.96A150.432,150.432,0,0,0,559.813,394.5Z" transform="translate(-441.989 -160.625)"/>
    </g>
    <path id="Path_2510" data-name="Path 2510" d="M661.25,373.36a51.456,51.456,0,0,0-3.454,6.8c-1.3,3.627-1.313,7.573-1.554,11.416a91.672,91.672,0,0,1-2.453,15.993,17.691,17.691,0,0,1-.864,2.832,7.481,7.481,0,0,1-1.01,1.727,7.365,7.365,0,0,1-1.606,1.459,18.829,18.829,0,0,1-2.927,1.6c-12.021,5.613-25.129,10.57-38.247,8.636a55.656,55.656,0,0,1-15.915-5.354c-4.75-2.306-10.121-5.043-15.043-3.126h0a7.573,7.573,0,0,1-2.41.751,2.288,2.288,0,0,1-.484-.043c-1.623-.311-1.623-5.786-1.995-7.4-1.416-6.2-1.632-11.226-2.478-16.615a54.526,54.526,0,0,0-2.081-8.782c-3.454-10.449-4.5-21.589-4.5-32.539,0-.544-3.886,0-5.181-.052-.328,0-.51-.052-.432-.164a1.739,1.739,0,0,1,.259-.294,3.947,3.947,0,0,1,1.546-.769l1.019-.3c5.337-1.511,11.226-2.142,15.216-5.9,4.145-3.877,5.182-10.069,5-15.734-.052-1.822-.941-6.243-.794-9.914a29.094,29.094,0,0,0,4.551.389,4.716,4.716,0,0,0,3.8-1.727,68.2,68.2,0,0,1,3.73,8.636c1.468,3.61,2.591,7.409,4.741,10.673,3.454,5.32,9.827,8.817,16.166,8.281s12.236-5.406,13.368-11.658c.993-5.484-1.313-13.376-1.261-19.076a20.725,20.725,0,0,0,10.363.337,9.39,9.39,0,0,1,.371,1.079c1.943,6.667,4.534,14.318,11.053,16.684,4.214,1.52,9.2.38,13.091,2.591a8.384,8.384,0,0,1,.863.57,9.564,9.564,0,0,1,2.289,2.427,19.512,19.512,0,0,1,2.772,8.7A48.29,48.29,0,0,1,661.25,373.36Z" transform="translate(-119.344 -115.271)" fill="#4bad65"/>
    <path id="Path_2511" data-name="Path 2511" d="M622.418,299.6a29.43,29.43,0,0,1-26.442-2.668,76.251,76.251,0,0,0-1.416-8.316s28.065-17.7,27.2,3.886A24.128,24.128,0,0,0,622.418,299.6Z" transform="translate(-124.25 -110.997)" opacity="0.1"/>
    <circle id="Ellipse_78" data-name="Ellipse 78" cx="29.361" cy="29.361" r="29.361" transform="translate(458.211 130.128)" fill="#fabdbd"/>
    <path id="Path_2512" data-name="Path 2512" d="M555.06,350.77s56.995-36.269,234.023,2.591,279.791,7.772,279.791,7.772V401.72s-198.617,21.589-274.609,0-184.17-34.041-222.054-.613Z" transform="translate(-118.861 -118.311)" fill="#f86d70"/>
    <path id="Path_2513" data-name="Path 2513" d="M555.06,350.77s56.995-36.269,234.023,2.591,279.791,7.772,279.791,7.772V401.72s-198.617,21.589-274.609,0-184.17-34.041-222.054-.613Z" transform="translate(-118.861 -118.311)" opacity="0.1"/>
    <path id="Path_2514" data-name="Path 2514" d="M557.06,352.77s55.267-36.269,232.3,2.591,278.064,7.772,278.064,7.772l.864,37.133s-196.89,21.589-272.882,0-183.306-36.632-221.19-3.2Z" transform="translate(-119.134 -118.584)" fill="#fe654f"/>
    <path id="Path_2515" data-name="Path 2515" d="M469.4,410.233S412.41,446.5,235.382,407.643s-168.393-7.772-168.393-7.772V359.284s87.219-21.589,163.211,0,184.17,34.041,222.054.613Z" transform="translate(-52.255 -120.262)" fill="#f86d70"/>
    <path id="Path_2516" data-name="Path 2516" d="M469.4,410.233S412.41,446.5,235.382,407.643s-168.393-7.772-168.393-7.772V359.284s87.219-21.589,163.211,0,184.17,34.041,222.054.613Z" transform="translate(-52.255 -120.262)" opacity="0.1"/>
    <path id="Path_2517" data-name="Path 2517" d="M467.825,408.779s-55.267,36.269-232.3-2.591-166.666-7.772-166.666-7.772L68,361.284s85.492-21.589,161.484,0,183.306,36.632,221.19,3.2Z" transform="translate(-52.402 -120.535)" fill="#fe654f"/>
    <path id="Path_2518" data-name="Path 2518" d="M580.954,266.846c-.863-5.389-2.193-12.176,2.314-15.259a9.585,9.585,0,0,1,5.345-1.382c9.335-.1,18.255,6.408,27.409,4.508a15.449,15.449,0,0,0,6.045-27.521c-3.6-2.677-8.152-3.644-12.556-4.551-11.58-2.383-23.67-4.758-35.1-1.727s-21.882,13.281-20.967,25.043c.432,5.63,3.3,10.743,6.3,15.544,2.28,3.644,11.157,20.725,15.466,20.984C581.282,282.84,581.55,270.37,580.954,266.846Z" transform="translate(-118.632 -102.496)" fill="#3f3d56"/>
    <path id="Path_2519" data-name="Path 2519" d="M655.975,461.7s-59.585,14.68-79.447,0c0,0-8.635,33.678-6.045,50.95,0,0,42.314,2.591,46.632,5.181,0,0,.864-6.908,5.181-3.454,0,0,14.68-17.271,41.451-1.727C663.747,512.65,668.928,472.063,655.975,461.7Z" transform="translate(-120.899 -135.545)" fill="#4bad65"/>
    <path id="Path_2520" data-name="Path 2520" d="M624.837,228.219a17.15,17.15,0,0,0-1.926-1.209,15.414,15.414,0,0,1-8.454,25.276c-9.154,1.9-18.074-4.6-27.409-4.508a9.586,9.586,0,0,0-5.345,1.382c-4.508,3.083-3.187,9.87-2.323,15.259.57,3.523.337,15.993-5.725,15.656h-.1c1.667,2.029,3.221,3.4,4.421,3.454,6.045.337,6.3-12.09,5.725-15.656-.864-5.389-2.185-12.176,2.323-15.259a9.585,9.585,0,0,1,5.345-1.382c9.335-.095,18.255,6.408,27.409,4.508a15.449,15.449,0,0,0,6.045-27.521Z" transform="translate(-121.384 -103.522)" opacity="0.1"/>
    <g id="Group_514" data-name="Group 514" transform="translate(0.013 76.171)" opacity="0.1">
      <path id="Path_2521" data-name="Path 2521" d="M124.518,179.724s-64.568-27.15-73.031,21.813c0,0-4.413,7.625,1.727,13.929,0,0,1.321-3.376,7.565.121a32.467,32.467,0,0,0,7.047,2.858,15.855,15.855,0,0,0,10.034-.535h0s21.235-1.148,39.093-28.929c0,0,7.651-4.732,8.04-6.5l-12.8.864s.976,9.37-4.318,14.991c0,0,4.706-14.534,2.444-14.948-.458-.086-6.762.751-6.762.751s1.632,16.287-6.908,24.715c0,0,7.927-16.572,4.473-24.421l-9.439,1.822s2.591,17.133-6.753,27.107c0,0,7.677-17.616,4.715-26.572l-9.05,3.04s2.185,16.77-5.63,25.043c0,0,6.822-21.252,3.61-24.179,0,0-8.135,3.3-9.879,5.181,0,0,1.3,12.09-3.679,16.407,0,0,3.057-14.68,1.546-15.285,0,0-9.456,7.116-12.332,13.255,0,0,3.592-9.378,11.14-14.68,0,0-6.338-1.071-11.226,1.58,0,0,3.273-6.226,13.515-3.273,0,0,7.591-5.25,9.11-5.181,0,0-9.689-4.318-16.692-3.791,0,0,7.5-4.318,19.067,2.9l9.015-3.264s-12.513-6.416-18.791-6.39c0,0,8.342-3.221,21.14,5.76l9.231-1.891S89.38,175.674,82.394,174.2c0,0,8.385-1.321,20.017,7.392l6.321-.535s-7.651-4.5-9.965-5.6-2.211-1.813-2.211-1.813a30.138,30.138,0,0,1,14.827,7.133S124.458,180.527,124.518,179.724Z" transform="translate(-49.953 -172.217)" fill="#4bad65"/>
    </g>
    <g id="Group_515" data-name="Group 515" transform="translate(9.475 -0.004)" opacity="0.1">
      <path id="Path_2522" data-name="Path 2522" d="M123.63,119.018s-22.919-52.91-55.811-28.644c0,0-6.969,2.021-6.908,9.24,0,0,2.712-1.252,4.421,4.378a27.107,27.107,0,0,0,2.591,5.717,12.953,12.953,0,0,0,6.209,5.38h0S87.4,126.5,113.854,120.175c0,0,7.245,1.554,8.489.717l-8.091-6.788s-4.75,6.123-11.123,6.425c0,0,11.079-5.959,9.965-7.5-.225-.311-4.439-3.4-4.439-3.4s-8.316,10.6-18.135,10.769c0,0,14.154-5.337,16.572-11.96l-6.641-4.318S92.214,115.771,81,116.375c0,0,14.594-6.045,17.936-13.091l-7.107-3.351S83.57,111.16,74.235,111.583c0,0,16.157-8.739,15.907-12.306,0,0-6.71-2.677-8.834-2.522,0,0-6.105,7.9-11.554,7.677,0,0,10.181-6.986,9.62-8.2,0,0-9.672-1.157-14.879.864,0,0,7.478-3.523,14.983-2.366,0,0-3.152-4.257-7.547-5.44,0,0,5.492-1.839,9.9,5.751,0,0,7.5,1.2,8.368,2.1,0,0-3.282-8.109-7.772-11.762,0,0,6.908,1.727,9.672,12.582l7.211,3.2s-3.774-10.941-7.565-14.49c0,0,6.8,2.832,9.283,15.458l6.554,4.136s-2.547-9.672-5.846-14.49c0,0,5.734,3.981,7.686,15.786l4.059,3.282s-1.986-7.029-2.737-9-.276-2.332-.276-2.332A24.879,24.879,0,0,1,115.2,112.2S123.163,119.467,123.63,119.018Z" transform="translate(-60.91 -84.006)" fill="#4bad65"/>
    </g>
  </g>
</svg>
