<svg xmlns="http://www.w3.org/2000/svg" xmlns:xlink="http://www.w3.org/1999/xlink" width="746" height="817" viewBox="0 0 746 817">
  <defs>
    <filter id="Rectangle_3444" x="0" y="0" width="746" height="817" filterUnits="userSpaceOnUse">
      <feOffset dx="20" dy="20" input="SourceAlpha"/>
      <feGaussianBlur stdDeviation="35" result="blur"/>
      <feFlood flood-opacity="0.259"/>
      <feComposite operator="in" in2="blur"/>
      <feComposite in="SourceGraphic"/>
    </filter>
    <filter id="Rectangle_3445" x="0" y="0" width="746" height="817" filterUnits="userSpaceOnUse">
      <feOffset dx="20" dy="20" input="SourceAlpha"/>
      <feGaussianBlur stdDeviation="35" result="blur-2"/>
      <feFlood flood-opacity="0.161"/>
      <feComposite operator="in" in2="blur-2"/>
      <feComposite in="SourceGraphic"/>
    </filter>
    <clipPath id="clip-path">
      <g transform="matrix(1, 0, 0, 1, 0, 0)" filter="url(#Rectangle_3444)">
        <rect id="Rectangle_3444-2" data-name="Rectangle 3444" width="536" height="607" rx="30" transform="translate(140 2127)" fill="#fff"/>
      </g>
    </clipPath>
    <linearGradient id="linear-gradient" x1="0.5" y1="1" x2="0.5" gradientUnits="objectBoundingBox">
      <stop offset="0" stop-color="gray" stop-opacity="0.251"/>
      <stop offset="0.54" stop-color="gray" stop-opacity="0.122"/>
      <stop offset="1" stop-color="gray" stop-opacity="0.102"/>
    </linearGradient>
    <linearGradient id="linear-gradient-2" x1="0.5" y1="1" x2="0.5" y2="-0.001" xlink:href="#linear-gradient"/>
  </defs>
  <g id="Group_647" data-name="Group 647" transform="translate(-55 -2042)">
    <g id="Group_636" data-name="Group 636">
      <g transform="matrix(1, 0, 0, 1, 55, 2042)" filter="url(#Rectangle_3445)">
        <rect id="Rectangle_3445-2" data-name="Rectangle 3445" width="536" height="607" rx="30" transform="translate(85 85)" fill="#fff"/>
      </g>
      <g id="Mask_Group_6" data-name="Mask Group 6" clip-path="url(#clip-path)">
        <g id="undraw_contact_us_15o2" transform="translate(27.123 2179.551)">
          <g id="Group_627" data-name="Group 627" transform="translate(439.792 41.019)" opacity="0.1">
            <ellipse id="Ellipse_158" data-name="Ellipse 158" cx="11.772" cy="15.413" rx="11.772" ry="15.413" transform="translate(44.368 318.172)" fill="#3f3d56"/>
            <path id="Path_3088" data-name="Path 3088" d="M541.134,461.827A18.622,18.622,0,0,0,543.6,452.4c0-8.513-5.276-15.413-11.782-15.413S520,443.91,520,452.424a18.62,18.62,0,0,0,2.462,9.424,19.251,19.251,0,0,0,0,18.837,19.251,19.251,0,0,0,0,18.837A18.557,18.557,0,0,0,520,508.946c0,8.5,5.276,15.413,11.772,15.413s11.782-6.91,11.782-15.413a18.558,18.558,0,0,0-2.462-9.424,19.251,19.251,0,0,0,0-18.837,19.251,19.251,0,0,0,0-18.837Z" transform="translate(-475.673 -194.187)" fill="#3f3d56"/>
            <ellipse id="Ellipse_159" data-name="Ellipse 159" cx="11.772" cy="15.413" rx="11.772" ry="15.413" transform="translate(44.368 223.986)" fill="#3f3d56"/>
            <ellipse id="Ellipse_160" data-name="Ellipse 160" cx="11.772" cy="15.413" rx="11.772" ry="15.413" transform="translate(44.368 205.149)" fill="#3f3d56"/>
            <path id="Path_3089" data-name="Path 3089" d="M489.222,293.911a54.91,54.91,0,0,1-4.386-6.455l30.93-5.079-33.454.248a56.5,56.5,0,0,1-1.035-44.688l44.884,23.285-41.378-30.433a56.408,56.408,0,1,1,93.1,63.1,56.414,56.414,0,0,1,6.434,10.282l-40.167,20.916,42.816-14.368a56.408,56.408,0,0,1-9.093,52.963,56.4,56.4,0,1,1-88.652,0,56.4,56.4,0,0,1,0-69.742Z" transform="translate(-477.149 -202.271)" fill="#4bad65"/>
            <path id="Path_3090" data-name="Path 3090" d="M589.946,324.6a56.139,56.139,0,0,1-12.072,34.871,56.4,56.4,0,1,1-88.652,0C481.66,349.869,589.946,318.267,589.946,324.6Z" transform="translate(-477.149 -198.087)" opacity="0.1"/>
          </g>
          <g id="Group_628" data-name="Group 628" transform="translate(591.411 92.567)" opacity="0.1">
            <ellipse id="Ellipse_161" data-name="Ellipse 161" cx="8.803" cy="11.513" rx="8.803" ry="11.513" transform="translate(33.154 237.567)" fill="#3f3d56"/>
            <path id="Path_3091" data-name="Path 3091" d="M671.525,445.878a13.891,13.891,0,0,0,1.831-7.034c0-6.362-3.941-11.524-8.793-11.524s-8.8,5.172-8.8,11.524a13.789,13.789,0,0,0,1.841,7.034,14.379,14.379,0,0,0,0,14.079,14.379,14.379,0,0,0,0,14.079,13.789,13.789,0,0,0-1.841,7.034c0,6.362,3.941,11.524,8.8,11.524s8.793-5.172,8.793-11.524a13.891,13.891,0,0,0-1.831-7.034,14.482,14.482,0,0,0,0-14.079,14.482,14.482,0,0,0,0-14.079Z" transform="translate(-622.617 -246.068)" fill="#3f3d56"/>
            <ellipse id="Ellipse_162" data-name="Ellipse 162" cx="8.803" cy="11.513" rx="8.803" ry="11.513" transform="translate(33.154 167.183)" fill="#3f3d56"/>
            <ellipse id="Ellipse_163" data-name="Ellipse 163" cx="8.803" cy="11.513" rx="8.803" ry="11.513" transform="translate(33.154 153.105)" fill="#3f3d56"/>
            <path id="Path_3092" data-name="Path 3092" d="M632.74,320.383a40.334,40.334,0,0,1-3.279-4.82l23.12-3.8-25,.186a42.247,42.247,0,0,1-.807-33.4l33.547,17.41L629.378,273.2a42.154,42.154,0,1,1,69.608,47.171,42.622,42.622,0,0,1,4.81,7.686l-30,15.589,32-10.738a42.164,42.164,0,0,1-6.8,39.578,42.143,42.143,0,1,1-66.2,0,42.143,42.143,0,0,1,0-52.115Z" transform="translate(-623.72 -252.103)" fill="#4bad65"/>
            <path id="Path_3093" data-name="Path 3093" d="M708.006,343.321a41.967,41.967,0,0,1-9.02,26.058,42.143,42.143,0,1,1-66.2,0C627.112,362.21,708.006,338.593,708.006,343.321Z" transform="translate(-623.72 -248.983)" opacity="0.1"/>
          </g>
          <g id="Group_629" data-name="Group 629" transform="translate(1017.416 -0.359)" opacity="0.1">
            <ellipse id="Ellipse_164" data-name="Ellipse 164" cx="11.772" cy="15.413" rx="11.772" ry="15.413" transform="translate(45.162 318.172)" fill="#3f3d56"/>
            <path id="Path_3094" data-name="Path 3094" d="M1081.652,421.827a18.622,18.622,0,0,1-2.462-9.424c0-8.513,5.276-15.413,11.782-15.413s11.772,6.9,11.772,15.413a18.619,18.619,0,0,1-2.462,9.424,19.251,19.251,0,0,1,0,18.837,19.251,19.251,0,0,1,0,18.837,18.558,18.558,0,0,1,2.462,9.424c0,8.5-5.276,15.413-11.772,15.413s-11.782-6.91-11.782-15.413a18.557,18.557,0,0,1,2.462-9.424,19.25,19.25,0,0,1,0-18.837A19.25,19.25,0,0,1,1081.652,421.827Z" transform="translate(-1034.038 -154.187)" fill="#3f3d56"/>
            <ellipse id="Ellipse_165" data-name="Ellipse 165" cx="11.772" cy="15.413" rx="11.772" ry="15.413" transform="translate(45.162 223.986)" fill="#3f3d56"/>
            <ellipse id="Ellipse_166" data-name="Ellipse 166" cx="11.772" cy="15.413" rx="11.772" ry="15.413" transform="translate(45.162 205.149)" fill="#3f3d56"/>
            <path id="Path_3095" data-name="Path 3095" d="M1136.543,253.911a54.928,54.928,0,0,0,4.386-6.455L1110,242.377l33.454.248a56.5,56.5,0,0,0,1.034-44.688L1099.6,221.223l41.378-30.433a56.408,56.408,0,1,0-93.1,63.1,56.423,56.423,0,0,0-6.434,10.282l40.167,20.916L1038.8,270.721a56.408,56.408,0,0,0,9.093,52.963,56.4,56.4,0,1,0,88.652,0,56.4,56.4,0,0,0,0-69.742Z" transform="translate(-1035.541 -162.271)" fill="#4bad65"/>
            <path id="Path_3096" data-name="Path 3096" d="M1035.81,284.6a56.139,56.139,0,0,0,12.072,34.871,56.4,56.4,0,1,0,88.652,0C1144.1,309.869,1035.81,278.267,1035.81,284.6Z" transform="translate(-1035.532 -158.087)" opacity="0.1"/>
          </g>
          <g id="Group_630" data-name="Group 630" transform="translate(918.332 86.36)" opacity="0.1">
            <ellipse id="Ellipse_167" data-name="Ellipse 167" cx="8.803" cy="11.513" rx="8.803" ry="11.513" transform="translate(33.571 237.567)" fill="#3f3d56"/>
            <path id="Path_3097" data-name="Path 3097" d="M974.061,439.878a13.893,13.893,0,0,1-1.831-7.034c0-6.362,3.941-11.524,8.793-11.524s8.8,5.172,8.8,11.524a13.788,13.788,0,0,1-1.841,7.034,14.378,14.378,0,0,1,0,14.079,14.378,14.378,0,0,1,0,14.079,13.787,13.787,0,0,1,1.841,7.034c0,6.362-3.941,11.524-8.8,11.524s-8.793-5.172-8.793-11.524a13.893,13.893,0,0,1,1.831-7.034,14.482,14.482,0,0,1,0-14.079,14.482,14.482,0,0,1,0-14.079Z" transform="translate(-938.638 -240.068)" fill="#3f3d56"/>
            <ellipse id="Ellipse_168" data-name="Ellipse 168" cx="8.803" cy="11.513" rx="8.803" ry="11.513" transform="translate(33.571 167.183)" fill="#3f3d56"/>
            <ellipse id="Ellipse_169" data-name="Ellipse 169" cx="8.803" cy="11.513" rx="8.803" ry="11.513" transform="translate(33.571 153.105)" fill="#3f3d56"/>
            <path id="Path_3098" data-name="Path 3098" d="M1015.067,314.383a40.329,40.329,0,0,0,3.279-4.82l-23.12-3.8,25,.186a42.246,42.246,0,0,0,.807-33.4l-33.547,17.41,30.94-22.758a42.154,42.154,0,1,0-69.608,47.171,42.618,42.618,0,0,0-4.81,7.686l30,15.589-31.933-10.727a42.164,42.164,0,0,0,6.8,39.578,42.143,42.143,0,1,0,66.2,0,42.143,42.143,0,0,0,0-52.115Z" transform="translate(-939.756 -246.103)" fill="#4bad65"/>
            <path id="Path_3099" data-name="Path 3099" d="M939.8,337.321a41.968,41.968,0,0,0,9.02,26.058,42.143,42.143,0,1,0,66.2,0C1020.694,356.21,939.8,332.593,939.8,337.321Z" transform="translate(-939.756 -242.983)" opacity="0.1"/>
          </g>
          <g id="Group_631" data-name="Group 631" transform="translate(7.561 -0.186)" opacity="0.1">
            <ellipse id="Ellipse_170" data-name="Ellipse 170" cx="11.772" cy="15.413" rx="11.772" ry="15.413" transform="translate(44.378 317.999)" fill="#3f3d56"/>
            <path id="Path_3100" data-name="Path 3100" d="M123.292,421.827a18.62,18.62,0,0,0,2.462-9.424c0-8.513-5.276-15.413-11.772-15.413s-11.772,6.9-11.772,15.413a18.62,18.62,0,0,0,2.452,9.424,19.313,19.313,0,0,0,0,18.837,19.313,19.313,0,0,0,0,18.837,18.547,18.547,0,0,0-2.452,9.424c0,8.5,5.265,15.413,11.772,15.413s11.8-6.889,11.8-15.392a18.558,18.558,0,0,0-2.462-9.424,19.251,19.251,0,0,0,0-18.837,19.251,19.251,0,0,0,0-18.837Z" transform="translate(-57.832 -154.36)" fill="#3f3d56"/>
            <ellipse id="Ellipse_171" data-name="Ellipse 171" cx="11.772" cy="15.413" rx="11.772" ry="15.413" transform="translate(44.378 223.813)" fill="#3f3d56"/>
            <ellipse id="Ellipse_172" data-name="Ellipse 172" cx="11.772" cy="15.413" rx="11.772" ry="15.413" transform="translate(44.378 204.976)" fill="#3f3d56"/>
            <path id="Path_3101" data-name="Path 3101" d="M71.4,253.905a56.194,56.194,0,0,1-4.386-6.455l30.94-5.079-33.485.3a56.5,56.5,0,0,1-1.034-44.688l44.895,23.285L66.955,190.835a56.4,56.4,0,1,1,93.1,63.1,56.42,56.42,0,0,1,6.434,10.282l-40.178,20.865,42.826-14.368a56.47,56.47,0,0,1-9.1,52.963,56.4,56.4,0,1,1-88.652,0,56.4,56.4,0,0,1,0-69.742Z" transform="translate(-59.309 -162.439)" fill="#4bad65"/>
            <path id="Path_3102" data-name="Path 3102" d="M172.106,284.6a56.139,56.139,0,0,1-12.072,34.871,56.4,56.4,0,1,1-88.652,0C63.82,309.869,172.106,278.267,172.106,284.6Z" transform="translate(-59.309 -158.26)" opacity="0.1"/>
          </g>
          <g id="Group_632" data-name="Group 632" transform="translate(135.388 86.36)" opacity="0.1">
            <ellipse id="Ellipse_173" data-name="Ellipse 173" cx="8.803" cy="11.513" rx="8.803" ry="11.513" transform="translate(33.154 237.567)" fill="#3f3d56"/>
            <path id="Path_3103" data-name="Path 3103" d="M230.695,439.878a13.892,13.892,0,0,0,1.831-7.034c0-6.362-3.931-11.524-8.793-11.524s-8.8,5.172-8.8,11.524a13.892,13.892,0,0,0,1.841,7.034,14.379,14.379,0,0,0,0,14.079,14.379,14.379,0,0,0,0,14.079,13.893,13.893,0,0,0-1.841,7.034c0,6.362,3.941,11.524,8.8,11.524s8.793-5.172,8.793-11.524a13.893,13.893,0,0,0-1.831-7.034,14.482,14.482,0,0,0,0-14.079,14.482,14.482,0,0,0,0-14.079Z" transform="translate(-181.776 -240.068)" fill="#3f3d56"/>
            <ellipse id="Ellipse_174" data-name="Ellipse 174" cx="8.803" cy="11.513" rx="8.803" ry="11.513" transform="translate(33.154 167.183)" fill="#3f3d56"/>
            <ellipse id="Ellipse_175" data-name="Ellipse 175" cx="8.803" cy="11.513" rx="8.803" ry="11.513" transform="translate(33.154 153.105)" fill="#3f3d56"/>
            <path id="Path_3104" data-name="Path 3104" d="M191.9,314.383a41.592,41.592,0,0,1-3.279-4.82l23.12-3.8-25,.186a42.247,42.247,0,0,1-.807-33.4l33.547,17.41L188.538,267.2a42.153,42.153,0,1,1,69.608,47.171,41.5,41.5,0,0,1,4.81,7.686l-30,15.589,32-10.738a42.164,42.164,0,0,1-6.8,39.578,42.143,42.143,0,1,1-66.2,0,42.143,42.143,0,0,1,0-52.115Z" transform="translate(-182.88 -246.103)" fill="#4bad65"/>
            <path id="Path_3105" data-name="Path 3105" d="M267.166,337.321a41.967,41.967,0,0,1-9.02,26.058,42.143,42.143,0,1,1-66.2,0C186.252,356.21,267.166,332.593,267.166,337.321Z" transform="translate(-182.88 -242.983)" opacity="0.1"/>
          </g>
          <ellipse id="Ellipse_176" data-name="Ellipse 176" cx="566.874" cy="9.165" rx="566.874" ry="9.165" transform="translate(0 500.961)" fill="#4bad65" opacity="0.1"/>
          <ellipse id="Ellipse_177" data-name="Ellipse 177" cx="566.874" cy="9.165" rx="566.874" ry="9.165" transform="translate(0 576.217)" fill="#4bad65" opacity="0.1"/>
          <ellipse id="Ellipse_178" data-name="Ellipse 178" cx="566.874" cy="9.165" rx="566.874" ry="9.165" transform="translate(0 343.902)" fill="#4bad65" opacity="0.1"/>
          <ellipse id="Ellipse_179" data-name="Ellipse 179" cx="566.874" cy="9.165" rx="566.874" ry="9.165" transform="translate(0 422.427)" fill="#4bad65" opacity="0.1"/>
          <path id="Path_3106" data-name="Path 3106" d="M862.678,273.839a18.93,18.93,0,0,0-10.965,1.2,16.189,16.189,0,0,1-13.179,0,18.5,18.5,0,0,0-15.517.3,9.558,9.558,0,0,1-4.458,1.117c-6.289,0-11.513-6.331-12.6-14.679a12.288,12.288,0,0,0,3.1-3.383c3.683-5.938,9.382-9.755,15.8-9.755s12.041,3.765,15.723,9.641a12.082,12.082,0,0,0,10.438,5.731h.165C856.244,263.96,860.578,267.974,862.678,273.839Z" transform="translate(-26.032 -159.655)" fill="#4bad65" opacity="0.1"/>
          <path id="Path_3107" data-name="Path 3107" d="M881.827,248.394l-10.158,6.434,6.207-11.213a10.035,10.035,0,0,0-6.145-2.183h-.165a11.742,11.742,0,0,1-2.069-.155l-3.5,2.183,1.479-2.69a12.2,12.2,0,0,1-6.031-4.572l-6.207,3.91,3.89-7.076c-3.6-4.324-8.462-6.972-13.8-6.972-6.414,0-12.113,3.807-15.806,9.744a11.8,11.8,0,0,1-10.438,5.627h-.341c-7.076,0-12.806,8.017-12.806,17.906s5.731,17.917,12.806,17.917a9.713,9.713,0,0,0,4.458-1.117,18.475,18.475,0,0,1,15.517-.31,16.086,16.086,0,0,0,13.179,0,18.537,18.537,0,0,1,15.372.3,9.62,9.62,0,0,0,4.407,1.1c7.076,0,12.806-8.027,12.806-17.917A22.685,22.685,0,0,0,881.827,248.394Z" transform="translate(-26.033 -160.433)" fill="#4bad65" opacity="0.1"/>
          <path id="Path_3108" data-name="Path 3108" d="M444.581,268.177a13.282,13.282,0,0,0-7.686.838,11.3,11.3,0,0,1-9.217,0,12.91,12.91,0,0,0-10.851.217,6.848,6.848,0,0,1-3.1.776c-4.4,0-8.058-4.427-8.824-10.272a8.607,8.607,0,0,0,2.2-2.369c2.576-4.138,6.569-6.827,11.058-6.827s8.431,2.638,11.006,6.745a8.472,8.472,0,0,0,7.314,4.014h.114C440.071,261.278,443.1,264.091,444.581,268.177Z" transform="translate(-39.846 -159.59)" fill="#4bad65" opacity="0.1"/>
          <path id="Path_3109" data-name="Path 3109" d="M457.978,250.381l-7.107,4.51,4.314-7.851a6.982,6.982,0,0,0-4.293-1.531h-.124a7.749,7.749,0,0,1-1.469-.114l-2.41,1.531,1.034-1.883a8.586,8.586,0,0,1-4.221-3.2l-4.314,2.731,2.731-4.945a12.63,12.63,0,0,0-9.662-4.893c-4.489,0-8.482,2.669-11.058,6.827a8.276,8.276,0,0,1-7.314,3.941h-.238c-4.955,0-8.969,5.607-8.969,12.537s4.014,12.537,8.969,12.537a6.724,6.724,0,0,0,3.1-.786,12.931,12.931,0,0,1,10.841-.207,11.11,11.11,0,0,0,9.227.062,12.972,12.972,0,0,1,10.758.207,6.7,6.7,0,0,0,3.1.766c4.945,0,8.958-5.617,8.958-12.537A15.858,15.858,0,0,0,457.978,250.381Z" transform="translate(-39.846 -160.134)" fill="#4bad65" opacity="0.1"/>
          <path id="Path_3110" data-name="Path 3110" d="M321.59,346.587a13.262,13.262,0,0,1,7.676.838,11.317,11.317,0,0,0,9.227,0,12.951,12.951,0,0,1,10.851.207,6.693,6.693,0,0,0,3.1.786c4.4,0,8.058-4.438,8.813-10.282a8.431,8.431,0,0,1-2.193-2.369c-2.586-4.138-6.579-6.817-11.058-6.817s-8.431,2.628-11.017,6.745a8.472,8.472,0,0,1-7.3,4.014h-.114C326.09,339.729,323.049,342.532,321.59,346.587Z" transform="translate(-42.715 -156.889)" fill="#4bad65" opacity="0.1"/>
          <path id="Path_3111" data-name="Path 3111" d="M308.691,328.82l7.117,4.51-4.324-7.841a7.024,7.024,0,0,1,4.3-1.541h.114a8.811,8.811,0,0,0,1.479-.1l2.41,1.521-1.034-1.872a8.576,8.576,0,0,0,4.21-3.2l4.314,2.731-2.69-4.955a12.62,12.62,0,0,1,9.662-4.883c4.479,0,8.482,2.669,11.058,6.827a8.275,8.275,0,0,0,7.3,3.941h.248c4.945,0,8.958,5.617,8.958,12.537s-4.014,12.537-8.958,12.537a6.714,6.714,0,0,1-3.1-.776,12.91,12.91,0,0,0-10.851-.217,11.235,11.235,0,0,1-4.634,1.034,11.379,11.379,0,0,1-4.593-.972,12.951,12.951,0,0,0-10.748.207,6.7,6.7,0,0,1-3.1.766c-4.955,0-8.969-5.607-8.969-12.537a15.972,15.972,0,0,1,1.831-7.717Z" transform="translate(-43.222 -157.432)" fill="#4bad65" opacity="0.1"/>
          <path id="Path_3112" data-name="Path 3112" d="M716.7,656.557c2.7-5.007-.362-11.131-3.879-15.589s-7.82-9.1-7.727-14.782c.134-8.162,8.8-12.993,15.724-17.317a76.863,76.863,0,0,0,14.12-11.379,20.823,20.823,0,0,0,4.334-5.814c1.438-3.186,1.4-6.827,1.3-10.344q-.445-17.472-1.728-34.923" transform="translate(-29.507 -149.4)" fill="none" stroke="#3f3d56" stroke-miterlimit="10" stroke-width="4"/>
          <path id="Path_3113" data-name="Path 3113" d="M751.3,546.254a12.734,12.734,0,0,0-6.362-10.437l-2.855,5.638.093-6.827a12.734,12.734,0,1,0,9.124,11.627Z" transform="translate(-28.792 -149.823)" fill="#4bad65"/>
          <path id="Path_3114" data-name="Path 3114" d="M729.291,629.784a12.734,12.734,0,0,1-24.04-5.172,12.414,12.414,0,0,1,.827-5.172,12.744,12.744,0,0,1,23.792.134l-7.955,6.476,8.751-2.069A12.662,12.662,0,0,1,729.291,629.784Z" transform="translate(-29.501 -147.164)" fill="#4bad65"/>
          <path id="Path_3115" data-name="Path 3115" d="M722.854,606.118a12.734,12.734,0,0,1-4.034-24.982l-.072,5.245,2.886-5.71h0a12.738,12.738,0,0,1,1.19,25.447Z" transform="translate(-29.354 -148.22)" fill="#4bad65"/>
          <path id="Path_3116" data-name="Path 3116" d="M752.746,586.227a12.734,12.734,0,1,1,5.627-23.792l-2.245,6.207,4.583-4.531a12.734,12.734,0,0,1-8.007,22.106Z" transform="translate(-28.326 -148.905)" fill="#4bad65"/>
          <path id="Path_3117" data-name="Path 3117" d="M749.581,549.415c-2.938.321-5.793,1.231-8.751,1.417s-6.207-.528-8.048-2.814a40.808,40.808,0,0,1-2.359-4.138,9.062,9.062,0,0,0-3.207-3.021,12.734,12.734,0,1,0,23.792,8.462C750.543,549.332,750.057,549.363,749.581,549.415Z" transform="translate(-28.792 -149.591)" opacity="0.1"/>
          <path id="Path_3118" data-name="Path 3118" d="M752.744,585.985a12.734,12.734,0,0,1-12.113-18.165,9.424,9.424,0,0,1,2.555,2.565,43.144,43.144,0,0,0,2.524,4.21c1.986,2.327,5.379,3.1,8.451,2.948s6.041-1.034,9.1-1.293c.424,0,.848-.062,1.283-.072a12.734,12.734,0,0,1-11.8,9.806Z" transform="translate(-28.324 -148.662)" opacity="0.1"/>
          <path id="Path_3119" data-name="Path 3119" d="M722.854,605.867a12.734,12.734,0,0,1-12.217-17.927,10.342,10.342,0,0,1,2.7,2.586,42.668,42.668,0,0,0,2.762,4.293c2.141,2.389,5.762,3.238,9.01,3.1s6.207-.838,9.31-1.034a12.755,12.755,0,0,1-11.565,8.979Z" transform="translate(-29.354 -147.969)" opacity="0.1"/>
          <path id="Path_3120" data-name="Path 3120" d="M729.291,629.514a12.734,12.734,0,0,1-24.04-5.172,12.414,12.414,0,0,1,.827-5.172,12.713,12.713,0,0,1,2.793,2.493c1.21,1.469,2.007,3.1,3.414,4.521,2.6,2.555,6.807,3.61,10.541,3.7a53.51,53.51,0,0,0,6.465-.372Z" transform="translate(-29.501 -146.894)" opacity="0.1"/>
          <path id="Path_3121" data-name="Path 3121" d="M106.7,584.557c2.7-5.007-.362-11.131-3.879-15.589S95,559.845,95.09,554.186c.134-8.162,8.8-12.993,15.724-17.317a76.863,76.863,0,0,0,14.12-11.379,20.825,20.825,0,0,0,4.334-5.814c1.438-3.186,1.4-6.827,1.3-10.344q-.455-17.472-1.728-34.923" transform="translate(-50.516 -151.879)" fill="none" stroke="#3f3d56" stroke-miterlimit="10" stroke-width="4"/>
          <path id="Path_3122" data-name="Path 3122" d="M141.3,474.254a12.734,12.734,0,0,0-6.362-10.437l-2.855,5.638.093-6.827a12.734,12.734,0,1,0,9.124,11.627Z" transform="translate(-49.801 -152.303)" fill="#4bad65"/>
          <path id="Path_3123" data-name="Path 3123" d="M119.291,557.784a12.734,12.734,0,0,1-24.04-5.172,12.413,12.413,0,0,1,.828-5.172,12.744,12.744,0,0,1,23.792.134l-7.955,6.476,8.751-2.069a12.662,12.662,0,0,1-1.376,5.8Z" transform="translate(-50.511 -149.643)" fill="#4bad65"/>
          <path id="Path_3124" data-name="Path 3124" d="M112.854,534.118a12.734,12.734,0,0,1-4.034-24.982l-.072,5.245,2.886-5.71h0a12.738,12.738,0,1,1,1.19,25.447Z" transform="translate(-50.363 -150.7)" fill="#4bad65"/>
          <path id="Path_3125" data-name="Path 3125" d="M142.746,514.227a12.734,12.734,0,1,1,5.627-23.792l-2.245,6.207,4.583-4.531a12.734,12.734,0,0,1-8.007,22.106Z" transform="translate(-49.336 -151.385)" fill="#4bad65"/>
          <path id="Path_3126" data-name="Path 3126" d="M139.581,477.415c-2.938.321-5.793,1.231-8.751,1.417s-6.207-.528-8.048-2.814a40.837,40.837,0,0,1-2.359-4.138,9.062,9.062,0,0,0-3.207-3.021,12.734,12.734,0,1,0,23.792,8.462C140.543,477.332,140.057,477.363,139.581,477.415Z" transform="translate(-49.802 -152.071)" opacity="0.1"/>
          <path id="Path_3127" data-name="Path 3127" d="M142.744,513.985a12.734,12.734,0,0,1-12.113-18.165,9.423,9.423,0,0,1,2.555,2.565,43.161,43.161,0,0,0,2.524,4.21c1.986,2.328,5.379,3.1,8.451,2.948s6.041-1.034,9.1-1.293c.424,0,.848-.062,1.283-.072A12.734,12.734,0,0,1,142.744,513.985Z" transform="translate(-49.334 -151.142)" opacity="0.1"/>
          <path id="Path_3128" data-name="Path 3128" d="M112.854,533.867a12.734,12.734,0,0,1-12.217-17.927,10.345,10.345,0,0,1,2.7,2.586,42.65,42.65,0,0,0,2.762,4.293c2.141,2.39,5.762,3.238,9.01,3.1s6.207-.838,9.31-1.034A12.755,12.755,0,0,1,112.854,533.867Z" transform="translate(-50.363 -150.449)" opacity="0.1"/>
          <path id="Path_3129" data-name="Path 3129" d="M119.291,557.514a12.734,12.734,0,0,1-24.04-5.172,12.413,12.413,0,0,1,.828-5.172,12.716,12.716,0,0,1,2.793,2.493c1.21,1.469,2.007,3.1,3.414,4.521,2.6,2.555,6.807,3.61,10.541,3.7a53.487,53.487,0,0,0,6.465-.372Z" transform="translate(-50.511 -149.373)" opacity="0.1"/>
          <path id="Path_3130" data-name="Path 3130" d="M513.316,502.187c-2.7-5,.362-11.12,3.89-15.579s7.81-9.1,7.717-14.782c-.124-8.172-8.793-12.993-15.724-17.317a76.548,76.548,0,0,1-14.11-11.379,20.461,20.461,0,0,1-4.345-5.8c-1.428-3.2-1.386-6.827-1.3-10.344q.466-17.472,1.728-34.923" transform="translate(-36.935 -154.716)" fill="none" stroke="#3f3d56" stroke-miterlimit="10" stroke-width="4"/>
          <path id="Path_3131" data-name="Path 3131" d="M478.39,391.894a12.724,12.724,0,0,1,6.351-10.437l2.855,5.638-.083-6.827a13.057,13.057,0,0,1,4.189-.507,12.734,12.734,0,1,1-13.313,12.134Z" transform="translate(-37.315 -155.14)" fill="#4bad65"/>
          <path id="Path_3132" data-name="Path 3132" d="M500.387,475.428a12.734,12.734,0,1,0-.61-10.251l7.955,6.476-8.751-2.069A12.663,12.663,0,0,0,500.387,475.428Z" transform="translate(-36.605 -152.483)" fill="#4bad65"/>
          <path id="Path_3133" data-name="Path 3133" d="M506.824,451.758a12.734,12.734,0,0,0,4.045-24.982l.062,5.245-2.886-5.71h0A12.734,12.734,0,0,0,494.7,438.4a12.58,12.58,0,0,0,.548,4.345,12.724,12.724,0,0,0,11.575,9.01Z" transform="translate(-36.753 -153.537)" fill="#4bad65"/>
          <path id="Path_3134" data-name="Path 3134" d="M476.945,431.847a12.734,12.734,0,1,0-5.638-23.792l2.255,6.207-4.634-4.438a12.631,12.631,0,0,0-4.138,8.793,12.319,12.319,0,0,0,.321,3.507,12.724,12.724,0,0,0,11.834,9.724Z" transform="translate(-37.783 -154.222)" fill="#4bad65"/>
          <path id="Path_3135" data-name="Path 3135" d="M480.1,395.055c2.938.321,5.793,1.231,8.741,1.417s6.207-.528,8.058-2.814a40.739,40.739,0,0,0,2.348-4.138,9.093,9.093,0,0,1,3.217-3.021,12.734,12.734,0,1,1-23.792,8.451C479.135,394.962,479.611,395,480.1,395.055Z" transform="translate(-37.305 -154.907)" opacity="0.1"/>
          <path id="Path_3136" data-name="Path 3136" d="M476.933,431.6a12.744,12.744,0,0,0,12.113-18.165,9.467,9.467,0,0,0-2.565,2.565,43.149,43.149,0,0,1-2.524,4.21c-1.976,2.328-5.369,3.1-8.441,2.948s-6.041-1.034-9.1-1.293c-.424,0-.859-.062-1.283-.072a12.724,12.724,0,0,0,11.8,9.806Z" transform="translate(-37.771 -153.979)" opacity="0.1"/>
          <path id="Path_3137" data-name="Path 3137" d="M506.805,451.507a12.724,12.724,0,0,0,12.217-17.927,10.168,10.168,0,0,0-2.69,2.586,42.652,42.652,0,0,1-2.762,4.293c-2.152,2.39-5.762,3.238-9.02,3.1s-6.207-.838-9.31-1.034a12.724,12.724,0,0,0,11.565,8.979Z" transform="translate(-36.734 -153.286)" opacity="0.1"/>
          <path id="Path_3138" data-name="Path 3138" d="M500.34,475.154a12.734,12.734,0,0,0,23.223-10.344,12.229,12.229,0,0,0-2.793,2.493c-1.21,1.469-2.069,3.1-3.414,4.521-2.607,2.555-6.807,3.61-10.551,3.7a55.81,55.81,0,0,1-6.465-.372Z" transform="translate(-36.558 -152.21)" opacity="0.1"/>
          <circle id="Ellipse_180" data-name="Ellipse 180" cx="103.403" cy="103.403" r="103.403" transform="translate(703.182 142.993)" fill="#3f3d56"/>
          <path id="Path_3139" data-name="Path 3139" d="M877.687,429.047c-3.6-3.6-12.258-9.031-16.551-11.058-4.955-2.379-6.776-2.338-10.282.2-2.917,2.069-4.81,4.065-8.162,3.331s-9.993-5.741-16.417-12.144-11.41-13-12.124-16.406,1.252-5.255,3.341-8.172c2.524-3.507,2.6-5.327.2-10.282-2.069-4.293-7.438-12.931-11.069-16.551s-4.417-2.824-6.4-2.069a37.028,37.028,0,0,0-5.865,3.1c-3.6,2.41-5.617,4.417-7.034,7.438s-3.021,8.627,5.224,23.306A130.021,130.021,0,0,0,815.4,420.223h0a130.214,130.214,0,0,0,30.589,22.9c14.668,8.276,20.285,6.631,23.306,5.224s5.027-3.4,7.427-7.034a36.553,36.553,0,0,0,3.1-5.865C880.511,433.464,881.318,432.657,877.687,429.047Z" transform="translate(-26.714 -155.984)" fill="#4bad65"/>
          <path id="Path_3140" data-name="Path 3140" d="M835.176,300.86A103.444,103.444,0,1,0,938.568,404.27,103.444,103.444,0,0,0,835.176,300.86Zm0,193.048a89.655,89.655,0,1,1,89.655-89.655,89.655,89.655,0,0,1-89.655,89.655Z" transform="translate(-28.591 -157.857)" opacity="0.1"/>
          <path id="Path_3312" data-name="Path 3312" d="M103.4,0A103.4,103.4,0,1,1,0,103.4,103.4,103.4,0,0,1,103.4,0Z" transform="translate(465.623 300.052)" fill="#c0ebd3"/>
          <path id="Path_3141" data-name="Path 3141" d="M662.88,522.447l-30.961,31.5a.559.559,0,0,0,0,.807l21.723,23.1a3.738,3.738,0,1,1-5.286,5.286l-21.609-23.016a.59.59,0,0,0-.828,0l-5.265,5.317A23.141,23.141,0,0,1,604.1,572.4a23.647,23.647,0,0,1-16.841-7.158L582.2,560.07a.59.59,0,0,0-.828,0l-21.558,22.965a3.738,3.738,0,1,1-5.286-5.286l21.64-23.047a.621.621,0,0,0,0-.807l-30.961-31.5a.569.569,0,0,0-.972.4v63.029a9.227,9.227,0,0,0,9.2,9.2H654.677a9.227,9.227,0,0,0,9.2-9.2V522.851a.569.569,0,0,0-.993-.4Z" transform="translate(-35.046 -150.232)" fill="#4bad65"/>
          <path id="Path_3142" data-name="Path 3142" d="M603.955,565.252a15.661,15.661,0,0,0,11.3-4.655l45.091-45.9a9,9,0,0,0-5.689-2.069H553.339a8.937,8.937,0,0,0-5.689,2.069l45.1,45.9A15.6,15.6,0,0,0,603.955,565.252Z" transform="translate(-34.929 -150.563)" fill="#4bad65"/>
          <path id="Path_3143" data-name="Path 3143" d="M604.266,452.69A103.444,103.444,0,1,0,707.658,556.1,103.444,103.444,0,0,0,604.266,452.69Zm0,193.047a89.655,89.655,0,1,1,89.655-89.655,89.655,89.655,0,0,1-89.655,89.655Z" transform="translate(-36.544 -152.627)" opacity="0.1"/>
          <path id="Path_3311" data-name="Path 3311" d="M103.4,0A103.4,103.4,0,1,1,0,103.4,103.4,103.4,0,0,1,103.4,0Z" transform="translate(220.222 222.831)" fill="#c0ebd3"/>
          <path id="Path_3144" data-name="Path 3144" d="M366.223,430.16,325,525.267l3.848,3.848,37.385-16.489,37.385,16.489,3.848-3.848Z" transform="translate(-42.597 -153.403)" fill="#4bad65"/>
          <path id="Path_3145" data-name="Path 3145" d="M368.3,378a103.384,103.384,0,1,0,.017,0Zm0,193.048a73.772,73.772,0,1,1,.01.041Z" transform="translate(-44.671 -155.2)" opacity="0.1"/>
          <path id="Path_3146" data-name="Path 3146" d="M842.574,605.375q-1.407-3.434-2.886-6.848a20.326,20.326,0,0,0-3.527-6.093,6.454,6.454,0,0,0-2.069-1.552,8.825,8.825,0,0,0-2.7-.538,21.552,21.552,0,0,0-4.241-.114c-.548-.166-1.169-.383-1.779-.631a14.772,14.772,0,0,0,11.007-13.706c0-.207,0-.424,0-.631a14.741,14.741,0,0,0-14.679-14.8,14.482,14.482,0,0,0-7.706,2.2,13.83,13.83,0,0,0-15.517,7.479,17.1,17.1,0,0,0-5.276,12.724c0,.217,0,.445,0,.652.269,8.038,5.462,14.482,12.02,15.134a6.891,6.891,0,0,0-1.9,1.272c-2.007,1.934-2.338,5.007-2.555,7.8l-.155,2.069-3.476,1.241a.641.641,0,0,0-.155,1.128l3.32,2.369v.59a2.582,2.582,0,0,0,.062.672,4.747,4.747,0,0,0-1.283,1.831,8.46,8.46,0,0,0-.3,3.351l.124,2.886a22.66,22.66,0,0,0,.879,6.424c.435,1.283,2.317,4.376,3.672,4.4-1.252,5.689-1.583,17.689-1.583,17.689-.155.155.279.3,1.034.424.745,5.71,3.176,21.723,7.489,28.768a60.669,60.669,0,0,1,1.624,6.993s1.231,15.217,2.855,19.737c1.386,3.848,2.483,13.344,2.783,16.1a1.583,1.583,0,0,0-1.148,1.179c-.817,2.462-6.114,6.207-6.114,6.207a25.61,25.61,0,0,0-4.572,2.927c-1.665,1.5-1.6,2.855,5.793,2.007,14.275-1.645,16.717-6.207,16.717-6.207s-.228-.766-.569-1.759a19.1,19.1,0,0,0-1.872-4.417c-.207-.2-.414.135-.662.652A88.574,88.574,0,0,1,824.254,705s.4-6.993-1.634-11.927a22.584,22.584,0,0,1,0-7.81c.817-3.289-3.259-19.334-3.259-19.334l-2.338-11.813a3.393,3.393,0,0,1,.652,1.376l.062.238.062.341a.642.642,0,0,0,.166.321c1.593,6.62,5.958,24.961,5.958,27.651,0,3.29,4.076,11.513,4.076,11.513s1.624,13.572,4.479,18.91c2.172,4.065,2.224,10.024,2.121,12.651h0s-.486,3.383-1.3,4.2A9.993,9.993,0,0,0,831.754,734l-.093.2s-1.221,2.472-.4,2.886a20.037,20.037,0,0,0,9.786,1.231s1.634-2.069,1.634-2.876a12.951,12.951,0,0,0-.186-1.469c-.3-1.945-.859-5.007-.869-5.038.341-1.324-1.034-5.007-1.034-5.007l-.414-11.513a53.15,53.15,0,0,0-2.855-23.037s-2.069-7.4-1.624-9.455-.817-23.854-.817-23.854l-.124-.31a23.565,23.565,0,0,1,.124-4.624c.4-4.934-1.221-15.217-1.634-15.62a13.555,13.555,0,0,1-.579-3.4c.093-.859.372-3.372.755-6.5a116.772,116.772,0,0,0,12.02-1.034,1.5,1.5,0,0,0,1.034-.414,1.448,1.448,0,0,0,.238-.838C847.188,617.127,844.922,611.106,842.574,605.375Zm-8.2,13.044c.424-2.948.879-5.8,1.334-7.924l.062.186a57.557,57.557,0,0,1,1.965,6.517A22.165,22.165,0,0,1,834.371,618.42Z" transform="translate(-26.472 -148.916)" fill="url(#linear-gradient)"/>
          <path id="Path_3147" data-name="Path 3147" d="M802.37,648.707s2.441,21.961,7.727,30.5a59.2,59.2,0,0,1,1.624,6.91s1.221,15.041,2.845,19.509,2.845,16.675,2.845,16.675,5.689,6.5,7.727,1.221a85.673,85.673,0,0,1-1.221-21.144s.4-6.91-1.624-11.793a22.055,22.055,0,0,1,0-7.717c.807-3.259-3.259-19.106-3.259-19.106L815.787,647.9Z" transform="translate(-26.156 -145.904)" fill="#be6f72"/>
          <path id="Path_3148" data-name="Path 3148" d="M827.907,725.135s-2.441,4.469-16.665,6.093c-7.386.838-7.438-.5-5.772-1.986a25.748,25.748,0,0,1,4.552-2.9s5.286-3.652,6.093-6.093,3.662-.4,3.662-.4c4.065,6.093,4.883-1.634,5.689-.817a18.349,18.349,0,0,1,1.872,4.355C827.679,724.37,827.907,725.135,827.907,725.135Z" transform="translate(-26.08 -143.456)" fill="#ff6f61"/>
          <path id="Path_3149" data-name="Path 3149" d="M827.907,724.988s-2.441,4.469-16.665,6.093c-7.386.838-7.438-.5-5.772-1.986,1.159.734,3.5,1.034,8.2-.859,6.776-2.772,11.689-4.376,13.665-5C827.679,724.223,827.907,724.988,827.907,724.988Z" transform="translate(-26.08 -143.309)" opacity="0.1"/>
          <path id="Path_3150" data-name="Path 3150" d="M823.564,702.374s.4-6.91-1.624-11.793a22.054,22.054,0,0,1,0-7.717c.807-3.258-3.258-19.106-3.258-19.106L815.434,647.9l-2.814.165,3.217,15.693s4.065,15.848,3.258,19.106a22.053,22.053,0,0,0,0,7.717c2.069,4.883,1.624,11.793,1.624,11.793a85.671,85.671,0,0,0,1.221,21.144,3.559,3.559,0,0,1-1.179,1.676c1.51.683,3.1.652,4.024-1.676A85.677,85.677,0,0,1,823.564,702.374Z" transform="translate(-25.803 -145.904)" opacity="0.1"/>
          <path id="Path_3151" data-name="Path 3151" d="M821.588,562.42a14.483,14.483,0,0,0-7.676,2.183A13.81,13.81,0,0,0,798.4,572a16.84,16.84,0,0,0-5.265,12.579c0,8.648,5.824,15.651,13,15.651,5.172,0,9.7-3.683,11.782-9.01a14.272,14.272,0,0,0,3.662.476,14.637,14.637,0,1,0,0-29.275Z" transform="translate(-26.474 -148.848)" fill="#3f3d56"/>
          <path id="Path_3152" data-name="Path 3152" d="M832.784,650.65,834,653.9s1.221,21.547.807,23.585,1.634,9.31,1.634,9.31a52.042,52.042,0,0,1,2.845,22.758l.4,11.379s1.624,4.469.817,5.286-6.941-.724-6.941-.724.817-8.534-2.069-13.82-4.469-18.7-4.469-18.7-4.065-8.131-4.065-11.379-6.507-29.678-6.507-29.678Z" transform="translate(-25.671 -145.809)" fill="#be6f72"/>
          <path id="Path_3153" data-name="Path 3153" d="M801.581,651.112s.414-14.637,2.069-19.106a30.344,30.344,0,0,0,1.81-6.486s24.609,4.448,26.647,2.824c0,0,.4,5.689.817,6.093s2.069,10.572,1.624,15.455,0,4.872,0,4.872-16.675,2.441-17.079,0-1.624-2.431-1.624-2.431S800.774,651.878,801.581,651.112Z" transform="translate(-26.184 -146.675)" fill="#3f3d56"/>
          <g id="Group_633" data-name="Group 633" transform="translate(775.396 481.669)" opacity="0.1">
            <path id="Path_3154" data-name="Path 3154" d="M815,650.288s-10.282-.279-13.386-.838v.838c-.807.807,14.234,1.221,14.234,1.221a1.035,1.035,0,0,1,.559.228C815.855,650.288,815,650.288,815,650.288Z" transform="translate(-801.58 -627.52)"/>
            <path id="Path_3155" data-name="Path 3155" d="M832.369,634.343c-.414-.4-.817-6.093-.817-6.093a1.749,1.749,0,0,1-.693.248c.145,1.717.424,4.355.693,4.624s2.069,10.572,1.624,15.455,0,4.872,0,4.872-13.189,1.934-16.386.641a4.893,4.893,0,0,0,.124.579c.4,2.441,17.079,0,17.079,0s-.414,0,0-4.872S832.772,634.757,832.369,634.343Z" transform="translate(-801.056 -628.25)"/>
            <path id="Path_3156" data-name="Path 3156" d="M815,650.288s-10.282-.279-13.386-.838v.838c-.807.807,14.234,1.221,14.234,1.221a1.035,1.035,0,0,1,.559.228C815.855,650.288,815,650.288,815,650.288Z" transform="translate(-801.58 -627.52)"/>
            <path id="Path_3157" data-name="Path 3157" d="M832.369,634.343c-.414-.4-.817-6.093-.817-6.093a1.749,1.749,0,0,1-.693.248c.145,1.717.424,4.355.693,4.624s2.069,10.572,1.624,15.455,0,4.872,0,4.872-13.189,1.934-16.386.641a4.893,4.893,0,0,0,.124.579c.4,2.441,17.079,0,17.079,0s-.414,0,0-4.872S832.772,634.757,832.369,634.343Z" transform="translate(-801.056 -628.25)"/>
          </g>
          <path id="Path_3158" data-name="Path 3158" d="M819.191,587.319a5.388,5.388,0,0,0,1.552,2.007,3.476,3.476,0,0,0,1.458.631c-.91.528-1.9.921-2.814,1.448a50.032,50.032,0,0,0-4.138,3.1,8.419,8.419,0,0,1-4.748,1.841,5.814,5.814,0,0,0,.662-5.783,5.4,5.4,0,0,1-.724-2.007c0-1.169,1.034-2.069,2-2.69.776-.528,1.572-1.034,2.379-1.541.631-.393,1.583-1.221,2.379-1.19s.89.734,1.034,1.458A11.466,11.466,0,0,0,819.191,587.319Z" transform="translate(-25.878 -148.135)" fill="#be6f72"/>
          <path id="Path_3159" data-name="Path 3159" d="M819.191,587.319a5.388,5.388,0,0,0,1.552,2.007,3.476,3.476,0,0,0,1.458.631c-.91.528-1.9.921-2.814,1.448a50.032,50.032,0,0,0-4.138,3.1,8.419,8.419,0,0,1-4.748,1.841,5.814,5.814,0,0,0,.662-5.783,5.4,5.4,0,0,1-.724-2.007c0-1.169,1.034-2.069,2-2.69.776-.528,1.572-1.034,2.379-1.541.631-.393,1.583-1.221,2.379-1.19s.89.734,1.034,1.458A11.466,11.466,0,0,0,819.191,587.319Z" transform="translate(-25.878 -148.135)" opacity="0.1"/>
          <circle id="Ellipse_183" data-name="Ellipse 183" cx="9.351" cy="9.351" r="9.351" transform="translate(793.489 444.471)" fill="#be6f72"/>
          <path id="Path_3160" data-name="Path 3160" d="M841.268,729.962c0,.817-1.624,2.845-1.624,2.845a20.131,20.131,0,0,1-9.755-1.221c-.817-.4.4-2.845.4-2.845l.093-.2a9.868,9.868,0,0,1,1.541-2.648c.807-.807,1.293-4.138,1.293-4.138,2.524-4.138,7,1.79,7,1.79s.569,3.1.869,4.986A14.181,14.181,0,0,1,841.268,729.962Z" transform="translate(-25.218 -143.411)" fill="#ff6f61"/>
          <path id="Path_3161" data-name="Path 3161" d="M841.268,729.688c0,.817-1.624,2.845-1.624,2.845a20.131,20.131,0,0,1-9.755-1.221c-.817-.4.4-2.845.4-2.845l.093-.2a19.654,19.654,0,0,0,8.855,1.821l1.852-1.852C841.2,728.933,841.268,729.481,841.268,729.688Z" transform="translate(-25.218 -143.137)" opacity="0.1"/>
          <circle id="Ellipse_184" data-name="Ellipse 184" cx="9.144" cy="9.144" r="9.144" transform="translate(774.993 425.158)" fill="#be6f72"/>
          <path id="Path_3162" data-name="Path 3162" d="M803,600.221c-2.007,1.914-2.338,4.945-2.545,7.707l-.31,4.045a20.428,20.428,0,0,0-.072,3.279c0,.672.165,1.355.228,2.069s.083,1.614.093,2.431v5.979a7.054,7.054,0,0,0,.662,3.589,2.441,2.441,0,0,0,3.1,1.117,3.538,3.538,0,0,0,1.283-1.986,30.878,30.878,0,0,0,2.069-7.572c.083-.9.093-1.8.176-2.7s.238-1.841.372-2.752c.579-3.807.838-7.655,1.1-11.493.072-1.138,1.1-5.617-.393-6.113-.724-.238-2.224.507-2.917.755A8.214,8.214,0,0,0,803,600.221Z" transform="translate(-26.236 -147.63)" fill="#be6f72"/>
          <path id="Path_3163" data-name="Path 3163" d="M803,600.221c-2.007,1.914-2.338,4.945-2.545,7.707l-.31,4.045a20.428,20.428,0,0,0-.072,3.279c0,.672.165,1.355.228,2.069s.083,1.614.093,2.431v5.979a7.054,7.054,0,0,0,.662,3.589,2.441,2.441,0,0,0,3.1,1.117,3.538,3.538,0,0,0,1.283-1.986,30.878,30.878,0,0,0,2.069-7.572c.083-.9.093-1.8.176-2.7s.238-1.841.372-2.752c.579-3.807.838-7.655,1.1-11.493.072-1.138,1.1-5.617-.393-6.113-.724-.238-2.224.507-2.917.755A8.214,8.214,0,0,0,803,600.221Z" transform="translate(-26.236 -147.63)" opacity="0.1"/>
          <path id="Path_3164" data-name="Path 3164" d="M821.807,588.16s-6.91,5.286-10.975,6.507c0,0-2.41,2.752-2.824,3.414s-1.241,7.965-2.069,9.6-2.845,5.286,0,8.938c0,0,.807,3.662.4,4.883s-1.883,5.689-.538,5.9,5.42,3.041,9.072,2.234,17.286,3.1,17.286,3.1,2.255-20.947,3.889-24.651l-3.662-1.221s-10.158-6.093-4.065-15.444C828.314,591.418,822.6,590.2,821.807,588.16Z" transform="translate(-26.084 -147.962)" fill="#ff6f61"/>
          <path id="Path_3165" data-name="Path 3165" d="M796.849,611.918l8.4,5.948a.62.62,0,0,0,.734,0l2.276-1.707a.641.641,0,0,0,0-.972l-6.465-5.741a.621.621,0,0,0-.631-.124l-4.148,1.49a.631.631,0,0,0-.165,1.107Z" transform="translate(-26.355 -147.234)" fill="#3f3d56"/>
          <path id="Path_3166" data-name="Path 3166" d="M799.605,629.683a22.513,22.513,0,0,1-.879-6.341l-.124-2.865a8.274,8.274,0,0,1,.3-3.31,5.41,5.41,0,0,1,3.486-3.052,12.041,12.041,0,0,1,4.748-.341,1.219,1.219,0,0,1,.61.166,1.137,1.137,0,0,1,.331.559,3.745,3.745,0,0,1,.186,2.989,3.1,3.1,0,0,1-.952.983c-1.128.807-2.441,1.345-3.507,2.224a1.272,1.272,0,0,0-.476.6,1.4,1.4,0,0,0,0,.652,10.423,10.423,0,0,0,.538,1.665,1.645,1.645,0,0,0,.466.7c.2.166.455.228.662.383.445.362,1.376.838,1.324,1.407-.155,2.069-1.4,4.386-1.883,6.434C803.505,636.541,800.205,631.431,799.605,629.683Z" transform="translate(-26.288 -147.083)" fill="#be6f72"/>
          <g id="Group_634" data-name="Group 634" transform="translate(786.155 459.511)" opacity="0.1">
            <path id="Path_3167" data-name="Path 3167" d="M812.208,628.253h-.228a6.964,6.964,0,0,0,2.659,0h.259a9.312,9.312,0,0,0-2.69,0Z" transform="translate(-811.98 -606.096)"/>
            <path id="Path_3168" data-name="Path 3168" d="M832.963,606.83c-1.459,3.279-3.61,21.041-3.993,24.568,1.428.372,2.369.641,2.369.641s2.234-20.9,3.869-24.6Z" transform="translate(-811.395 -606.83)"/>
          </g>
          <path id="Path_3169" data-name="Path 3169" d="M828.989,601.981A3.1,3.1,0,0,0,830.323,604a17.907,17.907,0,0,1,2.369,2.4,17,17,0,0,1,2.348,4.707A57.676,57.676,0,0,1,837,617.539c-5.172,2.4-11.048,2.286-16.551,3.869a13.209,13.209,0,0,0-6.207,3.672,8.554,8.554,0,0,0-2.286,6.734.879.879,0,0,0,.124.4.869.869,0,0,0,.724.29,6.206,6.206,0,0,0,3.8-1.3,18.067,18.067,0,0,0,2.907-2.855,4.677,4.677,0,0,1,2.069-1.531c2.989-.91,6.207-.859,9.31-.91a117.312,117.312,0,0,0,13.872-1.1,1.117,1.117,0,0,0,1.241-1.241c.455-6.1-1.81-12.062-4.138-17.72q-1.4-3.4-2.876-6.776a20.07,20.07,0,0,0-3.517-6.021,6.205,6.205,0,0,0-2.069-1.531,8.748,8.748,0,0,0-2.772-.517,19.66,19.66,0,0,0-4.541-.083,9.673,9.673,0,0,0-.435,2.348c.083,2.793,1.3,5.41,2.5,7.934C828.306,601.588,828.751,601.609,828.989,601.981Z" transform="translate(-25.827 -147.87)" fill="#be6f72"/>
          <path id="Path_3170" data-name="Path 3170" d="M812.444,606.67a7.582,7.582,0,0,0-1.034,3.952,5.323,5.323,0,0,0,.259,1.614,5.234,5.234,0,0,0,3.3,3.1" transform="translate(-25.845 -147.324)" fill="none" stroke="#000" stroke-miterlimit="10" stroke-width="1" opacity="0.1"/>
          <path id="Path_3171" data-name="Path 3171" d="M818.123,573.928a4.747,4.747,0,0,0-1.5.238c-1.355-2.069-4.541-3.5-8.275-3.5-4.945,0-8.948,2.555-8.948,5.7s4,5.689,8.948,5.689a12.589,12.589,0,0,0,5.369-1.138,4.872,4.872,0,1,0,4.386-6.993Z" transform="translate(-26.258 -148.564)" fill="#3f3d56"/>
          <path id="Path_3172" data-name="Path 3172" d="M818.528,582.332a4.862,4.862,0,0,1-4.387-2.763,12.589,12.589,0,0,1-5.368,1.139c-4.934,0-8.938-2.545-8.938-5.689a3.425,3.425,0,0,1,0-.569,3.859,3.859,0,0,0-.455,1.79c0,3.1,4,5.689,8.948,5.689a12.589,12.589,0,0,0,5.369-1.138,4.872,4.872,0,0,0,9.175-1.21,4.851,4.851,0,0,1-4.345,2.752Z" transform="translate(-26.259 -148.434)" opacity="0.1"/>
          <path id="Path_3173" data-name="Path 3173" d="M798.407,574.4a13.81,13.81,0,0,1,15.517-7.4,14.627,14.627,0,0,1,22.261,11.234v-1.221A14.627,14.627,0,0,0,813.872,564.6a13.81,13.81,0,0,0-15.517,7.4,16.841,16.841,0,0,0-5.265,12.579V585.8A16.551,16.551,0,0,1,798.407,574.4Z" transform="translate(-26.476 -148.848)" opacity="0.1"/>
          <path id="Path_3174" data-name="Path 3174" d="M888.776,580.667c2.7-5-.362-11.131-3.889-15.589s-7.81-9.093-7.717-14.782c.124-8.162,8.793-12.982,15.724-17.317A76.449,76.449,0,0,0,907,521.6a20.616,20.616,0,0,0,4.345-5.8c1.427-3.2,1.386-6.827,1.3-10.344q-.455-17.482-1.728-34.923" transform="translate(-23.58 -152.013)" fill="none" stroke="#3f3d56" stroke-miterlimit="10" stroke-width="4"/>
          <path id="Path_3175" data-name="Path 3175" d="M923.368,470.334a12.714,12.714,0,0,0-6.352-10.427l-2.855,5.638.083-6.827a12.5,12.5,0,0,0-4.189-.507,12.734,12.734,0,1,0,13.313,12.124Z" transform="translate(-22.865 -152.438)" fill="#4bad65"/>
          <path id="Path_3176" data-name="Path 3176" d="M901.371,553.878a12.734,12.734,0,1,1,.61-10.262l-7.955,6.476,8.751-2.069a12.661,12.661,0,0,1-1.407,5.855Z" transform="translate(-23.575 -149.782)" fill="#4bad65"/>
          <path id="Path_3177" data-name="Path 3177" d="M894.934,530.2a12.734,12.734,0,0,1-4.045-24.982l-.062,5.245,2.886-5.7h0a12.738,12.738,0,1,1,1.19,25.447Z" transform="translate(-23.428 -150.835)" fill="#4bad65"/>
          <path id="Path_3178" data-name="Path 3178" d="M924.816,510.317a12.734,12.734,0,1,1,5.638-23.792l-2.255,6.207,4.634-4.448a12.661,12.661,0,0,1,4.138,8.793,12.292,12.292,0,0,1-.321,3.507A12.734,12.734,0,0,1,924.816,510.317Z" transform="translate(-22.4 -151.519)" fill="#4bad65"/>
          <path id="Path_3179" data-name="Path 3179" d="M921.661,473.495c-2.938.331-5.8,1.241-8.751,1.428s-6.207-.528-8.058-2.824a39.514,39.514,0,0,1-2.348-4.138,9.155,9.155,0,0,0-3.207-3.021,12.734,12.734,0,1,0,23.792,8.451C922.613,473.412,922.137,473.443,921.661,473.495Z" transform="translate(-22.866 -152.206)" opacity="0.1"/>
          <path id="Path_3180" data-name="Path 3180" d="M924.814,510.075A12.744,12.744,0,0,1,912.7,491.91a9.423,9.423,0,0,1,2.565,2.555,40.808,40.808,0,0,0,2.524,4.21c1.976,2.338,5.369,3.1,8.441,2.958s6.041-1.034,9.1-1.293c.424,0,.859-.072,1.283-.083A12.734,12.734,0,0,1,924.814,510.075Z" transform="translate(-22.398 -151.277)" opacity="0.1"/>
          <path id="Path_3181" data-name="Path 3181" d="M894.934,529.948A12.724,12.724,0,0,1,882.717,512a10.5,10.5,0,0,1,2.69,2.586c1.034,1.4,1.6,3.01,2.762,4.293,2.152,2.4,5.762,3.238,9.02,3.165s6.207-.848,9.31-1.086a12.734,12.734,0,0,1-11.565,8.989Z" transform="translate(-23.428 -150.585)" opacity="0.1"/>
          <path id="Path_3182" data-name="Path 3182" d="M901.369,553.6a12.744,12.744,0,0,1-23.223-10.344,12.477,12.477,0,0,1,2.793,2.493c1.221,1.479,2.017,3.1,3.414,4.531,2.607,2.555,6.807,3.6,10.551,3.7a55.81,55.81,0,0,0,6.465-.383Z" transform="translate(-23.572 -149.508)" opacity="0.1"/>
          <path id="Path_3183" data-name="Path 3183" d="M1047.776,732.667c2.7-5-.362-11.131-3.89-15.589s-7.81-9.093-7.717-14.782c.124-8.162,8.793-12.982,15.723-17.317A76.449,76.449,0,0,0,1066,673.6a20.619,20.619,0,0,0,4.344-5.8c1.427-3.2,1.386-6.827,1.3-10.344q-.445-17.482-1.728-34.923" transform="translate(-18.104 -146.778)" fill="none" stroke="#3f3d56" stroke-miterlimit="10" stroke-width="4"/>
          <path id="Path_3184" data-name="Path 3184" d="M1082.366,622.334a12.714,12.714,0,0,0-6.352-10.427l-2.855,5.638.083-6.827a12.5,12.5,0,0,0-4.138-.507,12.734,12.734,0,1,0,13.313,12.124Z" transform="translate(-17.387 -147.203)" fill="#4bad65"/>
          <path id="Path_3185" data-name="Path 3185" d="M1060.371,705.878a12.734,12.734,0,1,1,.61-10.262l-7.955,6.476,8.751-2.069a12.66,12.66,0,0,1-1.407,5.855Z" transform="translate(-18.099 -144.546)" fill="#4bad65"/>
          <path id="Path_3186" data-name="Path 3186" d="M1053.934,682.2a12.734,12.734,0,0,1-4.045-24.982l-.062,5.245,2.886-5.7h0a12.738,12.738,0,1,1,1.19,25.447Z" transform="translate(-17.951 -145.599)" fill="#4bad65"/>
          <path id="Path_3187" data-name="Path 3187" d="M1083.815,662.317a12.734,12.734,0,1,1,5.638-23.792l-2.255,6.207,4.634-4.448a12.662,12.662,0,0,1,4.138,8.793,12.3,12.3,0,0,1-.321,3.507A12.734,12.734,0,0,1,1083.815,662.317Z" transform="translate(-16.923 -146.284)" fill="#4bad65"/>
          <path id="Path_3188" data-name="Path 3188" d="M1080.661,625.495c-2.938.331-5.8,1.241-8.751,1.428s-6.207-.528-8.058-2.824a39.46,39.46,0,0,1-2.348-4.138,9.157,9.157,0,0,0-3.207-3.021,12.734,12.734,0,1,0,23.792,8.451C1081.613,625.412,1081.137,625.443,1080.661,625.495Z" transform="translate(-17.389 -146.97)" opacity="0.1"/>
          <path id="Path_3189" data-name="Path 3189" d="M1083.814,662.075A12.744,12.744,0,0,1,1071.7,643.91a9.423,9.423,0,0,1,2.565,2.555,40.845,40.845,0,0,0,2.524,4.21c1.976,2.338,5.369,3.1,8.441,2.958s6.041-1.034,9.1-1.293c.424,0,.859-.072,1.283-.083A12.733,12.733,0,0,1,1083.814,662.075Z" transform="translate(-16.922 -146.042)" opacity="0.1"/>
          <path id="Path_3190" data-name="Path 3190" d="M1053.934,681.948A12.724,12.724,0,0,1,1041.718,664a10.5,10.5,0,0,1,2.689,2.586c1.035,1.4,1.6,3.01,2.762,4.293,2.152,2.4,5.762,3.238,9.02,3.165s6.207-.848,9.31-1.086A12.734,12.734,0,0,1,1053.934,681.948Z" transform="translate(-17.951 -145.35)" opacity="0.1"/>
          <path id="Path_3191" data-name="Path 3191" d="M1060.369,705.6a12.744,12.744,0,0,1-23.223-10.344,12.477,12.477,0,0,1,2.793,2.493c1.221,1.479,2.069,3.1,3.414,4.531,2.607,2.555,6.807,3.6,10.551,3.7a55.8,55.8,0,0,0,6.465-.383Z" transform="translate(-18.096 -144.273)" opacity="0.1"/>
          <path id="Path_3192" data-name="Path 3192" d="M534.618,588.877a10.148,10.148,0,0,0-4.045-8.193,11.9,11.9,0,0,0-9.941-11.668,11.875,11.875,0,0,0-7.913-8.845h0a10.088,10.088,0,0,0-1.469-.341H509.5a11.648,11.648,0,0,0-11.255,9.951c-3.631-.838-6.951.248-7.562,2.545a3.1,3.1,0,0,0,.1,1.841c.621,1.779,2.638,3.486,5.338,4.324l.352.1.528.134h.114a9.146,9.146,0,0,0-.869,3.921,9.041,9.041,0,0,0,4.872,8.068l-.238.145a3.226,3.226,0,0,0-.786,1.1,16.4,16.4,0,0,0-1.521,3.662c-.259,1.1-.3,2.234-.621,3.321-.6,2-2.131,3.683-2.307,5.762-.083.931.072,2.069-.59,2.669a3.216,3.216,0,0,1-.528.372,4.272,4.272,0,0,0-1.148,1.21,4.014,4.014,0,0,1-.807,1.159c-.6.445-1.583.4-1.872,1.1s.466,1.51.29,2.265-.817.9-1.283,1.324a4.6,4.6,0,0,0-1.107,2.069,6.786,6.786,0,0,1-5.586-1.427,10.437,10.437,0,0,1,.579,2.069,9.062,9.062,0,0,0-3.01-1.51,9.5,9.5,0,0,1-3.207-2.379l1.717-.238-7.582-11.575-2.245-.466,2.007,3.858a1.23,1.23,0,0,0-.683.817,3.507,3.507,0,0,0-.072,1.314,23.516,23.516,0,0,0,.517,3.1l.579,2.71c.052.248.114.507.186.755a7.126,7.126,0,0,0-2.245.248,19.534,19.534,0,0,0-4.665-1.107,2.586,2.586,0,0,0-1.034,0,2.679,2.679,0,0,0-.983.8,31.817,31.817,0,0,0-3.465,4.883c-4.138,7.1-9.527,13.293-14.627,19.706-3.517,1.427-7.065,2.783-10.613,4.138l-7.634,2.917a11.576,11.576,0,0,1-4.738,1.034c-.724,0-1.624-.155-2.069.465a4.357,4.357,0,0,0-.465,1.034l-.786.083h0a9.041,9.041,0,0,0-1.831-3.372,1.158,1.158,0,0,0-.859.662c-.186.341-.3.714-.517,1.034-.4.6-1.117.89-1.624,1.4s-.828,1.293-1.386,1.81a5.483,5.483,0,0,1-2.6,1.034,16.386,16.386,0,0,0-4.065,1.541,6.547,6.547,0,0,1-1.5.693,5.635,5.635,0,0,1-1.769.062l-4.034-.3a3.185,3.185,0,0,0-1.086.052,2.069,2.069,0,0,0-1.283,2.069,3.258,3.258,0,0,0,1.283,2.224,8.211,8.211,0,0,0,2.3,1.19,67.386,67.386,0,0,0,10.758,3.186v.817a18.361,18.361,0,0,0,8.276,1.965,1.283,1.283,0,0,0,.621-.114,1.365,1.365,0,0,0,.517-.807,33.277,33.277,0,0,0,1.614-7.924h0a4.138,4.138,0,0,0,1.459-.372c1.386-.383,2.772.569,4.21.724,1.769.2,3.4-.838,5.079-1.469l.724-.238a7.944,7.944,0,0,1-1.676,1.6c-.693.5-1.469.869-2.141,1.386a14.756,14.756,0,0,1-1.821,1.407,11.425,11.425,0,0,1-1.4.538,9.215,9.215,0,0,0-2,1.034,4.044,4.044,0,0,0-1.355,1.324,1.986,1.986,0,0,0-.114,1.862,1.965,1.965,0,0,0,1.334.931,5.475,5.475,0,0,0,1.645,0c2.193-.165,4.376-.362,6.558-.559a17.478,17.478,0,0,0,2.741-.393c.476-.114.952-.269,1.427-.4a12.742,12.742,0,0,1,2.493-.372,2.069,2.069,0,0,1,.724.072c.507.165.869.683,1.386.786a2.068,2.068,0,0,0,1.034-.134,23.076,23.076,0,0,1,4.852-.517,2,2,0,0,0,1.883-.838c.331-.662-.269-1.727-.538-2.607a7.976,7.976,0,0,1-.228-1.717,10.749,10.749,0,0,0-1.2-4.076,10.642,10.642,0,0,1-.9-1.862,47.038,47.038,0,0,0,8.927-4.531,15.963,15.963,0,0,1,5.09-2.452,13.841,13.841,0,0,1,6.393.745,145.464,145.464,0,0,1,14.658,5.11c2.286.941,4.562,1.934,6.92,2.648a10.79,10.79,0,0,0,2.462,2.39,11.38,11.38,0,0,0,5.327,1.459,69.832,69.832,0,0,0,7.5.279,12.651,12.651,0,0,0,5.586-1.034,5.74,5.74,0,0,0,1.169-.776,4.634,4.634,0,0,0,3.683-1.355,8.927,8.927,0,0,0,2.8-4.428c.61-2.359.145-5.172,1.593-7.055.383-.517.89-.931,1.272-1.448a4.075,4.075,0,0,0,.662-2.39.48.48,0,0,1,.062-.093,8.765,8.765,0,0,0,.621-2.379,13.606,13.606,0,0,1,.672-1.883,58.117,58.117,0,0,0,1.924-5.576,32.572,32.572,0,0,0,.89-3.828c.155-1.034.248-2.069.331-3.1a19.274,19.274,0,0,1,.941-4.789,38.979,38.979,0,0,0,2.172-11.462v-.228a7.686,7.686,0,0,0,6.807-7.82,8.16,8.16,0,0,0-.714-3.341,10.343,10.343,0,0,0,1.386-5.214Zm-37.012,44.967c.114.4.248.8.383,1.19-.61-.59-1.2-1.2-1.81-1.8.238.083.486.155.714.248a3.852,3.852,0,0,1,.683.362Zm-2.927-1.986c-3.579-3.1-7.717-5.514-11.379-8.524,2,.983,3.941,2.131,5.865,3.227q3.424,1.955,6.941,3.755a5.682,5.682,0,0,1-1.459,1.541Zm1.521-7.82.176-.176v1.231l-.962-.331a8.589,8.589,0,0,0,.755-.724Zm-31.478,8.379a29.614,29.614,0,0,0,3.807-5.431c1.417,2.472,3.724,4.262,5.679,6.341C471.051,632.924,467.886,632.582,464.721,632.417Z" transform="translate(-40.155 -148.937)" fill="url(#linear-gradient-2)"/>
          <path id="Path_3193" data-name="Path 3193" d="M415.35,438.25l2.255.455,7.686,11.368-3.383.455Z" transform="translate(14.305 15.106)" fill="#2f2e41"/>
          <path id="Path_3194" data-name="Path 3194" d="M414.49,645.464a44.258,44.258,0,0,0,2.255,5.865,55.859,55.859,0,0,0,7.5-2.141,23.639,23.639,0,0,0-1.562-2.069,7.715,7.715,0,0,0-2.121-1.624,5.834,5.834,0,0,0-2.576,0C416.828,645.464,415.659,645.484,414.49,645.464Z" transform="translate(-39.515 -145.992)" fill="#fbbebe"/>
          <path id="Path_3195" data-name="Path 3195" d="M421.216,648.6a4.676,4.676,0,0,1-2.565-2.917A9.393,9.393,0,0,0,416.7,642.2a1.117,1.117,0,0,0-.869.652c-.186.331-.3.7-.507,1.034-.414.59-1.138.879-1.655,1.376s-.828,1.272-1.386,1.779a5.5,5.5,0,0,1-2.617,1.034,16.968,16.968,0,0,0-4.138,1.521,7.142,7.142,0,0,1-1.521.683,6.019,6.019,0,0,1-1.779,0l-4.076-.29a3.184,3.184,0,0,0-1.034,0,1.976,1.976,0,0,0-1.293,2.069,3.1,3.1,0,0,0,1.293,2.193,8.589,8.589,0,0,0,2.317,1.179,68.171,68.171,0,0,0,10.924,3.1v.807a18.91,18.91,0,0,0,8.327,1.934,1.406,1.406,0,0,0,.621-.1,1.365,1.365,0,0,0,.517-.807,32.274,32.274,0,0,0,1.707-8.855,7.055,7.055,0,0,0-.176-2.286c-.228-.734.538-.424-.165-.714" transform="translate(-40.159 -146.1)" fill="#2f2e41"/>
          <path id="Path_3196" data-name="Path 3196" d="M498.6,633.647c-12.082.724-24.02-2.814-36.123-3.186a17.636,17.636,0,0,0-4.489.279,22.624,22.624,0,0,0-4.448,1.727c-6.486,3.021-13.2,5.524-19.9,8.017l-7.707,2.865a11.669,11.669,0,0,1-4.769,1.034c-.734,0-1.634-.155-2.069.455-1.252,1.862-.662,4.583.166,6.672.269.672.724,1.407,1.448,1.479a4.209,4.209,0,0,0,1.469-.372c1.4-.372,2.793.569,4.241.724,1.779.186,3.434-.828,5.121-1.448,2.793-1.034,5.834-1.034,8.772-1.49,4.914-.817,9.475-3.1,13.737-5.7a16.035,16.035,0,0,1,5.121-2.421,14.172,14.172,0,0,1,6.445.734,147.9,147.9,0,0,1,14.782,5.027,68.909,68.909,0,0,0,7.717,2.824,27.93,27.93,0,0,0,17.306-1.035c1.934-.765,4.034-2.069,4.138-4.2.072-1.19-.859-2.234-1.469-3.259-.393-.652-.8-1.3-1.221-1.934C504.8,637.444,502.273,633.43,498.6,633.647Z" transform="translate(-39.381 -146.506)" fill="#2f2e41"/>
          <path id="Path_3197" data-name="Path 3197" d="M498.6,633.647c-12.082.724-24.02-2.814-36.123-3.186a17.636,17.636,0,0,0-4.489.279,22.624,22.624,0,0,0-4.448,1.727c-6.486,3.021-13.2,5.524-19.9,8.017l-7.707,2.865a11.669,11.669,0,0,1-4.769,1.034c-.734,0-1.634-.155-2.069.455-1.252,1.862-.662,4.583.166,6.672.269.672.724,1.407,1.448,1.479a4.209,4.209,0,0,0,1.469-.372c1.4-.372,2.793.569,4.241.724,1.779.186,3.434-.828,5.121-1.448,2.793-1.034,5.834-1.034,8.772-1.49,4.914-.817,9.475-3.1,13.737-5.7a16.035,16.035,0,0,1,5.121-2.421,14.172,14.172,0,0,1,6.445.734,147.9,147.9,0,0,1,14.782,5.027,68.909,68.909,0,0,0,7.717,2.824,27.93,27.93,0,0,0,17.306-1.035c1.934-.765,4.034-2.069,4.138-4.2.072-1.19-.859-2.234-1.469-3.259-.393-.652-.8-1.3-1.221-1.934C504.8,637.444,502.273,633.43,498.6,633.647Z" transform="translate(-39.381 -146.506)" opacity="0.1"/>
          <path id="Path_3198" data-name="Path 3198" d="M436.92,646.167q2.834.962,5.72,1.779c1.034-1.769,3.1-3,3.548-5.027a.475.475,0,0,0,0-.269.5.5,0,0,0-.217-.2,10.84,10.84,0,0,0-4.49-1.314c-1.241-.072-1.81,1.221-2.369,2.131C438.9,643.675,437.427,646.364,436.92,646.167Z" transform="translate(-38.743 -146.137)" fill="#fbbebe"/>
          <path id="Path_3199" data-name="Path 3199" d="M440.1,644.876a4.137,4.137,0,0,1-2.783-1.831c-.259-.466-.548-1.1-1.086-1.034s-.714.621-.828,1.107a31.031,31.031,0,0,1-1.562,5.369,10.076,10.076,0,0,1-3.341,4.4c-.7.486-1.479.848-2.172,1.365a14.928,14.928,0,0,1-1.831,1.386,10.883,10.883,0,0,1-1.407.517,9.746,9.746,0,0,0-2.007,1.034,3.983,3.983,0,0,0-1.376,1.314,1.893,1.893,0,0,0-.1,1.831,1.955,1.955,0,0,0,1.334.91,5.629,5.629,0,0,0,1.665,0c2.2-.155,4.407-.352,6.61-.548a19.074,19.074,0,0,0,2.762-.383l1.438-.393a11.443,11.443,0,0,1,2.514-.372,1.957,1.957,0,0,1,.734.072c.507.166.869.672,1.4.776a2.337,2.337,0,0,0,1.034-.134,22.843,22.843,0,0,1,4.893-.507,2.065,2.065,0,0,0,1.9-.828c.414-.807-.269-1.707-.548-2.576a8.277,8.277,0,0,1-.228-1.686,10.281,10.281,0,0,0-1.21-4.014c-.559-1.034-1.324-2.172-.931-3.269a3.1,3.1,0,0,0,.372-1.128C445.191,644.472,441.116,645.1,440.1,644.876Z" transform="translate(-39.277 -146.107)" fill="#2f2e41"/>
          <path id="Path_3200" data-name="Path 3200" d="M478.759,615.154a9.435,9.435,0,0,1-4.821-4.779c-.2-.455-.362-.941-.559-1.4a10.614,10.614,0,0,0-2.876-4,1.417,1.417,0,0,0-1.034-.445,1.128,1.128,0,0,0-.776.838,3.2,3.2,0,0,0-.083,1.293,23.035,23.035,0,0,0,.517,3.021l.59,2.669a5.858,5.858,0,0,0,.362,1.19,4.138,4.138,0,0,0,.983,1.169c.538.5,1.086.972,1.634,1.448a5.612,5.612,0,0,0,1.034.714,6.007,6.007,0,0,0,1.831.538,15.58,15.58,0,0,1,6.869,2.648v-1.986a2.628,2.628,0,0,0-.517-1.438A9.175,9.175,0,0,0,478.759,615.154Z" transform="translate(-37.652 -147.398)" fill="#fbbebe"/>
          <path id="Path_3201" data-name="Path 3201" d="M478.759,615.154a9.435,9.435,0,0,1-4.821-4.779c-.2-.455-.362-.941-.559-1.4a10.614,10.614,0,0,0-2.876-4,1.417,1.417,0,0,0-1.034-.445,1.128,1.128,0,0,0-.776.838,3.2,3.2,0,0,0-.083,1.293,23.035,23.035,0,0,0,.517,3.021l.59,2.669a5.858,5.858,0,0,0,.362,1.19,4.138,4.138,0,0,0,.983,1.169c.538.5,1.086.972,1.634,1.448a5.612,5.612,0,0,0,1.034.714,6.007,6.007,0,0,0,1.831.538,15.58,15.58,0,0,1,6.869,2.648v-1.986a2.628,2.628,0,0,0-.517-1.438A9.175,9.175,0,0,0,478.759,615.154Z" transform="translate(-37.652 -147.398)" opacity="0.1"/>
          <ellipse id="Ellipse_185" data-name="Ellipse 185" cx="2.938" cy="2.959" rx="2.938" ry="2.959" transform="translate(462.768 441.419)" fill="#2f2e41"/>
          <path id="Path_3202" data-name="Path 3202" d="M501.117,590.483a3.175,3.175,0,0,0-2.317.331,3.217,3.217,0,0,0-.8,1.086,15.78,15.78,0,0,0-1.531,3.6c-.259,1.034-.3,2.2-.631,3.269-.6,1.965-2.141,3.631-2.317,5.679-.083.921.072,2-.6,2.617a3.812,3.812,0,0,1-.528.383,3.974,3.974,0,0,0-1.159,1.19,3.9,3.9,0,0,1-.817,1.128c-.6.445-1.593.4-1.883,1.034s.466,1.49.29,2.234-.828.89-1.293,1.3a4.519,4.519,0,0,0-1.117,2.069,6.9,6.9,0,0,1-5.627-1.4,17.916,17.916,0,0,1,.879,6.434,2.628,2.628,0,0,1-.517,1.986,35.826,35.826,0,0,1,6.9,1.2,4.759,4.759,0,0,0,3.01,0,5.03,5.03,0,0,0,1.386-1.1c1.241-1.262,2.545-2.638,2.845-4.386a25.773,25.773,0,0,0,.052-2.969,16.733,16.733,0,0,1,.755-3.61,42.96,42.96,0,0,0,1.314-7.427c.134-1.552,1.479-2.793,2.183-4.138,1.324-2.617,2.69-5.338,2.783-8.276C502.42,591.776,502.089,590.586,501.117,590.483Z" transform="translate(-37.232 -147.885)" fill="#2f2e41"/>
          <path id="Path_3203" data-name="Path 3203" d="M501.117,590.483a3.175,3.175,0,0,0-2.317.331,3.217,3.217,0,0,0-.8,1.086,15.78,15.78,0,0,0-1.531,3.6c-.259,1.034-.3,2.2-.631,3.269-.6,1.965-2.141,3.631-2.317,5.679-.083.921.072,2-.6,2.617a3.812,3.812,0,0,1-.528.383,3.974,3.974,0,0,0-1.159,1.19,3.9,3.9,0,0,1-.817,1.128c-.6.445-1.593.4-1.883,1.034s.466,1.49.29,2.234-.828.89-1.293,1.3a4.519,4.519,0,0,0-1.117,2.069,6.9,6.9,0,0,1-5.627-1.4,17.916,17.916,0,0,1,.879,6.434,2.628,2.628,0,0,1-.517,1.986,35.826,35.826,0,0,1,6.9,1.2,4.759,4.759,0,0,0,3.01,0,5.03,5.03,0,0,0,1.386-1.1c1.241-1.262,2.545-2.638,2.845-4.386a25.773,25.773,0,0,0,.052-2.969,16.733,16.733,0,0,1,.755-3.61,42.96,42.96,0,0,0,1.314-7.427c.134-1.552,1.479-2.793,2.183-4.138,1.324-2.617,2.69-5.338,2.783-8.276C502.42,591.776,502.089,590.586,501.117,590.483Z" transform="translate(-37.232 -147.885)" opacity="0.1"/>
          <path id="Path_3204" data-name="Path 3204" d="M499.789,636.829c-2.514-1.2-4.355-3.424-6.393-5.338-3.879-3.652-8.627-6.207-12.713-9.651-2.71-2.265-5.172-4.9-8.1-6.807A20.244,20.244,0,0,0,463.9,612a2.309,2.309,0,0,0-1.034,0,2.38,2.38,0,0,0-.983.776,31.261,31.261,0,0,0-3.507,4.81c-5.172,8.793-12.527,16.179-18.62,24.351a1.552,1.552,0,0,0-.3.579,1.438,1.438,0,0,0,.228.9l1.241,2.421c.693,1.365,1.81,2.948,3.3,2.679a3.611,3.611,0,0,0,1.727-1.107l5.565-5.327,5.834-5.576c3.414-3.258,6.889-6.6,9.124-10.779,1.738,3.021,4.831,5,6.941,7.758.807,1.034,1.469,2.2,2.193,3.321,1.148,1.779,2.462,3.455,3.765,5.172l6.693,8.534a12.8,12.8,0,0,0,3.1,3.1,11.844,11.844,0,0,0,5.369,1.438,70.923,70.923,0,0,0,7.562.269,13.035,13.035,0,0,0,5.638-1.035,5.11,5.11,0,0,0,3.052-4.541,6.662,6.662,0,0,0-.962-2.824C507.413,642.611,504.289,638.97,499.789,636.829Z" transform="translate(-38.655 -147.143)" fill="#2f2e41"/>
          <ellipse id="Ellipse_186" data-name="Ellipse 186" cx="2.265" cy="2.276" rx="2.265" ry="2.276" transform="translate(465.251 444.15)" fill="#e8e8f0"/>
          <path id="Path_3205" data-name="Path 3205" d="M503.573,592.767a4.355,4.355,0,0,1,.248,3.269,13.257,13.257,0,0,1-1.458,3.01,14.33,14.33,0,0,1-1.893,2.689c3.5.165,6.879-1.2,9.951-2.855,2.483-1.334,4.955-2.979,6.279-5.472a2.9,2.9,0,0,1-2.317-.434,8.274,8.274,0,0,1-1.769-1.645l-1.748-1.965a7.875,7.875,0,0,1-1.034-1.417,3.911,3.911,0,0,1-.466-2.286,13.306,13.306,0,0,1-2.317,1.924c-1.252.817-2.627,1.407-3.889,2.214-.435.29-1.428.745-1.169,1.324S503.222,592.146,503.573,592.767Z" transform="translate(-36.554 -148.048)" fill="#fbbebe"/>
          <path id="Path_3206" data-name="Path 3206" d="M503.573,592.767a4.355,4.355,0,0,1,.248,3.269,13.257,13.257,0,0,1-1.458,3.01,14.33,14.33,0,0,1-1.893,2.689c3.5.165,6.879-1.2,9.951-2.855,2.483-1.334,4.955-2.979,6.279-5.472a2.9,2.9,0,0,1-2.317-.434,8.274,8.274,0,0,1-1.769-1.645l-1.748-1.965a7.875,7.875,0,0,1-1.034-1.417,3.911,3.911,0,0,1-.466-2.286,13.306,13.306,0,0,1-2.317,1.924c-1.252.817-2.627,1.407-3.889,2.214-.435.29-1.428.745-1.169,1.324S503.222,592.146,503.573,592.767Z" transform="translate(-36.554 -148.048)" opacity="0.1"/>
          <path id="Path_3207" data-name="Path 3207" d="M503.968,592.872a2.948,2.948,0,0,0,0,3.414c.1.124.476.9.631.91a.569.569,0,0,0,.393-.207,25.955,25.955,0,0,0,2.214-2.638,4.924,4.924,0,0,1,2.814-1.841,6.083,6.083,0,0,1,3.879,1.21,3.681,3.681,0,0,1,1.334,1.034,3.609,3.609,0,0,1,.434,1.479,71.259,71.259,0,0,1,.393,9.4,37.049,37.049,0,0,1-.445,6.776c-.228,1.148-.559,2.276-.714,3.445a21.985,21.985,0,0,0-.145,3.1v4.324a11.379,11.379,0,0,0,.165,2.369c.207.941.652,1.821.952,2.741a17.931,17.931,0,0,1,.631,3.238l.59,4.469c.186,1.407.331,2.948-.528,4.138-.383.507-.89.921-1.283,1.427-1.458,1.9-1.034,4.624-1.6,6.951a8.669,8.669,0,0,1-2.834,4.345,4.686,4.686,0,0,1-3.734,1.334c-1.821-.341-2.907-2.234-3.4-4.024s-.672-3.734-1.748-5.245a13.912,13.912,0,0,0-3.455-2.886,5.969,5.969,0,0,1-2.7-3.507c-.114-.652,0-1.324-.114-1.986a4.686,4.686,0,0,0-2.886-3.8c-.931-.362-2.069-.5-2.607-1.345a6.279,6.279,0,0,0,2.721-3.652,18.755,18.755,0,0,0,.662-4.614l.31-5.172c.145-2.327.207-4.624,1.231-6.714.455-.931,1.034-1.81,1.5-2.731a29.644,29.644,0,0,0,1.6-4c.745-2.131,1.49-4.262,2.152-6.414a12.084,12.084,0,0,1,1.179-2.99C502.117,594.248,502.924,593.079,503.968,592.872Z" transform="translate(-36.908 -147.812)" fill="#e8e8f0"/>
          <path id="Path_3208" data-name="Path 3208" d="M492.365,626.668h1.376l.29-2.069a4.313,4.313,0,0,1,.29-1.21,7.244,7.244,0,0,1,.8-1.159c1.345-1.914,1.252-4.448,1.583-6.776a34.476,34.476,0,0,1,3.021-8.855l2.669-5.948a8.212,8.212,0,0,0,.579-1.521,9.119,9.119,0,0,0,.165-1.759c0-.921.29-4.272.321-5.172,0-.341-.755-.155-.91-.455-.331-.662-.786,1.128-1.417,1.521a3.476,3.476,0,0,0-1.231,1.8c-.579,1.49-.931,3.1-1.469,4.583a9.362,9.362,0,0,1-2.493,4.055c-.548.476-1.179.859-1.7,1.376-1.655,1.634-1.821,4.231-1.872,6.569C492.324,613.075,492.055,626.668,492.365,626.668Z" transform="translate(-36.838 -147.843)" fill="#2f2e41"/>
          <path id="Path_3209" data-name="Path 3209" d="M511.918,590.475a4.7,4.7,0,0,0-2.452,3.362,17,17,0,0,1-1.241,4.138c-1.676,2.917-5.948,3.765-7.138,6.92a12.726,12.726,0,0,0-.476,3.259c-.207,2.266-.952,4.448-1.179,6.7a29.862,29.862,0,0,0,.124,5.265l1.5,17.813a23.792,23.792,0,0,1-.445,7.841,7.552,7.552,0,0,0,4.49-.745c1.4-.641,2.679-1.521,4.034-2.266,2.317-1.283,4.883-2.183,6.92-3.89a4.232,4.232,0,0,0,.931-1.034,8.946,8.946,0,0,0,.621-2.338,12.616,12.616,0,0,1,.672-1.841,54.238,54.238,0,0,0,1.945-5.5,31.6,31.6,0,0,0,.89-3.765c.166-1.034.259-2.069.341-3.1a18.208,18.208,0,0,1,.952-4.707,37.913,37.913,0,0,0,2.183-11.3,5.905,5.905,0,0,0-.114-1.655,8.858,8.858,0,0,0-.91-1.893c-.621-1.169-1.034-2.452-1.572-3.641a17.906,17.906,0,0,0-6.114-6.424C514.68,590.857,513.273,589.988,511.918,590.475Z" transform="translate(-36.592 -147.887)" fill="#2f2e41"/>
          <path id="Path_3210" data-name="Path 3210" d="M481.829,618.77a10.791,10.791,0,0,1-2.845-2.162c-.372-.434-.683-.921-1.034-1.355a7.045,7.045,0,0,0-3.579-2.069,17.485,17.485,0,0,0-4.138-.4,7.509,7.509,0,0,0-2.762.331,2.814,2.814,0,0,0-1.831,1.966,3.259,3.259,0,0,0,1.4,2.9,6.58,6.58,0,0,0,2.783,1.345,22.266,22.266,0,0,0,2.514.3c4.945.517,9.362,3.207,13.7,5.658q5.71,3.248,11.648,6.041a24.21,24.21,0,0,0,.2-3.569c0-.89-.073-2.255-.91-2.783a18.27,18.27,0,0,0-3.7-1.107,58.286,58.286,0,0,1-7.458-3.021A37.123,37.123,0,0,1,481.829,618.77Z" transform="translate(-37.754 -147.114)" fill="#fbbebe"/>
          <ellipse id="Ellipse_187" data-name="Ellipse 187" cx="8.813" cy="8.865" rx="8.813" ry="8.865" transform="translate(456.892 425.975)" fill="#fbbebe"/>
          <path id="Path_3211" data-name="Path 3211" d="M514.654,600.217a14.132,14.132,0,0,0-1.707,3.2c-1.034,2.234-2.793,4.138-3.652,6.507s-.869,5.41-2.638,7.344a2.575,2.575,0,0,0-.776,1.117,5.337,5.337,0,0,1-.083.807c-.259.7-1.407.734-1.624,1.459-.062.207,0,.434-.1.641-.176.466-.8.538-1.2.817-.859.579-.683,1.924-1.293,2.762a2.327,2.327,0,0,1-2.2.776,7.759,7.759,0,0,1-2.286-.859,2.208,2.208,0,0,0-.828-.259,1.707,1.707,0,0,0-.952.331,5.865,5.865,0,0,0-2.379,5.017,16.387,16.387,0,0,0,1.365,5.617,2.255,2.255,0,0,0,.445.838,1.976,1.976,0,0,0,2.193.166,10.344,10.344,0,0,1,2.141-.962c1.365-.248,2.7.693,4.086.61a5.68,5.68,0,0,0,2.752-1.21,15.21,15.21,0,0,0,3.7-3.1c.6-.8,1.034-1.7,1.572-2.545a32.645,32.645,0,0,1,2.224-2.969l5.089-6.207a14.294,14.294,0,0,0,1.365-1.883,13.268,13.268,0,0,0,1.034-2.845,21.791,21.791,0,0,0,1.034-5.058,19.436,19.436,0,0,0-.372-4.241,14.986,14.986,0,0,0-1.034-4.045C519.422,599.7,516.733,597.8,514.654,600.217Z" transform="translate(-36.814 -147.585)" fill="#2f2e41"/>
          <path id="Path_3212" data-name="Path 3212" d="M532.527,589.958a9.931,9.931,0,0,0-4.076-8.069A11.8,11.8,0,0,0,518.428,570.4a11.451,11.451,0,0,0-22.561.61c-3.662-.828-7.013.248-7.624,2.5s1.976,5.172,5.834,6.207a10.871,10.871,0,0,0,3.745.372A11.462,11.462,0,0,0,505.7,585a11.762,11.762,0,0,0,8.607,8.876,9.878,9.878,0,0,0,2.658,3.672v.859a7.458,7.458,0,1,0,14.917,0,7.963,7.963,0,0,0-.714-3.3A9.97,9.97,0,0,0,532.527,589.958Z" transform="translate(-36.978 -148.89)" fill="#f86d70"/>
          <path id="Path_3213" data-name="Path 3213" d="M490.726,573.986c.61-2.255,3.962-3.331,7.624-2.5a11.648,11.648,0,0,1,11.379-9.807h.755a11.211,11.211,0,0,0-3.248-.486A11.648,11.648,0,0,0,495.857,571c-3.662-.828-7.014.248-7.624,2.5s1.976,5.172,5.834,6.207a11.369,11.369,0,0,0,2.214.383C492.588,578.982,490.116,576.293,490.726,573.986Z" transform="translate(-36.978 -148.89)" opacity="0.1"/>
          <path id="Path_3214" data-name="Path 3214" d="M519.081,598.2a7.742,7.742,0,0,1,0-.848,9.66,9.66,0,0,1-2.659-3.672,11.73,11.73,0,0,1-8.607-8.886,11.43,11.43,0,0,1-7.893-4.9,9.931,9.931,0,0,1-2.2-.062,11.493,11.493,0,0,0,7.6,4.52,11.762,11.762,0,0,0,8.607,8.876,9.881,9.881,0,0,0,2.659,3.672v.859a7.593,7.593,0,0,0,7.417,7.717A7.717,7.717,0,0,1,519.081,598.2Z" transform="translate(-36.649 -148.249)" opacity="0.1"/>
          <ellipse id="Ellipse_188" data-name="Ellipse 188" cx="1.355" cy="1.81" rx="1.355" ry="1.81" transform="translate(466.481 436.03) rotate(-37.22)" fill="#fbbebe"/>
        </g>
      </g>
    </g>
  </g>
</svg>
