<svg xmlns="http://www.w3.org/2000/svg" xmlns:xlink="http://www.w3.org/1999/xlink" width="616" height="473.264" viewBox="0 0 616 473.264">
  <defs>
    <linearGradient id="linear-gradient" x1="0.5" y1="1" x2="0.5" gradientUnits="objectBoundingBox">
      <stop offset="0" stop-color="gray" stop-opacity="0.251"/>
      <stop offset="0.54" stop-color="gray" stop-opacity="0.122"/>
      <stop offset="1" stop-color="gray" stop-opacity="0.102"/>
    </linearGradient>
    <linearGradient id="linear-gradient-2" x1="0.786" y1="0.736" x2="0.786" y2="-0.071" xlink:href="#linear-gradient"/>
    <linearGradient id="linear-gradient-3" x1="2.677" y1="-0.283" x2="2.677" y2="-1.243" xlink:href="#linear-gradient"/>
  </defs>
  <g id="undraw_gdpr_3xfb" transform="translate(-0.038 -0.008)">
    <path id="Path_3215" data-name="Path 3215" d="M96.789,257.869c1.6,17.97,11.785,34.236,18,51.349a121.721,121.721,0,0,1,2.369,75.583c-1.48,5.1-3.305,10.214-3.305,15.436,0,18,20.509,29.951,39.144,37.9a713.581,713.581,0,0,0,147.344,44.519c16.538,3.125,37.2,4.471,47.66-7.276,5.025-5.642,6.238-13.009,9.927-19.338,9.405-16.133,32.293-22.409,52.834-26,24.769-4.329,69.77-17.206,94.875-18.618,25.272-1.421,53.967-2.661,70.718-19.252,10.646-10.55,13.743-25.107,14.169-38.856,1.389-45.1,39.837-83.915,67.5-122.978,11.6-16.383,30.537-28.349,42.05-44.78,16.666-23.809,15.228-54.047,3.944-79.421S672.747,59.192,653.047,38.05c-6.547-6.994-27.5-14.265-37.292-17.507-10.182-3.375-27.727-1.826-38.644-.229-49.651,7.25-161.2,15.143-202.847,40.043-20.684,12.365-37.962,28.4-56.421,43.152C278,135.382,231.811,164.817,179.18,177.4,136.417,187.619,92.919,215.191,96.789,257.869Z" transform="translate(-96.51 -11.555)" fill="#4bad65" opacity="0.1"/>
    <path id="Path_3216" data-name="Path 3216" d="M433.529,376.594a8.208,8.208,0,0,1,.777-.351s-21.946-12.365-28.056-15.8a51.531,51.531,0,0,1-6.3-4.434c7.633-2.768,18.31-7.713,23.952-15.138,0,0-1.6-1.331-3.646-3.263l2.2-2.576s11.508-9.272,3.6-14.079c-6.43-3.907-10.486,6.467-11.779,10.5l-.452-.532s-12.381,18.912-29.078,9.506a22.889,22.889,0,0,1-2.576-4.7,21.253,21.253,0,0,0-5.855-8.208l-1.7-6.563-3.029-2.5a113.192,113.192,0,0,1,.532-11.71q.037-.362.08-.719a15.484,15.484,0,0,0,9.985-14.276,14.808,14.808,0,0,0-1.512-6.526c2.369-2.709,4.088-6.387,3.577-9.581-.4-2.475-2.512-4.088-5.046-5.227a41.023,41.023,0,0,0-7.649-2.566c-4.1-1.112-8.586-1.639-12.578-.2-6.6,2.379-10.677,5.121-15.809,9.746-4.056,3.657-8.516,10.023-13.307,12.775s-9.48,6.318-11.337,11.316c-2.619,7.069.969,14.664,2.587,22a42.273,42.273,0,0,1-2.033,24.714c-3.14,7.851-8.756,15.521-7.377,23.819,1.065,6.3,6.052,11.178,12.189,13.993a30.766,30.766,0,0,0,8.628,2.768,28.977,28.977,0,0,0,15.463-1.379,57.343,57.343,0,0,1-8.628,15.968c-3.54,4.5-3.194,6.951-.064,7.186q-.165.633-.309,1.347c-1.017,4.987-1.341,13.147.373,26.5,4.317,33.656-5.035,43.955-5.035,43.955s1,.351,2.81.873q-.112.3-.224.623c-1.98,5.621-3.854,15.521-.064,28.743,4.083,14.212,5.28,20.759,5.626,23.569v.165a6.018,6.018,0,0,0-3,3.077,8.74,8.74,0,0,0,1.309,9.581v13.041h1.8V551.041a31.046,31.046,0,0,1,4.029,6.126,13.9,13.9,0,0,0,10.72,7.59c4.631.628,9.741.857,11.87-.671,0,0,1.6-3.007-6.041-6.653l-.064-.1c-2.512-3.662-6.387-10.017-6.973-15a41.7,41.7,0,0,0-1.969-8.99h0a26.414,26.414,0,0,1-1.405-6.787c-.532-7.074-1.458-22.579-.085-26,.926-2.3,1.474-8.091,1.783-13.147,0-.229.027-.458.043-.681a100.534,100.534,0,0,0,24.075.176v3.353s-3.236,10.3,3.236,25.07c0,0,8.777,13.408,10.763,21.328q.085.341.154.665c-1.176.138-6.361,1.357-4.439,12.343l-.362,14.425h1.8l.362-12.705s1.8-3.093,7.915,3.433q1.389,1.485,2.512,2.752a22.318,22.318,0,0,0,17.469,7.367c3.928-.138,7.681-.532,9.15-1.533,0,0,3.6-2.747-5.4-4.12l-4.141-1.23h-.154l-.591-.66c-3.14-3.556-7.7-9.581-8.868-15.7a28.207,28.207,0,0,0-1.948-6.132l-3.364-7.569L394.742,487.5s.415-1.778.82-3.955c.043-.24.091-.49.133-.735l1.2-.463s7.2-5.152-3.6-36.4c0,0-4.194-17.405-6.318-31.271l5.238-1.006s-.809-12.242-2.422-20.759c1.065-3.992,1.65-7.452.985-9.144a15.931,15.931,0,0,1-.916-4.79,109.708,109.708,0,0,0-1.187-11.023l6.776,4.79,34.172,16.5a10.269,10.269,0,0,1-1.139-6.685c2.491,3.561,9.1,11.508,14.808,4.966C449.12,380.91,437.995,377.61,433.529,376.594Z" transform="translate(-197.043 -127.666)" fill="url(#linear-gradient)"/>
    <path id="Path_3217" data-name="Path 3217" d="M528.057,473.3s17.613,3.05,10.837,11.178-14.9-6.435-14.9-6.435Z" transform="translate(-296.435 -224.261)" fill="#f8bdc5"/>
    <path id="Path_3218" data-name="Path 3218" d="M421.54,374.67s8.8,4.067,11.854,12.53,16.937,21,22.691,24.389,26.417,15.58,26.417,15.58-8.8,3.385-4.4,12.87l-32.176-16.256-14.558-10.837Z" transform="translate(-248.517 -178.129)" fill="#575988"/>
    <path id="Path_3219" data-name="Path 3219" d="M421.54,374.67s8.8,4.067,11.854,12.53,16.937,21,22.691,24.389,26.417,15.58,26.417,15.58-8.8,3.385-4.4,12.87l-32.176-16.256-14.558-10.837Z" transform="translate(-248.517 -178.129)" opacity="0.1"/>
    <path id="Path_3220" data-name="Path 3220" d="M548.106,6.749S509.313-7.421,468.062,57.426c0,0-17.341,36.195-56.091,36.051l-4.152-9.464L400,87.085,504.858,326.609l7.91-2.539L463.383,210.621c16.383-1.256,52.892-13.051,86.191-86.575,0,0,29.914-55.836,73.72-49.235Z" transform="translate(-238.442 -5.43)" fill="url(#linear-gradient-2)"/>
    <path id="Path_3221" data-name="Path 3221" d="M410.51,97.744l50.827,114.939s49.289,12.029,92.935-84.334c0,0,29.275-54.617,72.113-48.16L552.856,13.607s-37.951-13.839-78.3,49.576C474.553,63.183,454.87,104.3,410.51,97.744Z" transform="translate(-243.358 -8.653)" fill="#5d76b7"/>
    <path id="Path_3222" data-name="Path 3222" d="M433.613,141.738l2.47,6.888-4.753,4.721,5.541-.681,2.071,6.3,1.639-7.154,5.158-.415-4.572-3.71,1.059-6.749-4.04,4.514Z" transform="translate(-201.726 -65.917)" fill="#ffd037"/>
    <path id="Path_3223" data-name="Path 3223" d="M453.379,102.581l2.2,6.5-4.157,5.168,4.945-1.134,2.651,5.9.66-7.329,5.408-.878-4.689-3.055,1-6.425-3.327,4.306Z" transform="translate(-211.122 -47.391)" fill="#ffd037"/>
    <path id="Path_3224" data-name="Path 3224" d="M483.033,77.709l2.379,5.514-4.083,5.69,4.876-1.65,2.379,5.514,1.581-6.824,5.6-1.011-5.216-2.986L492.332,75l-4.354,5.3Z" transform="translate(-225.112 -35.076)" fill="#ffd037"/>
    <path id="Path_3225" data-name="Path 3225" d="M515.166,77.244l2.385,5.514-4.95,4.86,5.663-1.341,2.188,5.647,1.778-6.957,5.738-.814-4.679-2.209,1.639-7.154-4.812,5.051Z" transform="translate(-239.738 -34.977)" fill="#ffd037"/>
    <path id="Path_3226" data-name="Path 3226" d="M542.516,96.544l2.379,5.514-4.945,4.86,5.663-1.341,2.188,5.647,1.772-6.957,5.738-.814-4.679-2.209,1.645-7.154-4.817,5.051Z" transform="translate(-252.53 -44.004)" fill="#ffd037"/>
    <path id="Path_3227" data-name="Path 3227" d="M557.146,126.254l2.379,5.514-4.945,4.86,5.658-1.341,2.193,5.647,1.772-6.957,5.738-.814-4.679-2.209,1.645-7.154-4.817,5.051Z" transform="translate(-259.373 -57.901)" fill="#ffd037"/>
    <path id="Path_3228" data-name="Path 3228" d="M550.54,172.8l2.651,5.9-4.711,7.271,5.706-2.518,2.443,5.184,1.182-7.4,6.036-2.459-5.333-2.326,1.118-7.074L556,174.474Z" transform="translate(-256.52 -79.219)" fill="#ffd037"/>
    <path id="Path_3229" data-name="Path 3229" d="M534.48,217.058l2.071,6.3-4.13,6.866,5.514-2.379,2.321,5.844,1.107-7.931,5.184-2.438-4.679-2.209,1.24-7.734-3.891,5.557Z" transform="translate(-249.008 -99.799)" fill="#ffd037"/>
    <path id="Path_3230" data-name="Path 3230" d="M503.063,245.042l2.14,6.824L500.21,257.9l4.945-1.134,2.193,5.653,1.639-7.154,5.126-2.113-4.035-2.938,1.107-7.926-3.758,5.749Z" transform="translate(-233.943 -113.321)" fill="#ffd037"/>
    <path id="Path_3231" data-name="Path 3231" d="M470.974,251.249l1.948,6.957-5.222,4.471,5.291-.224,1.533,5.53,2.044-6.574,5.8-1.144-4.242-3.651,1-6.425-3.784,4.056Z" transform="translate(-218.737 -117.016)" fill="#ffd037"/>
    <path id="Path_3232" data-name="Path 3232" d="M441.216,227.068l2.012,6.632-6.4,4.423,6.739.213,1.293,6.84,2.55-7.494,6.334-.373-4.764-3.577,2.012-8.272-5.663,5.067Z" transform="translate(-204.298 -105.449)" fill="#ffd037"/>
    <path id="Path_3233" data-name="Path 3233" d="M429.926,184.287l2.012,6.632-6.4,4.423,6.739.208,1.293,6.845,2.55-7.5,6.334-.367-4.769-3.577,2.017-8.272-5.663,5.062Z" transform="translate(-199.018 -85.44)" fill="#ffd037"/>
    <path id="Path_3234" data-name="Path 3234" d="M605.162,166.009l-11.71-13.025a2.039,2.039,0,0,0-2.88-.154l-.942.862-4.9-5.456a5.19,5.19,0,0,0-7.329-.394l-6.387,5.733a5.19,5.19,0,0,0-.394,7.329l4.9,5.456-.953.857a2.039,2.039,0,0,0-.154,2.88l11.71,13.025a2.039,2.039,0,0,0,2.88.154L605.013,168.9a2.039,2.039,0,0,0,.149-2.9Zm-32.261-5.4a5.189,5.189,0,0,1,.394-7.329l3.593-3.226a5.19,5.19,0,0,1,7.329.394l4.019,4.476-11.316,10.156Zm18.14,7.377,1.895,2.129a1.142,1.142,0,1,1-1.7,1.528l-2-2.23a2.768,2.768,0,1,1,1.8-1.411Z" transform="translate(-317.625 -71.414)" fill="url(#linear-gradient-3)"/>
    <path id="Path_3235" data-name="Path 3235" d="M578.545,149.34l-6.063,5.445a4.929,4.929,0,0,0-.373,6.962l5.136,5.722,1.325-1.192-4.3-4.79a4.929,4.929,0,0,1,.373-6.962l3.412-3.061a4.929,4.929,0,0,1,6.962.373l4.3,4.79,1.325-1.192-5.137-5.722a4.929,4.929,0,0,0-6.962-.373Z" transform="translate(-318.351 -72.146)" fill="#f0f5fa"/>
    <path id="Path_3236" data-name="Path 3236" d="M594.891,158.926l-15.207,13.642a1.937,1.937,0,0,0-.149,2.736l11.109,12.37a1.937,1.937,0,0,0,2.736.149l15.212-13.658a1.937,1.937,0,0,0,.149-2.736l-11.093-12.354a1.938,1.938,0,0,0-2.757-.149Zm.431,14.4,1.8,2.007a1.078,1.078,0,0,1-1.6,1.448l-1.9-2.129a2.629,2.629,0,1,1,1.714-1.336Z" transform="translate(-322.183 -76.983)" fill="#f0f5fa"/>
    <path id="Path_3237" data-name="Path 3237" d="M309.21,154.307l102.2,233.429,7.734-2.486L316.875,151.3Z" transform="translate(-144.607 -70.763)" fill="#f0f5fa"/>
    <path id="Path_3238" data-name="Path 3238" d="M499.81,381.955s4.067-16.6,11.518-11.854-3.385,13.887-3.385,13.887l-3.05,3.726Z" transform="translate(-285.126 -175.593)" fill="#f8bdc5"/>
    <path id="Path_3239" data-name="Path 3239" d="M326.685,359.16l3.859,3.332,1.629,6.611-2.645-1.533v-5.078l-2.848-.341Z" transform="translate(-152.778 -167.984)" fill="#dedff7"/>
    <path id="Path_3240" data-name="Path 3240" d="M326.685,359.16l3.859,3.332,1.629,6.611-2.645-1.533v-5.078l-2.848-.341Z" transform="translate(-152.778 -167.984)" opacity="0.1"/>
    <path id="Path_3241" data-name="Path 3241" d="M444.77,488.892l2.252,29.131,6.733-1.357s-1.5-23.708-4.487-27.774S444.77,488.892,444.77,488.892Z" transform="translate(-259.382 -230.708)" fill="#575988"/>
    <path id="Path_3242" data-name="Path 3242" d="M444.77,488.892l2.252,29.131,6.733-1.357s-1.5-23.708-4.487-27.774S444.77,488.892,444.77,488.892Z" transform="translate(-259.382 -230.708)" opacity="0.1"/>
    <path id="Path_3243" data-name="Path 3243" d="M388.556,743.538l-10.837,1.693-6.095-4.743-4.4-13.887v-5.089a11.2,11.2,0,0,0-.122-1.82c-.325-2.752-1.453-9.224-5.323-23.245-3.572-13.025-1.8-22.787.059-28.328a25.07,25.07,0,0,1,2.31-5.2h14.563s-.08,4.04-.351,8.708c-.293,4.987-.8,10.7-1.682,12.972-1.3,3.375-.41,18.667.08,25.645a27.147,27.147,0,0,0,1.325,6.685h0a42.793,42.793,0,0,1,1.858,8.868c.532,4.923,4.2,11.178,6.563,14.8C387.7,742.4,388.556,743.538,388.556,743.538Z" transform="translate(-219.599 -312.951)" fill="#f8bdc5"/>
    <path id="Path_3244" data-name="Path 3244" d="M475.748,741.391l-4.743,1.357-9.145-3.726-11.518-12.189v-6.771a12.931,12.931,0,0,0-.367-2.331c-1.868-7.814-10.113-21.036-10.113-21.036-6.095-14.563-3.05-24.724-3.05-24.724V661.464s15.92-5.419,16.6-3.385c.378,1.139-.1,4.53-.58,7.276-.383,2.129-.772,3.9-.772,3.9l7.452,39.969,3.167,7.452a28.746,28.746,0,0,1,1.831,6.047c1.1,6.02,5.4,11.976,8.351,15.484A41.693,41.693,0,0,0,475.748,741.391Z" transform="translate(-255.304 -310.473)" fill="#f8bdc5"/>
    <path id="Path_3245" data-name="Path 3245" d="M395.046,793.239l-10.837,1.693-6.095-4.743-4.4-13.887v-5.089a11.209,11.209,0,0,0-.122-1.82,2.543,2.543,0,0,1,.463-.213s1.357,5.083.676,7.452c-.532,1.89,4.083,8.948,5.983,11.71a8.022,8.022,0,0,0,3.9,3.1c3.7,1.309,7.25-.458,8.41-1.139C394.194,792.1,395.046,793.239,395.046,793.239Z" transform="translate(-226.089 -362.651)" opacity="0.1"/>
    <path id="Path_3246" data-name="Path 3246" d="M389.892,790.679s-4.29,2.991-8.809,1.389a8.017,8.017,0,0,1-3.9-3.077c-1.9-2.784-6.526-9.842-5.983-11.71.676-2.369-.676-7.452-.676-7.452a5.57,5.57,0,0,0-2.928,3.077,8.948,8.948,0,0,0,1.235,9.464v12.86h1.693V784.4a30.787,30.787,0,0,1,3.8,6.041,13.131,13.131,0,0,0,10.113,7.484c4.359.617,9.171.846,11.178-.66C395.582,797.269,397.072,794.3,389.892,790.679Z" transform="translate(-222.899 -362.955)" fill="#575988"/>
    <path id="Path_3247" data-name="Path 3247" d="M487.983,794.177l-4.743,1.357-9.144-3.726-11.518-12.189v-6.771a12.92,12.92,0,0,0-.367-2.331,2.5,2.5,0,0,1,.367-.037c0,1.762,3,5.956,5.11,8.676a53.166,53.166,0,0,1,3.071,4.444c4.386,7.069,11.982,7.452,14.318,7.409C486.743,792.985,487.983,794.177,487.983,794.177Z" transform="translate(-267.539 -363.259)" opacity="0.1"/>
    <path id="Path_3248" data-name="Path 3248" d="M458.683,771.74s-6.435,0-4.4,12.194l-.335,14.228h1.693l.341-12.53s1.693-3.05,7.452,3.385q1.309,1.464,2.369,2.714A20.573,20.573,0,0,0,482.252,799c3.694-.138,7.234-.532,8.617-1.512,0,0,3.385-2.709-5.083-4.067l-3.9-1.187s-9.789,1.064-15.021-7.372a52.659,52.659,0,0,0-3.077-4.466C461.69,777.7,458.683,773.5,458.683,771.74Z" transform="translate(-263.645 -363.848)" fill="#575988"/>
    <path id="Path_3249" data-name="Path 3249" d="M366.079,662.93h14.563s-.08,4.04-.351,8.708a102.859,102.859,0,0,1-16.5-3.508A25.073,25.073,0,0,1,366.079,662.93Z" transform="translate(-221.506 -312.955)" opacity="0.1"/>
    <path id="Path_3250" data-name="Path 3250" d="M453.456,665.355a67.422,67.422,0,0,1-16.016,3.981v-7.872s15.92-5.419,16.6-3.385C454.42,659.218,453.946,662.614,453.456,665.355Z" transform="translate(-255.954 -310.473)" opacity="0.1"/>
    <path id="Path_3251" data-name="Path 3251" d="M418.113,597.905c-27.774,11.518-58.933,0-58.933,0s8.8-10.161,4.743-43.354c-1.6-13.163-1.309-21.211-.351-26.135,1.453-7.489,4.413-7.734,4.413-7.734l39.969-4.743a23.079,23.079,0,0,0-.181,6.494c.953,13.488,6.951,39.569,6.951,39.569C424.889,592.827,418.113,597.905,418.113,597.905Z" transform="translate(-219.349 -244.204)" fill="#575988"/>
    <path id="Path_3252" data-name="Path 3252" d="M411.658,325.821c-1.033,1.549-1.655,4.711-2.028,8.351a158.458,158.458,0,0,0-.346,19.082s-20.663,11.178-15.92-3.385A36.386,36.386,0,0,0,391,322.777S415.048,320.743,411.658,325.821Z" transform="translate(-234.232 -153.669)" fill="#f8bdc5"/>
    <path id="Path_3253" data-name="Path 3253" d="M411.658,325.824c-1.033,1.549-1.655,4.711-2.028,8.351a15.244,15.244,0,0,1-15.436-2.342A34.649,34.649,0,0,0,391,322.785S415.048,320.746,411.658,325.824Z" transform="translate(-234.232 -153.672)" opacity="0.1"/>
    <circle id="Ellipse_189" data-name="Ellipse 189" cx="15.244" cy="15.244" r="15.244" transform="translate(154.388 150.473)" fill="#f8bdc5"/>
    <path id="Path_3254" data-name="Path 3254" d="M411.635,522.434c-1.858,5.1-3.545,9.086-3.545,9.086s-15.92-13.552-28.109-7.111c-5.754,3.034-10.145,4.338-12.54,4.008,1.453-7.489,4.413-7.734,4.413-7.734l39.969-4.743A22.823,22.823,0,0,0,411.635,522.434Z" transform="translate(-223.213 -244.204)" opacity="0.1"/>
    <path id="Path_3255" data-name="Path 3255" d="M406.294,454.859s-15.92-13.546-28.109-7.111-18.289,5.083-12.194-3.05,14.228-25.405,8.128-38.276-8.469-33.193-3.726-38.611,9.144-11.518,9.144-12.87c0,0,17.272,12.53,20.663,17.613a67.1,67.1,0,0,1,4.333,9.757c.953,2.47,1.964,5.184,2.959,7.92a100.708,100.708,0,0,1,3.779,13.147,111.167,111.167,0,0,1,2.294,17.3,16.373,16.373,0,0,0,.862,4.716C416.455,430.81,406.294,454.859,406.294,454.859Z" transform="translate(-221.417 -168.901)" fill="#575988"/>
    <path id="Path_3256" data-name="Path 3256" d="M412.91,363.451l-.4,7.069-19.556-14.9s-.373-2.991,4.711.053S412.91,363.451,412.91,363.451Z" transform="translate(-235.144 -168.602)" fill="#dedff7"/>
    <path id="Path_3257" data-name="Path 3257" d="M418.459,415.259c-17.89.33-38.164-19.646-38.164-19.646-7.111-18.965,16.937-14.9,16.937-14.9s1.98,5.1,14.494,13.482c.953,2.47,1.964,5.184,2.959,7.92a100.7,100.7,0,0,1,3.774,13.147Z" transform="translate(-228.61 -180.783)" opacity="0.1"/>
    <path id="Path_3258" data-name="Path 3258" d="M380.295,391.162s23.032,22.691,41.661,19.306c0,0,22.015-5.419,30.824-17.613a90.8,90.8,0,0,1-9.485-9.82S431.441,402,415.521,392.179s-18.289-15.92-18.289-15.92S373.183,372.192,380.295,391.162Z" transform="translate(-228.61 -178.7)" fill="#575988"/>
    <path id="Path_3259" data-name="Path 3259" d="M376.611,272.205c-3.864-1.1-8.085-1.6-11.843-.2-6.217,2.347-10.055,5.051-14.9,9.613-3.822,3.6-8.027,9.884-12.524,12.588s-8.894,6.228-10.645,11.178c-2.464,6.973.91,14.462,2.438,21.7a43.545,43.545,0,0,1-1.916,24.373c-2.959,7.739-8.245,15.308-6.92,23.495,1.389,8.756,10.177,14.7,18.912,16.192,5.951,1.022,12.391.394,17.448-2.9a10.645,10.645,0,0,0,3.513-3.46c2.156-3.726.74-8.415-.591-12.514-2.725-8.394-4.876-16.964-7.031-25.523-1.256-5-2.5-10.358-.724-15.2,1.735-4.721,6.063-8.027,10.587-10.23a15.861,15.861,0,0,0,4.993-3.087,8.584,8.584,0,0,0,1.666-2.826c2.278-6.073-.277-13.908,4.12-18.683,2.236-2.427,5.679-3.268,8.437-5.083,3.481-2.294,6.92-7.713,6.265-12.109C387.176,274.9,380.608,273.339,376.611,272.205Z" transform="translate(-201.064 -129.711)" opacity="0.1"/>
    <path id="Path_3260" data-name="Path 3260" d="M375.331,271.565c-3.864-1.1-8.085-1.6-11.843-.2-6.217,2.347-10.055,5.051-14.9,9.613-3.822,3.6-8.027,9.884-12.524,12.588s-8.894,6.228-10.646,11.178c-2.464,6.973.91,14.462,2.438,21.7a43.545,43.545,0,0,1-1.916,24.373c-2.959,7.739-8.245,15.308-6.92,23.495,1.389,8.756,10.177,14.7,18.912,16.192,5.951,1.022,12.391.394,17.448-2.9a10.644,10.644,0,0,0,3.513-3.46c2.156-3.726.74-8.415-.591-12.514-2.725-8.394-4.876-16.964-7.031-25.523-1.256-5-2.5-10.358-.724-15.2,1.735-4.721,6.063-8.027,10.587-10.23a15.863,15.863,0,0,0,4.993-3.087,8.586,8.586,0,0,0,1.666-2.826c2.278-6.073-.277-13.908,4.12-18.683,2.236-2.427,5.679-3.268,8.437-5.083,3.481-2.294,6.92-7.713,6.265-12.109C385.9,274.269,379.333,272.7,375.331,271.565Z" transform="translate(-200.466 -129.412)" fill="#eb6475"/>
    <path id="Path_3261" data-name="Path 3261" d="M206.749,619.152s-7.058-23.952,1.325-41.592a37.839,37.839,0,0,0,3.061-23.739,63.646,63.646,0,0,0-3.359-11.14" transform="translate(-146.754 -256.711)" fill="none" stroke="#535461" stroke-miterlimit="10" stroke-width="2"/>
    <path id="Path_3262" data-name="Path 3262" d="M211.546,517.063c0,2.938-5.323,11.449-5.323,11.449S200.9,520,200.9,517.063a5.323,5.323,0,0,1,10.646,0Z" transform="translate(-145.318 -242.24)" fill="#4bad65"/>
    <path id="Path_3263" data-name="Path 3263" d="M228.018,545.251c-1.6,2.464-10.688,6.723-10.688,6.723s.165-10.039,1.762-12.5a5.323,5.323,0,0,1,8.926,5.781Z" transform="translate(-153.003 -254.167)" fill="#4bad65"/>
    <path id="Path_3264" data-name="Path 3264" d="M225.6,595.755c-2.624,1.32-12.62.41-12.62.41s5.211-8.58,7.83-9.9a5.323,5.323,0,0,1,4.79,9.5Z" transform="translate(-150.968 -276.875)" fill="#4bad65"/>
    <path id="Path_3265" data-name="Path 3265" d="M216.38,635.6c-2.363,1.746-12.37,2.534-12.37,2.534s3.683-9.336,6.047-11.082a5.323,5.323,0,0,1,6.323,8.548Z" transform="translate(-146.773 -295.756)" fill="#4bad65"/>
    <path id="Path_3266" data-name="Path 3266" d="M194.767,557.8c2.129,2.044,11.918,4.168,11.918,4.168s-2.4-9.746-4.508-11.79a5.323,5.323,0,1,0-7.409,7.622Z" transform="translate(-141.596 -259.416)" fill="#4bad65"/>
    <path id="Path_3267" data-name="Path 3267" d="M183.159,603.255c2.624,1.32,12.62.41,12.62.41s-5.211-8.58-7.83-9.9a5.323,5.323,0,1,0-4.79,9.5Z" transform="translate(-135.555 -280.288)" fill="#4bad65"/>
    <path id="Path_3268" data-name="Path 3268" d="M180.183,650.192c2.363,1.746,12.37,2.534,12.37,2.534s-3.683-9.336-6.047-11.082a5.323,5.323,0,0,0-6.323,8.548Z" transform="translate(-134.715 -302.58)" fill="#4bad65"/>
    <path id="Path_3269" data-name="Path 3269" d="M560.259,806.078A6.21,6.21,0,0,0,562.3,803a2.73,2.73,0,0,0-1.426-3.135c-1.309-.5-2.709.4-3.769,1.325s-2.278,1.964-3.667,1.767a5.578,5.578,0,0,0,1.724-5.222,2.181,2.181,0,0,0-.479-1.065c-.729-.777-2.044-.442-2.917.17-2.768,1.948-3.54,5.706-3.556,9.091a17.43,17.43,0,0,1-.053-3.726,3.846,3.846,0,0,0-1.405-3.311,4.258,4.258,0,0,0-2.129-.506,4.432,4.432,0,0,0-3.481.99c-1.064,1.128-.782,3.029.138,4.258a13.855,13.855,0,0,0,3.6,2.885,7.986,7.986,0,0,1,2.576,2.454,2.419,2.419,0,0,1,.192.436h7.8A21.739,21.739,0,0,0,560.259,806.078Z" transform="translate(-304.137 -375.298)" fill="#4bad65"/>
    <path id="Path_3277" data-name="Path 3277" d="M179.36,678.136s11.928-.367,15.521-2.927,18.348-5.616,19.236-1.512,17.922,20.418,4.439,20.514-31.287-2.1-34.875-4.258S179.36,678.136,179.36,678.136Z" transform="translate(-135.243 -317.053)" fill="#a8a8a8"/>
    <path id="Path_3278" data-name="Path 3278" d="M218.808,698.468c-13.467.106-31.287-2.1-34.875-4.258-2.731-1.666-3.822-7.633-4.184-10.39h-.4s.756,9.618,4.343,11.806,21.408,4.391,34.875,4.258c3.886-.032,5.227-1.416,5.158-3.46C223.183,697.67,221.7,698.442,218.808,698.468Z" transform="translate(-135.238 -322.726)" opacity="0.2"/>
  </g>
</svg>
