<svg xmlns="http://www.w3.org/2000/svg" xmlns:xlink="http://www.w3.org/1999/xlink" width="674" height="509.313" viewBox="0 0 674 509.313">
    <defs>
        <linearGradient id="linear-gradient" x1="0.5" y1="1" x2="0.5" gradientUnits="objectBoundingBox">
            <stop offset="0" stop-color="gray" stop-opacity="0.251"/>
            <stop offset="0.54" stop-color="gray" stop-opacity="0.122"/>
            <stop offset="1" stop-color="gray" stop-opacity="0.102"/>
        </linearGradient>
        <linearGradient id="linear-gradient-2" x1="0.5" x2="0.5" y2="0" xlink:href="#linear-gradient"/>
        <linearGradient id="linear-gradient-3" x1="0.5" x2="0.5" y2="0" xlink:href="#linear-gradient"/>
        <linearGradient id="linear-gradient-4" x1="1.096" x2="1.096" y2="0" xlink:href="#linear-gradient"/>
        <linearGradient id="linear-gradient-5" x1="0.5" x2="0.5" y2="0" xlink:href="#linear-gradient"/>
    </defs>
    <g id="undraw_team_spirit_hrr4" transform="translate(0.013 -0.004)">
        <path id="Path_3314" data-name="Path 3314" d="M43.44,426.65c10.664,41.559,33.241,77.484,68.923,94.895,74.184,36.191,241.384,17.524,366.191-3.9C543.129,506.562,599.848,476,641.075,432.93Z" transform="translate(-36.17 -185.821)" fill="#fff" opacity="0.1"/>
        <path id="Path_3315" data-name="Path 3315" d="M709.8,65.356H641.317a5.42,5.42,0,1,1,0-10.794h11.849a5.7,5.7,0,0,1-5.924-5.4,5.688,5.688,0,0,1,5.924-5.391h-8.454a5.7,5.7,0,0,1-5.924-5.4,5.692,5.692,0,0,1,5.924-5.4h35.741a101.26,101.26,0,0,0-27.88-7c-97.46-11.416-132.259-3.869-144.552,3.9a143.433,143.433,0,0,1-50.09,20.018C397.8,61.2,285.346,74.811,183.419,45.533,132.76,30.989,95.111,55.6,72.54,96.665H721.686c-.847-11.943-3.383-22.974-8.039-32.625A6.209,6.209,0,0,1,709.8,65.356Z" transform="translate(-48.031 -20.14)" fill="#fff" opacity="0.1"/>
        <path id="Path_3316" data-name="Path 3316" d="M32.618,280.23a251.154,251.154,0,0,0,2.66,72.507L636.52,372.785a256.61,256.61,0,0,0,41.772-58.058ZM270.4,331.955H258.552a5.418,5.418,0,1,1,0,10.788H190.1a5.418,5.418,0,1,1,0-10.788h11.849a5.42,5.42,0,1,1,0-10.794h-8.466a5.418,5.418,0,1,1,0-10.788h68.479a5.418,5.418,0,1,1,0,10.788H270.4a5.42,5.42,0,1,1,0,10.794Z" transform="translate(-31.16 -126.144)" fill="#fff" opacity="0.1"/>
        <path id="Path_3317" data-name="Path 3317" d="M705.918,149.94,49.509,164.5c-8,18.715-13.288,39.87-15.729,61.8H694.413a236.37,236.37,0,0,0,9.538-39.39A170.631,170.631,0,0,0,705.918,149.94Zm-538.86,47.7H155.21a5.42,5.42,0,1,1,0,10.794H86.737a5.42,5.42,0,1,1,0-10.794H98.586a5.418,5.418,0,1,1,0-10.788H90.12a5.42,5.42,0,1,1,0-10.794H158.6a5.42,5.42,0,1,1,0,10.794h8.46a5.418,5.418,0,1,1,0,10.788Z" transform="translate(-32.233 -73.041)" fill="#fff" opacity="0.1"/>
        <ellipse id="Ellipse_204" data-name="Ellipse 204" cx="44.568" cy="10.006" rx="44.568" ry="10.006" transform="translate(348.999 434.28)" fill="#fff" opacity="0.1"/>
        <ellipse id="Ellipse_205" data-name="Ellipse 205" cx="80.404" cy="6.6" rx="80.404" ry="6.6" transform="translate(416.726 469.465)" fill="#fff" opacity="0.1"/>
        <ellipse id="Ellipse_206" data-name="Ellipse 206" cx="80.404" cy="10.006" rx="80.404" ry="10.006" transform="translate(93.894 456.052)" fill="#fff" opacity="0.1"/>
        <ellipse id="Ellipse_207" data-name="Ellipse 207" cx="60.499" cy="10.006" rx="60.499" ry="10.006" transform="translate(236.391 405.962)" fill="#fff" opacity="0.1"/>
        <ellipse id="Ellipse_208" data-name="Ellipse 208" cx="48.431" cy="10.006" rx="48.431" ry="10.006" transform="translate(265.349 489.305)" fill="#fff" opacity="0.1"/>
        <path id="Path_3318" data-name="Path 3318" d="M528.3,246.636c-1.28-8.614-9.106-28.715-9.106-28.715h0q-.2-.889-.462-1.777c-5.551-19.076-13.235-20.735-13.235-20.735l-27.524-5.924a2.134,2.134,0,0,1,.592.551,3.821,3.821,0,0,0-.432.065,10.782,10.782,0,0,1-2.411-5.213c-.053-.284-.1-.592-.136-.883a19.361,19.361,0,0,0-1.576-29.106c-.29-.225-.592-.444-.883-.652,1.3-1.38,1.339-3.3.367-5.219-2.168-4.5-6.884-7.352-11.73-8.744a19.885,19.885,0,0,0-11.386-.243,41.123,41.123,0,0,0-5.96,2.767c-3.655,1.825-7.7,3.27-10.433,6.274a3.062,3.062,0,0,0-1.043,2.518,6.794,6.794,0,0,0,1.037,1.831,5.525,5.525,0,0,1,.053,4.585,44.409,44.409,0,0,0-1.7,4.408,4.608,4.608,0,0,0,.918,4.425,19.5,19.5,0,0,0,1.718,1.185,9.012,9.012,0,0,1,1.641,1.842q1.635,2.192,3.258,4.4a45.353,45.353,0,0,1,4.082,6.2,30.222,30.222,0,0,0,2.524,4.739,7.028,7.028,0,0,0,1.084,1.137l-.32-.124a4.935,4.935,0,0,0,3.62,1.475h.166a1,1,0,0,0,.663-.273v.592c.065,2.115.053,4.366-.095,6.481l-.255-.13a2.222,2.222,0,0,0-2.37.249l-25.338,20.332s-5.51,7.536-4.739,20.545l-4.443,19.509s-5.551,16.552-1.28,28.371,6.748,18.578,6.748,18.578,1.706,13.43,4.271,14.526,3.673,1.688,3.673,1.688l.509,3.211h0s.172.314.474.841c1.866,3.246,8.78,14.7,12.8,13.478a51.364,51.364,0,0,1,.652,9.414l3.975,26.689s2.773,7.257,2.6,11.061,3.235,9.224,3.235,9.224a17.625,17.625,0,0,0-1.706,12.411c1.623,7.109,3.673,39.858,3.673,39.858l2.962,7.939-.083,9.307a8.887,8.887,0,0,1-1.837,4.147c-1.919,2.085-1.777,4.5-6.4,7.346s-7.559,3.928-7.559,7.7a9.9,9.9,0,0,1-.142,1.57c-.427,2.772-1.256,4.277,7.251,5.083a22.43,22.43,0,0,0,16.659-5.569s1.469-2.666,8.389-3.744c0,0,2.37-.124,2.494-2.216.047-.723.036-2.1,0-3.626-.112-2.9-.391-6.28-.758-6.446-.462-.207-1.268-3.122-1.546-4.177h1.925s1.777-13.43,0-22.127a35.9,35.9,0,0,1-.172-14.864l-.344-22.968s-2.37-2.536-.51-7.014,0-26.6,0-26.6.687-7.939,2.648-9.8.095-11.629,0-12.139l3.5,11.724s1.534,23.306,4.787,27.524l.936,10.557s6.659,9.716,5.379,14.947,1.369,24.153,1.369,24.153v19.343s-2.992,7.767,1.185,10.557l1.777-.071c-.592.551-1.049,1.38-1.742,2.1-.8.823-1.256,3.957-1.511,6.653-.213,2.281-.284,4.242-.284,4.242a6.984,6.984,0,0,0,5.124,3.039c3.347.2,14.378,8.584,14.378,8.584s10.895,0,13.715-.592l.166-.042a3.7,3.7,0,0,0,2.127-1.736,4.443,4.443,0,0,0,.509-3.193c-.349-1.665-1.671-3.489-4.6-5.042-7.281-3.839-8.365-7.435-8.365-7.435l-4.781-7.174h.681a30.69,30.69,0,0,1,4.781-16.132l-.338-37.578s2.133-12.921-1.534-19.935c0,0-.3-7.429,2.151-9.71s-3.264-25.332-3.264-25.332-1.185-12.376-2.577-23.668h0c5.764,5.468,11.742-14.218,12.749-17.719h.148l-.065-.255c.041-.166.065-.249.065-.249h0s-1.28-4.55-.344-3.626,3.247-2.536,3.247-2.536-.344-18.833,3.673-28.324S528.3,246.636,528.3,246.636Zm-17.18,11.985.03-.053c.592,11.5-.113,36.037-.113,36.037s-.794,3.146-1.641,6.848l-.592-23.312h0l-.592-21.961Zm-73.526-7.927s2.9,36.31,0,41.547a27.431,27.431,0,0,0-2.091,7.174c-.96-2.518-2.992-8.43-2.263-11.564.942-4.052-1.878-14.7-1.878-14.947s-.255-5.924,1.777-10.261.7-6.215.7-6.215S435.545,249.32,437.595,250.694Z" transform="translate(-186.203 -68.711)" fill="url(#linear-gradient)"/>
        <path id="Path_3319" data-name="Path 3319" d="M456.894,452.945c-2.53,11.12-12.589-5.693-14.882-9.728-.3-.527-.462-.835-.462-.835l1.09-5.113,5.764-2.37a16.1,16.1,0,0,1,2.583,1.682A15.573,15.573,0,0,1,456.894,452.945Z" transform="translate(-198.429 -189.183)" fill="#d38884"/>
        <path id="Path_3320" data-name="Path 3320" d="M587.775,432.69a.778.778,0,0,1-.065.249,1.263,1.263,0,0,1-.077.267c-.989,3.472-6.854,23.016-12.518,17.589-6.2-5.924-3.187-19.621-3.187-19.621h.042L585,429.84l2.583,2.654h0Z" transform="translate(-251.27 -187.121)" fill="#d38884"/>
        <path id="Path_3321" data-name="Path 3321" d="M531.6,529.905l.332,37.323a30.611,30.611,0,0,0-4.692,16l-16.849.664c-4.111-2.767-1.185-10.474-1.185-10.474V554.195s-2.6-18.774-1.345-23.975-5.279-14.811-5.279-14.811l-.924-10.48c-3.187-4.188-4.7-27.323-4.7-27.323l-3.418-11.683c.095.5,1.872,10.255,0,12.05s-2.6,9.722-2.6,9.722,1.842,21.967,0,26.4.5,6.961.5,6.961l.338,22.8a35.658,35.658,0,0,0,.166,14.751c1.76,8.632,0,21.967,0,21.967H473.871l.083-9.307-2.927-7.879s-2.014-32.524-3.608-39.568A17.678,17.678,0,0,1,469.09,511.5s-3.347-5.361-3.181-9.135-2.583-10.972-2.583-10.972l-3.9-26.487a51.462,51.462,0,0,0-1.931-15.089c-2.263-7.547-5.616-17.441-5.616-17.441l3.786.338,19.1,1.7s46.44-3.122,48.52-.527a8.714,8.714,0,0,1,.877,2.707c2.085,9.366,4.84,38.709,4.84,38.709s5.616,22.885,3.2,25.148-2.115,9.633-2.115,9.633C533.706,517.05,531.6,529.905,531.6,529.905Z" transform="translate(-202.639 -188.156)" fill="#444053"/>
        <path id="Path_3322" data-name="Path 3322" d="M496.526,694.215c-.13,2.079-2.447,2.2-2.447,2.2-6.789,1.066-8.235,3.709-8.235,3.709a21.806,21.806,0,0,1-16.345,5.533c-8.353-.806-7.542-2.293-7.109-5.047a10.447,10.447,0,0,0,.136-1.552c0-3.774,2.891-4.846,7.417-7.7s4.4-5.219,6.286-7.293,2.079-6.1,2.079-6.1c2.133-3.714,7.542.592,7.542.592.255,1.315,8.294,1.132,8.294,1.132s1.066,4.277,1.617,4.526c.361.166.634,3.519.741,6.4C496.562,692.13,496.573,693.5,496.526,694.215Z" transform="translate(-206.823 -287.637)" fill="#b07473"/>
        <path id="Path_3323" data-name="Path 3323" d="M496.526,703.964c-.13,2.079-2.447,2.2-2.447,2.2-6.789,1.066-8.235,3.709-8.235,3.709A21.806,21.806,0,0,1,469.5,715.41c-8.353-.806-7.542-2.293-7.109-5.047,3.732.924,10.865,2.216,15.03-.047,5.788-3.14,9.941-5.332,9.941-5.332l9.147-4.6C496.562,701.879,496.573,703.247,496.526,703.964Z" transform="translate(-206.823 -297.386)" opacity="0.1"/>
        <path id="Path_3324" data-name="Path 3324" d="M582.6,707.057a3.614,3.614,0,0,1-2.085,1.724l-.16.042c-2.767.592-13.46.592-13.46.592s-10.812-8.359-14.082-8.549a6.877,6.877,0,0,1-5.03-3.021s.065-1.943.273-4.206c.255-2.678.7-5.788,1.487-6.606,1.446-1.511,1.777-3.555,5.03-2.263,0,0,4.645-8.187,10.119-1.86l5.664,8.59s1.066,3.555,8.241,7.411c2.867,1.54,4.147,3.353,4.508,5.006A4.414,4.414,0,0,1,582.6,707.057Z" transform="translate(-241.726 -289.287)" fill="#b07473"/>
        <path id="Path_3325" data-name="Path 3325" d="M582.6,716.089c-.64.539-1.345,1.12-2.085,1.724l-.16.042c-2.767.592-13.46.592-13.46.592s-10.812-8.359-14.082-8.549a6.877,6.877,0,0,1-5.03-3.021s.065-1.943.273-4.206c3.329,1,8.371,2.755,9.722,4.651,2.074,2.885,8.371,6.914,8.371,6.914s11.742-1.131,16.955-1.286A4.414,4.414,0,0,1,582.6,716.089Z" transform="translate(-241.726 -298.319)" opacity="0.1"/>
        <path id="Path_3326" data-name="Path 3326" d="M507.877,218l-15.462,16.345s-18.738-1.38-15.468-6.914c1.665-2.82,1.925-8.721,1.777-13.851-.136-4.947-.646-9.159-.646-9.159s26.28-13.081,24.29-.883a20.074,20.074,0,0,0-.071,6.961C503.416,216.664,507.877,218,507.877,218Z" transform="translate(-212.7 -92.768)" fill="#d38884"/>
        <path id="Path_3327" data-name="Path 3327" d="M503.386,203.541a20.077,20.077,0,0,0-.071,6.961,19.289,19.289,0,0,1-13.756,5.741c-3.555,0-7.4-2.921-10.273-4.609-.136-4.953-.166-7.21-.166-7.21S505.4,191.343,503.386,203.541Z" transform="translate(-213.742 -92.768)" opacity="0.1"/>
        <path id="Path_3328" data-name="Path 3328" d="M502.772,180.851a19.366,19.366,0,1,1-7.287-15.131A19.366,19.366,0,0,1,502.772,180.851Z" transform="translate(-207.595 -77.749)" fill="#d38884"/>
        <path id="Path_3329" data-name="Path 3329" d="M526.18,436.822c-4.822,11.475-35.842,11.712-35.842,11.712V436.022l-1.878-.124c.812,3.584-1.138,12.323-1.138,12.323-24.515,3.46-30.492-10.51-30.492-10.51l.853-4.781,19.1,1.7s46.44-3.122,48.52-.527A8.716,8.716,0,0,1,526.18,436.822Z" transform="translate(-204.657 -188.38)" opacity="0.1"/>
        <path id="Path_3330" data-name="Path 3330" d="M490.338,363.329V350.817l-1.878-.118c.812,3.555-1.138,12.323-1.138,12.323-18.448,2.6-26.4-4.662-29.2-8.418a11.464,11.464,0,0,1-1.291-2.085l7.488-42.122L466.1,248.4l2.684-10.877.622-5.219v-.059h.065l1.908.818L482.79,238l12.968-9.793.19-.136.646-.492,1.072.859,2.666,2.139,8.549,55.208s14.811,42.507,17.583,59.663c.113.687.2,1.327.273,1.925C528.567,363.038,490.338,363.329,490.338,363.329Z" transform="translate(-204.657 -104.685)" fill="#fff"/>
        <circle id="Ellipse_209" data-name="Ellipse 209" cx="1.102" cy="1.102" r="1.102" transform="translate(278.418 133.434)" fill="#67647e"/>
        <circle id="Ellipse_210" data-name="Ellipse 210" cx="1.102" cy="1.102" r="1.102" transform="translate(278.927 143.493)" fill="#67647e"/>
        <circle id="Ellipse_211" data-name="Ellipse 211" cx="1.102" cy="1.102" r="1.102" transform="translate(280.029 159.779)" fill="#67647e"/>
        <circle id="Ellipse_212" data-name="Ellipse 212" cx="1.102" cy="1.102" r="1.102" transform="translate(281.848 177.321)" fill="#67647e"/>
        <circle id="Ellipse_213" data-name="Ellipse 213" cx="1.102" cy="1.102" r="1.102" transform="translate(282.95 193.79)" fill="#67647e"/>
        <circle id="Ellipse_214" data-name="Ellipse 214" cx="1.102" cy="1.102" r="1.102" transform="translate(284.052 211.332)" fill="#67647e"/>
        <circle id="Ellipse_215" data-name="Ellipse 215" cx="1.102" cy="1.102" r="1.102" transform="translate(283.613 228.684)" fill="#67647e"/>
        <path id="Path_3331" data-name="Path 3331" d="M470.132,319.613s-1.232,16.132-3.5,20.824-3.27,17.856-3.27,17.856l-5.255-.592a11.46,11.46,0,0,1-1.292-2.085l7.488-42.122,1.777-61.992,2.69-10.883.622-5.219.071-.03a2.121,2.121,0,0,1,1.872.03l.249.13q-.113.32-.213.658c-2.05,6.416-2.814,18.241-2.814,18.241s2.962,21.63,3.27,31.689S470.132,319.613,470.132,319.613Z" transform="translate(-204.653 -107.778)" opacity="0.1"/>
        <path id="Path_3332" data-name="Path 3332" d="M450.987,436.6a3.037,3.037,0,0,1-.2.391c-2.038,3.442-7.2,5.628-8.774,6.226-.3-.527-.462-.835-.462-.835l1.09-5.113,5.764-2.37A16.1,16.1,0,0,1,450.987,436.6Z" transform="translate(-198.429 -189.183)" opacity="0.1"/>
        <path id="Path_3333" data-name="Path 3333" d="M425.668,298.81l-4.781,2.85-4.354,19.366s-5.45,16.428-1.262,28.164,6.623,18.454,6.623,18.454,1.677,13.33,4.194,14.42,3.6,1.677,3.6,1.677l.5,3.187s6.825-2.316,9.236-6.4-1.777-14.218-1.777-14.218-3.6-8.638-2.678-12.66-1.848-14.586-1.848-14.811-.249-5.871,1.777-10.19.675-6.161.675-6.161l-1.262-12.322Z" transform="translate(-187.074 -133.717)" fill="#67647e"/>
        <path id="Path_3334" data-name="Path 3334" d="M553.146,349.791s-12.66,4.775-16.683.592-3.608-23.81-3.608-23.81S529,290.359,526.57,284.411s-1.185-48.875-1.185-48.875-1.635-5.551-3.063-7a1.553,1.553,0,0,0-.3-.243l.492.107,1.718.367L526.9,230.9l8.549,55.208s14.811,42.507,17.583,59.663Z" transform="translate(-231.227 -104.975)" opacity="0.1"/>
        <path id="Path_3335" data-name="Path 3335" d="M588.269,433.185h-.142c-1.594.207-15.658,1.908-15.717-1.019a8.563,8.563,0,0,1,.053-1.013L585.5,429.82l2.583,2.654h0c.047.172.083.32.119.438Z" transform="translate(-251.764 -187.113)" opacity="0.1"/>
        <path id="Path_3336" data-name="Path 3336" d="M574.773,266.07l9.242,4.822s7.7,19.941,8.934,28.49c0,0,5.705,22.9,1.777,32.323s-3.6,28.117-3.6,28.117-2.263,3.436-3.187,2.518.338,3.6.338,3.6-15.8,2.1-15.865-1.007S576.035,347,576.035,347s1.007-35.291-.421-40.824S574.773,266.07,574.773,266.07Z" transform="translate(-251.764 -120.373)" fill="#67647e"/>
        <path id="Path_3337" data-name="Path 3337" d="M524.659,329.52s-5.2,12.737-6.878,13.578.338,4.189.338,4.189S527.592,334.046,524.659,329.52Z" transform="translate(-229.227 -146.233)" opacity="0.1"/>
        <path id="Path_3338" data-name="Path 3338" d="M519.028,254.1c.059-.243-6.2,6.143-7.879,7.109S517.268,261.145,519.028,254.1Z" transform="translate(-226.7 -115.49)" opacity="0.1"/>
        <path id="Path_3339" data-name="Path 3339" d="M489.395,327.82s-9.556,6.179-8.294,8.626S489.395,327.82,489.395,327.82Z" transform="translate(-214.502 -145.54)" opacity="0.1"/>
        <path id="Path_3340" data-name="Path 3340" d="M524.47,480.07a51.152,51.152,0,0,0,20.788,6.517Z" transform="translate(-232.225 -207.593)" opacity="0.1"/>
        <path id="Path_3341" data-name="Path 3341" d="M491.5,501.3s7.542,9.479,10.984,9.722S491.5,501.3,491.5,501.3Z" transform="translate(-218.787 -216.246)" opacity="0.1"/>
        <path id="Path_3342" data-name="Path 3342" d="M503.07,564c-.338.166-4.277,8.549-8.294,8.8S503.07,564,503.07,564Z" transform="translate(-219.794 -241.801)" opacity="0.1"/>
        <path id="Path_3343" data-name="Path 3343" d="M568.33,594.829s7.476-1.677,9.141,3.685C577.471,598.5,576.968,596.82,568.33,594.829Z" transform="translate(-250.101 -254.265)" opacity="0.1"/>
        <path id="Path_3344" data-name="Path 3344" d="M559.84,646.31s9.058-1.848,10.984.669S559.84,646.31,559.84,646.31Z" transform="translate(-246.641 -275.082)" opacity="0.1"/>
        <path id="Path_3345" data-name="Path 3345" d="M510.47,654c0,.083-9.218,1.848-8.886,3.021s9.834,1.007,10.172-.841a1.777,1.777,0,0,0-1.285-2.18Z" transform="translate(-222.894 -278.483)" opacity="0.1"/>
        <path id="Path_3346" data-name="Path 3346" d="M554.75,667.053s15.148-1.848,14.218,1.339S554.75,667.053,554.75,667.053Z" transform="translate(-244.566 -283.585)" opacity="0.1"/>
        <path id="Path_3347" data-name="Path 3347" d="M420.89,352.44c.083.249,9.976,1.594,11.315,4.781,0,0-9.722-4.532-11.256-4.532" transform="translate(-190.009 -155.575)" opacity="0.1"/>
        <path id="Path_3348" data-name="Path 3348" d="M439.11,396.16s-8.217,2.6-7.63,6.517S430.644,400.864,439.11,396.16Z" transform="translate(-194.312 -173.394)" opacity="0.1"/>
        <path id="Path_3349" data-name="Path 3349" d="M437.92,427.47s2.992-4.106,5.841-3.353S437.92,427.47,437.92,427.47Z" transform="translate(-196.95 -184.751)" opacity="0.1"/>
        <path id="Path_3350" data-name="Path 3350" d="M495.5,165.718a4.663,4.663,0,0,1-.96.717c-2.37,1.38-3.021,3.507-4.147,5.96-1.049,2.245-2.2,4.621-4.319,5.895-2.731,1.647-6.327,1.043-9.165,2.476a7.109,7.109,0,0,0-3.792,7.008,20.219,20.219,0,0,0,.806,3.211,22.9,22.9,0,0,1,.865,6.973,1.177,1.177,0,0,1,0,.207,19.361,19.361,0,1,1,20.735-32.447Z" transform="translate(-207.614 -77.747)" opacity="0.1"/>
        <path id="Path_3351" data-name="Path 3351" d="M488.349,152.159c-2.127-4.467-6.754-7.3-11.511-8.679a19.333,19.333,0,0,0-11.179-.237,41.007,41.007,0,0,0-5.847,2.743c-3.59,1.813-7.536,3.246-10.237,6.226a3.12,3.12,0,0,0-1.025,2.5,6.982,6.982,0,0,0,1.013,1.813,5.5,5.5,0,0,1,.053,4.556,41.786,41.786,0,0,0-1.671,4.378,4.606,4.606,0,0,0,.9,4.39,16.411,16.411,0,0,0,1.694,1.185,8.915,8.915,0,0,1,1.605,1.825l3.2,4.372a44.346,44.346,0,0,1,4,6.155,29.33,29.33,0,0,0,2.476,4.7,5.361,5.361,0,0,0,4.491,2.4.871.871,0,0,0,.711-.338.935.935,0,0,0,.089-.444,22.737,22.737,0,0,0-.847-6.949,20.045,20.045,0,0,1-.806-3.211,7.139,7.139,0,0,1,3.792-7.008c2.844-1.434,6.44-.829,9.165-2.47,2.121-1.28,3.276-3.655,4.319-5.924,1.143-2.453,1.777-4.579,4.147-5.96S489.528,154.511,488.349,152.159Z" transform="translate(-200.962 -70.018)" fill="#585268"/>
        <path id="Path_3352" data-name="Path 3352" d="M501.63,693.06s2.962,3.774,2.192,5.924S501.63,693.06,501.63,693.06Z" transform="translate(-222.916 -294.402)" opacity="0.1"/>
        <path id="Path_3353" data-name="Path 3353" d="M569.28,705.441s.658-5.059,3.294-5.107,2.767-.273,4.781.5,3.9,1.979,3.3,2.156-3.466-2.891-6.4-1.321A21.163,21.163,0,0,0,569.28,705.441Z" transform="translate(-250.488 -297.34)" opacity="0.1"/>
        <path id="Path_3354" data-name="Path 3354" d="M481.4,247.576l8.294-5.812s-12.133-7.168-13.578-6.161-2.441,10.071-2.441,10.071Z" transform="translate(-211.52 -107.916)" opacity="0.1"/>
        <path id="Path_3355" data-name="Path 3355" d="M481.335,246.869l8.294-5.924s-12.133-7.168-13.578-6.161-2.441,10.569-2.441,10.569Z" transform="translate(-211.496 -107.582)" fill="#e1e7ef"/>
        <path id="Path_3356" data-name="Path 3356" d="M481.335,246.869l8.294-5.924s-12.133-7.168-13.578-6.161-2.441,10.569-2.441,10.569Z" transform="translate(-211.496 -107.582)" fill="#fff"/>
        <path id="Path_3357" data-name="Path 3357" d="M457.906,234.683l-.249-.124a2.15,2.15,0,0,0-2.328.243l-24.882,20.184s-5.409,7.482-4.657,20.391l14.674,20.788s1.677-7.038,3.685-5.7c0,0,2.85,36.049,0,41.245s-4.105,24.645-4.105,24.645l9.639,1.09s1.007-13.164,3.27-17.856,3.5-20.824,3.5-20.824,2.038-23.436,1.7-33.5-3.27-31.689-3.27-31.689S455.7,240.9,457.906,234.683Z" transform="translate(-191.977 -107.434)" fill="#67647e"/>
        <path id="Path_3358" data-name="Path 3358" d="M514.778,240.967,504.44,237.14s13.164-14.42,14.811-6.422Z" transform="translate(-224.061 -104.98)" opacity="0.1"/>
        <path id="Path_3359" data-name="Path 3359" d="M514.778,240.117,504.44,236.29s13.164-14.42,14.811-6.422Z" transform="translate(-224.061 -104.633)" fill="#e1e7ef"/>
        <path id="Path_3360" data-name="Path 3360" d="M514.778,240.117,504.44,236.29s13.164-14.42,14.811-6.422Z" transform="translate(-224.061 -104.633)" fill="#fff"/>
        <path id="Path_3361" data-name="Path 3361" d="M521.32,228.115a.592.592,0,0,1,.427.095Z" transform="translate(-230.941 -104.9)" opacity="0.1"/>
        <path id="Path_3362" data-name="Path 3362" d="M523,226.423l27.429,5.924s7.548,1.677,13,20.622-7.464,42.157-7.464,42.157l-2.849-2.423,1.428,55.327s-12.66,4.775-16.683.592-3.6-23.827-3.6-23.827-3.857-36.209-6.292-42.163-1.185-48.869-1.185-48.869S524.54,226.091,523,226.423Z" transform="translate(-231.626 -104.209)" fill="#67647e"/>
        <path id="Path_3363" data-name="Path 3363" d="M565.113,285.769c-.385.355-.835,17.1.841,29.841a162.609,162.609,0,0,0,4.739,22.968l-2.488-51.049S566.286,284.679,565.113,285.769Z" transform="translate(-248.643 -128.3)" opacity="0.1"/>
        <path id="Path_3364" data-name="Path 3364" d="M559.7,261.6c.669.421,3.608,7.376,2.263,10.225S559.7,261.6,559.7,261.6Z" transform="translate(-246.584 -118.551)" opacity="0.1"/>
        <path id="Path_3365" data-name="Path 3365" d="M498.389,154.445a15.143,15.143,0,0,0-6.031-6.315,14.343,14.343,0,0,1,4.52,5.332c1.185,2.37.835,4.739-1.469,6.037s-3.021,3.507-4.147,5.96c-1.049,2.245-2.2,4.621-4.325,5.924-2.725,1.647-6.321,1.037-9.165,2.47a7.157,7.157,0,0,0-3.792,7.014,20.143,20.143,0,0,0,.812,3.205,22.915,22.915,0,0,1,.865,6.973.935.935,0,0,1-.095.444.847.847,0,0,1-.705.338,4.082,4.082,0,0,1-2.068-.385,4.811,4.811,0,0,0,3.555,1.392.7.7,0,0,0,.794-.782,22.731,22.731,0,0,0-.859-6.973,19.466,19.466,0,0,1-.812-3.211,7.139,7.139,0,0,1,3.792-7.008c2.844-1.434,6.44-.829,9.165-2.47,2.121-1.28,3.276-3.655,4.319-5.924,1.143-2.453,1.777-4.579,4.147-5.96S499.574,156.8,498.389,154.445Z" transform="translate(-211.162 -72.304)" opacity="0.1"/>
        <path id="Path_3366" data-name="Path 3366" d="M721.422,238.212c-8.164-.16-15.368-5.924-19.449-12.968a13.033,13.033,0,0,1-1.967-5.551,6.4,6.4,0,0,1,.225-1.327,13.758,13.758,0,0,0,.592-2.032,3.543,3.543,0,0,0,0-.829v-.047a4.9,4.9,0,0,0-1.777-3.987c-1.09-1.025-2.458-1.777-3.6-2.8-3.507-3.081-4.573-8.021-4.639-12.725V195.7c.042-2.014.2-4.034.184-6.049a25.423,25.423,0,0,0-.148-3.424,11.315,11.315,0,0,0-3.661-7.571c-5.841-4.739-15.664.2-21.712-4.283-1.469-1.1-2.66-2.713-4.443-3.14a7.484,7.484,0,0,0-4.058.551c-4.455,1.469-9.426,3.4-11.167,7.7-1,2.47-.717,5.29-1.629,7.79a38.88,38.88,0,0,1-2.547,4.7,7.364,7.364,0,0,0-.948,3.928,4.434,4.434,0,0,0,.29,2.091,5.332,5.332,0,0,0,1.452,2.079,6.9,6.9,0,0,1-.865,1.386c-1.137,1.392-2.885,2.37-4.07,3.756-2.192,2.541-2.109,6-1.031,8.981s3.027,5.705,4.372,8.614a4.624,4.624,0,0,1,.444,3.928,11.261,11.261,0,0,1-1.967,2.287A7.187,7.187,0,0,0,637.528,233c-13.336,3.045-13.347,13.762-13.347,13.762h0l-7.2,18.116s-1.155,3.051-2.512,7.08l-8.525-1.528,5.924,9.917c-1.12,4.04-1.913,7.785-1.653,9.668,0,0-2.648,12.441,2.062,14.615l10.391,4.674a6.155,6.155,0,0,0,1.439.646l.421.19a1.114,1.114,0,0,0,.972,0h.142a1.4,1.4,0,0,0,.592-.089,1.186,1.186,0,0,0,.521-.563.179.179,0,0,1,0-.059l3.11-.9,2.636,3.122c1.185.835,2.37,1.558,3.49,2.21l-4.082,40.534s-.658,53.911-2.648,66.2a34.412,34.412,0,0,0-.462,9.763l-.077.13c.492,3.466,1.777,4.147,1.777,4.147v-.047a.392.392,0,0,0,.077.047,34.923,34.923,0,0,1,2.133-4.574v.889c-.042,4.574-.184,10.978-.658,15.142-.806,7.109,2.062,30.54,2.062,30.54l.989,21.327a19.717,19.717,0,0,1-2.429,10.391c-2.37,4.26-5.4,10.255-5.616,12.915a2.637,2.637,0,0,0,0,.432h0l-5.083,6.114s-1.985,3.069,2.5,4.307c2.411.669,6.57,0,9.911-.788a6.623,6.623,0,0,0,5.136-6.446,22.808,22.808,0,0,1,4.194-8.051l.835,4.911,5.593,1.386.717-13.46a5.928,5.928,0,0,0,.385-2.37h0c1.1-9.574-2.595-8.715-2.595-8.715a.515.515,0,0,1,.178.332l-.178-.326h0c-2.269-4.479-1.185-11.849-1.185-11.849s2.962-21.327,3.975-26.961c.729-3.981.427-17.015.184-24.29a8.7,8.7,0,0,0-.03-.883c8.673-.113,19.3-.4,26.76-1.126v.877l-1.374,50.386a27.66,27.66,0,0,1-1.931,9.372.512.512,0,0,1-.065.172,40.881,40.881,0,0,0-2.731,13.205l-.64,16v.444h0c-1.114.427-2.873,1.665-2.921,5.255-.077,5.261,9.195,3.507,9.195,3.507,9.266,0,9.343-9.645,9.343-9.645s.29-8.845.735-14.763-1.4-4.615-1.4-4.615l-.142,16.837V505.882l.142-2.139v-.059h0v-.456l1.167-17.364s8.537-28.934,9.858-34.485c.942-3.946.551-15.83.243-22.4a5.226,5.226,0,0,0-.047-.871c2.648-.237,4.988-.261,5.924-.261h.432s-.438-46.47-1.546-63.982-2.867-33.537-7.281-38.36c-2.666-2.915-6.38-11.914-8.886-18.579a92.943,92.943,0,0,0,16.333,5.332c13.975,2.927,12.062-9.206,12.062-9.206l-1.416-22.945h.095a116.988,116.988,0,0,0-1.54-17.939,52.782,52.782,0,0,0-3.6-13.033c1.517-.592,3.015-1.226,4.485-1.878,3.8-1.677,8.075-4.052,8.62-8.146h-.184A5.3,5.3,0,0,0,721.422,238.212Zm-86.631,33.176h0c.03,2.37-.059,6.481-.2,11.025l-4.437-5.924,4.449-7.216ZM694.247,283.42Zm1.848,8.963-7.393-2.37a33.172,33.172,0,0,1,4.568-5.652l.64-.592-.231.047.355-.326.213-.047-.338.326.4-.083a12.612,12.612,0,0,0,2.518,5.065c2.654,2.9-.729,3.632-.729,3.632Z" transform="translate(-265.43 -81.673)" fill="url(#linear-gradient-2)"/>
        <path id="Path_3367" data-name="Path 3367" d="M645.962,715.66l-.865,16.4-5.516-1.38-1.161-6.819Z" transform="translate(-260.208 -291.682)" fill="#a27772"/>
        <path id="Path_3368" data-name="Path 3368" d="M645.962,715.66l-.865,16.4-5.516-1.38-1.161-6.819Z" transform="translate(-260.208 -291.682)" opacity="0.1"/>
        <path id="Path_3369" data-name="Path 3369" d="M716.48,695.173l8.412,1.742,6.238-5.51V675.877l.142-2.121v-.065h0v-.45l1.161-17.257s8.418-28.727,9.728-34.242c.924-3.91.539-15.711.231-22.234-.124-2.672-.231-4.461-.231-4.461l-18.573-4.5-.391,14.277-1.357,50.025a27.72,27.72,0,0,1-1.9,9.307l-.065.172a40.714,40.714,0,0,0-2.7,13.1l-.628,15.907v.438Z" transform="translate(-310.483 -252.622)" fill="#cc818c"/>
        <path id="Path_3370" data-name="Path 3370" d="M741.45,730.142v.438h0v-.45Z" transform="translate(-320.66 -309.511)" opacity="0.1"/>
        <path id="Path_3371" data-name="Path 3371" d="M716.48,763.649l8.412,1.742,6.238-5.51V758.56a1.777,1.777,0,0,1-.894,1.422l-.089.053A16.766,16.766,0,0,1,720.7,761.9l-3.282-.278a3.073,3.073,0,0,0-.871.213v.438Z" transform="translate(-310.483 -321.098)" opacity="0.1"/>
        <path id="Path_3372" data-name="Path 3372" d="M728.2,749.106l.089-.047a1.778,1.778,0,0,0,.906-1.54l.136-16.712s1.813-1.3,1.374,4.579-.723,14.657-.723,14.657-.071,9.574-9.212,9.574c0,0-9.141,1.742-9.07-3.483s3.774-5.439,3.774-5.439l3.282.284A16.725,16.725,0,0,0,728.2,749.106Z" transform="translate(-308.535 -309.737)" fill="#b07473"/>
        <path id="Path_3373" data-name="Path 3373" d="M642.52,695.384c.213,3.774,11.315,1.594,11.315,1.594l7.47-14.5s6.238-4.793,3.116-9a6.728,6.728,0,0,1-.456-.717l-.03-.036h0c-.065-.107-.125-.219-.184-.338h0c-2.239-4.443-1.137-11.73-1.137-11.73s2.9-21.185,3.916-26.772c.717-3.946.421-16.89.184-24.13-.095-3.01-.184-5.03-.184-5.03L648.1,599.79v5.5c-.042,4.544-.184,10.9-.652,15.036-.794,7.032,2.032,30.32,2.032,30.32l.978,21.191a19.628,19.628,0,0,1-2.37,10.314c-2.31,4.23-5.332,10.19-5.539,12.826A2.59,2.59,0,0,0,642.52,695.384Z" transform="translate(-280.339 -256.388)" fill="#cc818c"/>
        <path id="Path_3374" data-name="Path 3374" d="M642.516,745.585c.213,3.774,11.315,1.594,11.315,1.594l7.471-14.5s6.238-4.793,3.116-9a6.712,6.712,0,0,1-.456-.717c-.1,2.2-2.512,7.7-2.512,7.7s-6.167,12.34-8.128,15.166-10.48-.527-10.8-.646A2.582,2.582,0,0,0,642.516,745.585Z" transform="translate(-280.335 -306.589)" opacity="0.1"/>
        <path id="Path_3375" data-name="Path 3375" d="M659.962,722.287s3.649-.847,2.559,8.655h0a6.119,6.119,0,0,1-2.885,5.432,20.747,20.747,0,0,0-8.679,12.038h0a6.564,6.564,0,0,1-5.065,6.4c-3.294.77-7.4,1.445-9.775.782-4.425-1.232-2.464-4.277-2.464-4.277l5.077-6.025s8.851,3.484,10.806.652,8.128-15.16,8.128-15.16S661.046,723.086,659.962,722.287Z" transform="translate(-276.548 -306.307)" fill="#b07473"/>
        <path id="Path_3376" data-name="Path 3376" d="M728.211,593.52,727.82,607.8c4.947-.48,8.49-1.149,9.094-2.091,1.309-2.026,6.06-2.879,10.1-3.229-.124-2.672-.231-4.461-.231-4.461Z" transform="translate(-315.105 -253.833)" opacity="0.1"/>
        <path id="Path_3377" data-name="Path 3377" d="M651.94,608.218a6.777,6.777,0,0,1,2.032-2.453c1.955-1.084,1.742,6.967,1.742,6.967s6.517.059,14.84-.047c-.095-3.01-.184-5.036-.184-5.036l-18.43-4.929S651.976,605.007,651.94,608.218Z" transform="translate(-284.178 -257.582)" opacity="0.1"/>
        <path id="Path_3378" data-name="Path 3378" d="M647.069,522.681s2.18-5.924,4.147-6.979,1.742,6.961,1.742,6.961,47.88.438,50.273-3.264,16.321-3.484,16.321-3.484-.432-46.138-1.523-63.544-2.826-33.3-7.18-38.087c-2.814-3.1-6.819-13.122-9.3-19.8-1.345-3.649-2.239-6.309-2.239-6.309l-45.7,2.607-.373,3.7-4.852,48.532s-.652,53.538-2.613,65.724S647.069,522.681,647.069,522.681Z" transform="translate(-281.41 -170.137)" fill="#444053"/>
        <g id="Group_638" data-name="Group 638" transform="translate(363.792 218.033)" opacity="0.1">
            <path id="Path_3379" data-name="Path 3379" d="M706.725,519.4c2.37-3.7,16.321-3.483,16.321-3.483s-.432-46.138-1.523-63.544-2.826-33.3-7.18-38.087c-2.826-3.11-6.819-13.122-9.3-19.8-1.132-3.069-1.943-5.433-2.168-6.108l3.555-.2s.895,2.66,2.245,6.309c2.476,6.683,6.475,16.706,9.289,19.8,4.354,4.787,6.1,20.676,7.18,38.087s1.529,63.544,1.529,63.544-13.928-.213-16.327,3.483c-2.044,3.158-37.276,3.306-47.5,3.276C675.972,522.645,704.877,522.254,706.725,519.4Z" transform="translate(-652.417 -388.17)"/>
            <path id="Path_3380" data-name="Path 3380" d="M647.533,603.37c.883-.492,1.321.871,1.54,2.524a34.172,34.172,0,0,0-2.056,4.455s-1.262-.681-1.777-4.147A8.065,8.065,0,0,1,647.533,603.37Z" transform="translate(-645.24 -475.838)"/>
        </g>
        <path id="Path_3381" data-name="Path 3381" d="M665.96,195.236c-3.164,4.313.036,10.444-3.359,14.639-1.12,1.386-2.844,2.37-4.011,3.732-2.162,2.524-2.079,5.954-1.019,8.916s2.962,5.664,4.313,8.555a4.577,4.577,0,0,1,.438,3.9,11.04,11.04,0,0,1-1.943,2.269c-2.18,2.435-2.239,5.818-1.066,8.685s3.412,5.332,5.622,7.761c.871.954,1.973,2.008,3.424,1.979a4.74,4.74,0,0,0,2.151-.7,21.92,21.92,0,0,0,9.977-28.608c-1.837-4.4-4.9-8.62-4.929-13.27,0-3.691,1.9-7.216,2.233-10.889.409-4.467-2.233-11.558-7.624-13.507C670.522,191.557,667.565,193.021,665.96,195.236Z" transform="translate(-286.178 -88.835)" fill="#585268"/>
        <path id="Path_3382" data-name="Path 3382" d="M665.96,195.236c-3.164,4.313.036,10.444-3.359,14.639-1.12,1.386-2.844,2.37-4.011,3.732-2.162,2.524-2.079,5.954-1.019,8.916s2.962,5.664,4.313,8.555a4.577,4.577,0,0,1,.438,3.9,11.04,11.04,0,0,1-1.943,2.269c-2.18,2.435-2.239,5.818-1.066,8.685s3.412,5.332,5.622,7.761c.871.954,1.973,2.008,3.424,1.979a4.74,4.74,0,0,0,2.151-.7,21.92,21.92,0,0,0,9.977-28.608c-1.837-4.4-4.9-8.62-4.929-13.27,0-3.691,1.9-7.216,2.233-10.889.409-4.467-2.233-11.558-7.624-13.507C670.522,191.557,667.565,193.021,665.96,195.236Z" transform="translate(-286.178 -88.835)" opacity="0.1"/>
        <path id="Path_3383" data-name="Path 3383" d="M707.566,464.55c-6.333.332-12.293,3.057-17.838,6.138s-10.913,6.57-16.878,8.756" transform="translate(-292.701 -201.268)" opacity="0.1"/>
        <path id="Path_3384" data-name="Path 3384" d="M704.358,489.74a26.109,26.109,0,0,0-16.44,8c-1.54,1.629-2.867,3.454-4.473,5.018a19.871,19.871,0,0,1-8.815,4.994" transform="translate(-293.426 -211.535)" opacity="0.1"/>
        <path id="Path_3385" data-name="Path 3385" d="M702.338,508.91a28.744,28.744,0,0,0-13.223,7.974c-.972,1.049-1.854,2.168-2.826,3.217-5.243,5.628-12.648,8.614-19.8,11.44" transform="translate(-290.109 -219.348)" opacity="0.1"/>
        <path id="Path_3386" data-name="Path 3386" d="M708.8,242.849a130.005,130.005,0,0,0,1.3,15.119c.593,3.555,1.422,6.754,2.613,8.17,3.484,4.147-16.973,9.686-16.973,9.686l-12.08-9.36s9.573-8.815,5.113-17.411S708.8,242.849,708.8,242.849Z" transform="translate(-297.107 -110.784)" fill="#cc818c"/>
        <path id="Path_3387" data-name="Path 3387" d="M658.79,394.479H707.1c-1.345-3.649-2.239-6.309-2.239-6.309l-45.7,2.607Z" transform="translate(-286.97 -170.137)" opacity="0.1"/>
        <path id="Path_3388" data-name="Path 3388" d="M647.052,346.359h51.654a17.923,17.923,0,0,1,2.068-13.7,30.275,30.275,0,0,1,5.409-7.014l.355-.326,18.034-3.993.971-.213s.148-32.791-11.463-37.293a67.888,67.888,0,0,1-18.573-10.587l-15.954,4.929L667.8,272.24c-3.774,4.058-13.786,2.465-13.786,2.465-16.392,1.884-16.392,14.218-16.392,14.218s9.574,22.34,10.3,22.34S647.052,346.359,647.052,346.359Z" transform="translate(-278.342 -122.888)" fill="#fff"/>
        <path id="Path_3389" data-name="Path 3389" d="M673.928,357.746s-10.533-2.334-14.118-6.416" transform="translate(-287.386 -155.122)" opacity="0.1"/>
        <path id="Path_3390" data-name="Path 3390" d="M764.886,341.51,752.67,351.522a20.825,20.825,0,0,0,.4,2.37l.355-.326,18.034-3.993Z" transform="translate(-325.233 -151.12)" opacity="0.1"/>
        <path id="Path_3391" data-name="Path 3391" d="M717.46,381.688s2.672,1.5,6.765,3.483h7.02a17.923,17.923,0,0,1,2.068-13.7l-12.376-4C725.15,371.386,717.46,381.688,717.46,381.688Z" transform="translate(-310.883 -161.701)" opacity="0.1"/>
        <path id="Path_3392" data-name="Path 3392" d="M634.885,293.76l-7.251,3.916-7.109,17.992s-7.4,19.728-6.677,24.953c0,0-2.607,12.334,2.032,14.509l12.086,5.474a1.126,1.126,0,0,0,1.451-1.552c-1.724-3.264-3.62-8.371-.593-11.179l-3.483-7.251,12.589-20.6,4.206-7.109Z" transform="translate(-268.356 -131.659)" fill="#fff"/>
        <path id="Path_3393" data-name="Path 3393" d="M677.025,351.771c.628,2.559,2.749,6.517,9.769,7.992l7.7,6.309,8.193,3.715,3.341,1.511,1.416-10.231-3.217-1.777-3.75-2.05s-8.46-15.326-21.855-8.886A2.962,2.962,0,0,0,677.025,351.771Z" transform="translate(-294.364 -153.265)" opacity="0.1"/>
        <path id="Path_3394" data-name="Path 3394" d="M677.774,350.325c.628,2.565,2.743,6.517,9.763,7.992l7.7,6.309,8.2,3.715,3.335,1.511,1.416-10.231-3.217-1.777-3.72-2.032s-8.466-15.326-21.861-8.857A2.962,2.962,0,0,0,677.774,350.325Z" transform="translate(-294.674 -152.69)" fill="#cc818c"/>
        <circle id="Ellipse_216" data-name="Ellipse 216" cx="18.715" cy="18.715" r="18.715" transform="translate(379.48 107.906)" opacity="0.1"/>
        <circle id="Ellipse_217" data-name="Ellipse 217" cx="18.715" cy="18.715" r="18.715" transform="translate(379.48 107.474)" fill="#cc818c"/>
        <path id="Path_3395" data-name="Path 3395" d="M719.008,287.486,713.38,276.55s8.235-3.329,8.833-7.186,7.891,4.52,6.315,7.3S719.008,287.486,719.008,287.486Z" transform="translate(-309.22 -121.309)" opacity="0.1"/>
        <path id="Path_3396" data-name="Path 3396" d="M719.008,286.016,713.38,275.08s8.235-3.329,8.833-7.186,7.891,4.526,6.315,7.3S719.008,286.016,719.008,286.016Z" transform="translate(-309.22 -120.71)" fill="#fff"/>
        <path id="Path_3397" data-name="Path 3397" d="M629.691,344.064l31.1,41.808s-11.463,6.238-27.252-4.929l-6.819-8.128L607.25,340Z" transform="translate(-265.964 -150.505)" fill="#f6f8fb"/>
        <path id="Path_3398" data-name="Path 3398" d="M634.3,377.82l2.832-.077s17.3-16.789,21.547-8.294S647.9,385.883,647.9,385.883l-4.568,2.464-5.954,1.777-3.809-5.113Z" transform="translate(-276.691 -161.529)" fill="#cc818c"/>
        <path id="Path_3399" data-name="Path 3399" d="M635.78,393.075a4.227,4.227,0,0,1,.071,2.927,1.185,1.185,0,0,1-.515.563,1.321,1.321,0,0,1-.592.083,5.954,5.954,0,0,1-3.9-1.931,17.824,17.824,0,0,1-2.53-3.661c-.77-1.345-1.57-2.832-1.3-4.36.308-1.665,1.777-2.82,3.217-3.756,2.867-1.9,2.962.314,3.59,2.755S635.123,390.611,635.78,393.075Z" transform="translate(-273.996 -167.714)" opacity="0.1"/>
        <path id="Path_3400" data-name="Path 3400" d="M635.049,393.075A4.261,4.261,0,0,1,635.12,396a1.186,1.186,0,0,1-.515.563,1.334,1.334,0,0,1-.592.083,5.925,5.925,0,0,1-3.9-1.931,17.622,17.622,0,0,1-2.535-3.661c-.77-1.345-1.57-2.832-1.292-4.36.3-1.665,1.777-2.82,3.211-3.756,2.873-1.9,2.962.314,3.6,2.755S634.385,390.611,635.049,393.075Z" transform="translate(-273.697 -167.714)" fill="#fff"/>
        <path id="Path_3401" data-name="Path 3401" d="M623.85,316.257l1.445-2.447-1.262,4.544Z" transform="translate(-254.27 -127.899)" opacity="0.1"/>
        <path id="Path_3402" data-name="Path 3402" d="M721.19,376.928l3.335,1.511,1.416-10.231-3.217-1.777C724.946,368.977,723,373.687,721.19,376.928Z" transform="translate(-312.403 -161.277)" opacity="0.1"/>
        <path id="Path_3403" data-name="Path 3403" d="M733.234,362.531s-10.77.658-15.344-2.281" transform="translate(-311.058 -158.758)" opacity="0.1"/>
        <g id="Group_639" data-name="Group 639" transform="translate(374.983 150.206)" opacity="0.1">
            <path id="Path_3404" data-name="Path 3404" d="M738.229,334.816a30.318,30.318,0,0,1,5.409-7.02,14.439,14.439,0,0,1,1.594-.865l16.789-3.448.972-.213s.148-32.791-11.458-37.293a69.741,69.741,0,0,1-18.1-10.2l1.274-.391a67.706,67.706,0,0,0,18.572,10.587c11.612,4.5,11.458,37.293,11.458,37.293h-1.742l-17.18,3.288s-.74.717-.966.924a33.294,33.294,0,0,0-5.492,7.263,18.21,18.21,0,0,0-1.44,13.768h-1.777C734.7,343.318,736.185,338.513,738.229,334.816Z" transform="translate(-692.375 -274.377)"/>
            <path id="Path_3405" data-name="Path 3405" d="M664.13,277.923c.278-.041.545-.083.835-.113a30.038,30.038,0,0,0,3.555.29A32.318,32.318,0,0,1,664.13,277.923Z" transform="translate(-664.13 -275.363)"/>
            <path id="Path_3406" data-name="Path 3406" d="M698.388,279.622l-10.628-5.379a5.605,5.605,0,0,0,.592-.563l11.09,5.61Z" transform="translate(-673.761 -273.68)"/>
        </g>
        <path id="Path_3407" data-name="Path 3407" d="M751.253,340l7.109,8.709,1.451,23.65s1.884,12.038-11.9,9.135-29.728-11.872-29.728-11.872,7.7-10.3,3.483-14.218l19.734,6.386s3.335-.729.723-3.626-3.075-8.128-3.075-8.128Z" transform="translate(-311.18 -150.505)" fill="#fff"/>
        <path id="Path_3408" data-name="Path 3408" d="M779.42,382.17l3.916,4.5A5.646,5.646,0,0,1,779.42,382.17Z" transform="translate(-336.136 -167.692)" opacity="0.1"/>
        <path id="Path_3409" data-name="Path 3409" d="M736.99,360.8l6.1,7.832-3.045.729Z" transform="translate(-300.382 -147.051)" opacity="0.1"/>
        <path id="Path_3410" data-name="Path 3410" d="M665.368,200.867a6.25,6.25,0,0,1,.652-5.1,40.282,40.282,0,0,0,2.518-4.674c.895-2.476.622-5.279,1.6-7.7,1.724-4.3,6.623-6.215,11.013-7.7a7.4,7.4,0,0,1,4-.545c1.777.421,2.932,2.032,4.384,3.116,5.96,4.443,15.652-.45,21.416,4.254,2.2,1.777,3.276,4.686,3.608,7.512a66.328,66.328,0,0,1-.035,8.543c-.095,4.988.841,10.444,4.573,13.75,1.126,1,2.453,1.742,3.555,2.773a4.854,4.854,0,0,1,1.777,3.963,13.757,13.757,0,0,1-.592,2.014c-.741,2.6.367,5.332,1.718,7.7,4.029,6.973,11.132,12.719,19.183,12.879-.539,4.064-4.739,6.422-8.5,8.087-4.739,2.127-9.787,4.212-15.006,3.946s-10.664-3.608-11.576-8.75c-.314-1.777-.273-3.916-1.777-4.84-.924-.563-2.121-.421-3.116-.841-1.44-.592-2.151-2.21-2.624-3.7a33.271,33.271,0,0,1-1.546-9.479c-.065-3.815.438-7.98-1.724-11.12-2-2.909-5.557-4.384-7.867-7.056-2.133-2.476-4.449-5.462-7.944-5.924C678.224,201.294,668.224,207.864,665.368,200.867Z" transform="translate(-289.526 -83.269)" opacity="0.1"/>
        <path id="Path_3411" data-name="Path 3411" d="M665.368,199.4a6.25,6.25,0,0,1,.652-5.1,40.279,40.279,0,0,0,2.518-4.674c.895-2.476.622-5.279,1.6-7.7,1.724-4.3,6.623-6.221,11.013-7.7a7.4,7.4,0,0,1,4-.545c1.777.421,2.932,2.032,4.384,3.116,5.96,4.443,15.652-.45,21.416,4.254,2.2,1.777,3.276,4.686,3.608,7.518a66.231,66.231,0,0,1-.035,8.537c-.095,4.988.841,10.444,4.573,13.75,1.126,1,2.453,1.742,3.555,2.773a4.854,4.854,0,0,1,1.777,3.963,13.757,13.757,0,0,1-.592,2.014c-.741,2.6.367,5.332,1.718,7.7,4.04,6.949,11.114,12.713,19.165,12.873-.539,4.064-4.739,6.422-8.5,8.093-4.739,2.121-9.787,4.206-15.006,3.94s-10.664-3.608-11.576-8.75c-.314-1.777-.273-3.916-1.777-4.84-.924-.563-2.121-.421-3.116-.841-1.44-.592-2.151-2.21-2.624-3.7a33.235,33.235,0,0,1-1.546-9.479c-.065-3.815.438-7.98-1.724-11.12-2-2.909-5.557-4.384-7.867-7.056-2.133-2.476-4.449-5.462-7.944-5.924C678.224,199.824,668.224,206.405,665.368,199.4Z" transform="translate(-289.526 -82.67)" fill="#585268"/>
        <path id="Path_3412" data-name="Path 3412" d="M685.46,286.5l10.729-8.709s-7.346-3.981-8.223-7.376-6.754,1.611-6.155,4.656S685.46,286.5,685.46,286.5Z" transform="translate(-296.336 -121.682)" opacity="0.1"/>
        <path id="Path_3413" data-name="Path 3413" d="M686.195,284.3l10.729-8.7s-7.346-3.981-8.187-7.376-6.754,1.611-6.155,4.656S686.195,284.3,686.195,284.3Z" transform="translate(-296.649 -120.786)" fill="#fff"/>
        <circle id="Ellipse_218" data-name="Ellipse 218" cx="0.853" cy="0.853" r="0.853" transform="translate(399.842 161.242)" opacity="0.1"/>
        <circle id="Ellipse_219" data-name="Ellipse 219" cx="0.853" cy="0.853" r="0.853" transform="translate(399.842 165.982)" opacity="0.1"/>
        <circle id="Ellipse_220" data-name="Ellipse 220" cx="0.853" cy="0.853" r="0.853" transform="translate(399.842 170.715)" opacity="0.1"/>
        <g id="Group_640" data-name="Group 640" transform="translate(375.669 97.343)" opacity="0.1">
            <path id="Path_3414" data-name="Path 3414" d="M672.124,191.737c.847-2.328.664-4.941,1.457-7.287a7.967,7.967,0,0,0-.906,1.671c-.983,2.447-.7,5.249-1.605,7.7l-.059.142A13.541,13.541,0,0,0,672.124,191.737Z" transform="translate(-667.62 -184.45)"/>
            <path id="Path_3415" data-name="Path 3415" d="M737.476,259.352c-4.739,2.121-9.787,4.206-15.006,3.94s-10.664-3.608-11.576-8.744c-.314-1.777-.273-3.922-1.777-4.846-.924-.563-2.121-.421-3.116-.841-1.44-.592-2.151-2.21-2.624-3.7a33.242,33.242,0,0,1-1.546-9.479c-.065-3.809.444-7.974-1.718-11.12-2.008-2.909-5.563-4.378-7.873-7.056-2.133-2.47-4.449-5.462-7.944-5.924-4.793-.652-14.811,5.924-17.643-1.078a5.51,5.51,0,0,1,.184-4.046c-.207.349-.409.7-.592,1.054a6.276,6.276,0,0,0-.646,5.107c2.85,6.991,12.85.421,17.643,1.078,3.5.474,5.812,3.466,7.944,5.924,2.31,2.678,5.865,4.147,7.867,7.062,2.168,3.14,1.659,7.3,1.724,11.114a33.236,33.236,0,0,0,1.546,9.479c.474,1.493,1.185,3.092,2.624,3.7,1,.421,2.192.284,3.116.841,1.528.924,1.487,3.087,1.777,4.846.924,5.136,6.363,8.478,11.576,8.744s10.237-1.813,15.006-3.94c3.436-1.528,7.263-3.643,8.294-7.109C743.069,256.609,740.154,258.161,737.476,259.352Z" transform="translate(-665.288 -193.421)"/>
        </g>
        <path id="Path_3416" data-name="Path 3416" d="M885.756,306.392c-12.542-7.216-17.281-8.993-17.3-8.993l-.261-.184a10.433,10.433,0,0,1-3.158-3.993,8.265,8.265,0,0,1,0-.859.363.363,0,0,0,0,.083c.2-3.821,2.915-7.3,5.492-10.332l6.594-7.755a7.644,7.644,0,0,0,1.7-2.69,6.208,6.208,0,0,0,.178-1.653v-.675c-.036-1.925-.089-3.857-.16-5.782-.059-1.682-.492-3.8-2.174-4.147-.877-.178-2.038.136-2.5-.592a1.439,1.439,0,0,1-.112-1,.337.337,0,0,0,0,.083v-.095a22.311,22.311,0,0,0,.622-3.963,5.4,5.4,0,0,0-.273-2.008c-.972-2.79-4.331-3.94-7.3-4.467s-6.3-.978-8.158-3.3a24.088,24.088,0,0,0-1.623-2.233,6.4,6.4,0,0,0-3.033-1.5,17.181,17.181,0,0,0-11.037.96c-1.434.64-2.873,1.5-4.449,1.41s-3.033-1.232-4.645-1.5c-2.607-.444-5.1,1.469-6.386,3.738a9.142,9.142,0,0,0-1.185,4.408v.261h0a6.447,6.447,0,0,0,1.694,4.5c1.126,1.185,2.8,1.967,3.264,3.5.189.622.142,1.3.314,1.931a1.736,1.736,0,0,0,.071.231l-.083.113a19.55,19.55,0,0,0-4.147,12.05,20,20,0,0,0,14.052,18.958v.592a8.523,8.523,0,0,1-2.725,6.635l-17.767,7.1s-10.711-1.274-14.574,14.378a26.688,26.688,0,0,0-.663,7.938c.142,2.37-.184,6.517-2.962,11.89-4.39,8.6-3.389,28.348,5.593,30.3,8.478,1.848,11.8,1.078,12.145.989v.344c-.142,3.709-1.487,35.664-6.375,39.527-1.351,1.072-1.1,1.777,0,2.281,0,0,0,.207-.03.592-.148,2.37-.9,11.256-4.147,16.3-3.8,5.865-3.4,39.693-3.4,39.693L804.256,489.4s1.594,12.317,0,14.467c-1.428,1.914-3.323,47.477-3.72,57.359h-.166a4.811,4.811,0,0,0-3.839,2.37c-2.1,3.406-9.443,9.7-9.443,9.7-1.594,2.263-7.488,4.431-10.6,5.45a6.59,6.59,0,0,0-1.185.521,6.322,6.322,0,0,0-2.678,2.82,3.027,3.027,0,0,0-.284,2.37c.794,1.949,17.364,3.323,21.558,1.363,3.294-1.534,16.351-3.555,21.772-4.348a4.467,4.467,0,0,0,3.874-3.874,2.553,2.553,0,0,0-.5-1.937h0c-1.037-1.286-1.564-4.8-1.777-7.109a4.809,4.809,0,0,0,1.22-.723,52.045,52.045,0,0,1,2.962-20.919c3.993-10.557,5.19-30.107,4.194-42.815,0,0,12.175-52.394,21.76-57.282h0c.148.19,4.8,6.155,5.391,24.633.592,18.768,7.382,31.085,7.382,31.085s-3,31.867,0,43.792l-3.916,18.81c-.29-.243-.474-.432-.474-.432s.118.521.278,1.357l-.083.4.172.036c.444,2.37,1.1,6.452.829,8.886-.154,1.368-.539,3.246-.8,5.089-.415,2.9-.527,5.705,1,6.321,2.5,1.007,17.18,2.37,19.669-.853a4.615,4.615,0,0,0,.723-4.828,4.888,4.888,0,0,0-.723-1.232s-3.9-6.369-2.8-10.859a3.306,3.306,0,0,0-.468-2.577,132.448,132.448,0,0,1,3.359-21.067c2.5-9.408,7.767-30.036,3.892-43.6h0q-.219-.8-.5-1.564a58.555,58.555,0,0,1-2.2-22.874,46.619,46.619,0,0,1,0-19.941c2.4-10.948,4.076-21.7,4.076-21.7s1.321-14.467.166-23.336a5.856,5.856,0,0,0-.077-.592l.628-.142s-3.395-15.054-4.591-24.633c-.284-2.263-.652-5.124-1.055-8.181a20.879,20.879,0,0,0,3.252-.812c10.776-3.714,14.171-37.323,14.171-37.323V330.018S898.333,313.626,885.756,306.392ZM805.446,566.018c-.332-.166-.527-.278-.527-.278h0Z" transform="translate(-333.198 -109.681)" fill="url(#linear-gradient-3)"/>
        <path id="Path_3417" data-name="Path 3417" d="M899.258,613.98c4.674,13.442-.782,35.261-3.318,45.025a136.117,136.117,0,0,0-3.312,21.434,45.138,45.138,0,0,1-17.145-.391l4.094-20.065c-2.927-11.884,0-43.644,0-43.644s-6.623-12.275-7.21-30.978c-.593-18.407-5.113-24.361-5.255-24.544h0c-9.349,4.87-21.233,57.086-21.233,57.086.972,12.66-.2,32.145-4.094,42.655a52.725,52.725,0,0,0-2.921,20.841c-1.363,1.185-3.258,1.351-5.332,1.019-5.563-.9-12.234-5.693-12.234-5.693s2.139-56.873,3.7-59.029,0-14.42,0-14.42l2.53-19.87s-.391-33.709,3.312-39.55c3.2-5.048,3.934-13.922,4.076-16.25v-.592l5.64-6.754s54.551-4.094,58.65,0c1,1,1.623,3.288,1.99,6.161,1.126,8.839-.166,23.253-.166,23.253S899.4,560.389,897.06,571.3a47.469,47.469,0,0,0,0,19.876A59.5,59.5,0,0,0,899.258,613.98Z" transform="translate(-353.205 -223.232)" fill="#65617d"/>
        <path id="Path_3418" data-name="Path 3418" d="M932.979,807.335c-2.435,3.217-16.754,1.854-19.195.853-1.487-.592-1.375-3.418-.972-6.3.255-1.831.628-3.7.782-5.065.385-3.507-1.185-10.622-1.185-10.622s3.211,3.412,3.987,0a3.716,3.716,0,0,1,2.784-2.642,7.274,7.274,0,0,1,5.059.314c2.53,1.1,6.748,3.442,6,6.605-1.072,4.473,2.725,10.824,2.725,10.824a4.924,4.924,0,0,1,.711,1.22,4.674,4.674,0,0,1-.693,4.816Z" transform="translate(-390.339 -331.159)" fill="#a27772"/>
        <path id="Path_3419" data-name="Path 3419" d="M933.076,820.16c-2.435,3.217-16.754,1.854-19.195.853-1.487-.593-1.374-3.418-.971-6.3,1.54.723,4.147,1.321,8.513.918a24.066,24.066,0,0,1,3.063-.095,71.224,71.224,0,0,0,9.3-.189A4.674,4.674,0,0,1,933.076,820.16Z" transform="translate(-390.436 -343.984)" opacity="0.1"/>
        <path id="Path_3420" data-name="Path 3420" d="M854.286,644.428c.972,12.66-.2,32.145-4.094,42.655a52.727,52.727,0,0,0-2.921,20.842c-1.363,1.185-3.258,1.351-5.332,1.019,1.185-8.217,6.185-43.62,9.39-71.595,3.655-31.855,20.735-53.769,20.735-53.769l3.406,3.75C866.17,592.212,854.286,644.428,854.286,644.428Z" transform="translate(-361.617 -249.781)" opacity="0.1"/>
        <path id="Path_3421" data-name="Path 3421" d="M909.944,324.567l-2.37,11.689-11.653,19.58L881.555,349.7S862,329.241,874.3,326.321a10.876,10.876,0,0,0,4.076-1.813,8.429,8.429,0,0,0,3.181-7.05,21.611,21.611,0,0,0-1.979-8.377l25.131-7.891a40.343,40.343,0,0,0-1.777,10.178c-.2,6.848,2.37,10.219,4.437,11.849A7.55,7.55,0,0,0,909.944,324.567Z" transform="translate(-373.151 -134.687)" fill="#fbbebe"/>
        <path id="Path_3422" data-name="Path 3422" d="M911.107,301.19a40.333,40.333,0,0,0-1.777,10.178,19.127,19.127,0,0,1-1.463,1.558A19.882,19.882,0,0,1,888,317.458a21.614,21.614,0,0,0-2-8.377Z" transform="translate(-379.575 -134.687)" opacity="0.1"/>
        <path id="Path_3423" data-name="Path 3423" d="M905.9,282.09a19.781,19.781,0,1,1-5.795-14.078A19.876,19.876,0,0,1,905.9,282.09Z" transform="translate(-371.485 -118.804)" fill="#fbbebe"/>
        <path id="Path_3424" data-name="Path 3424" d="M909.944,339.709l-2.37,11.689-11.653,19.58-14.366-6.138S862,344.383,874.3,341.462a10.877,10.877,0,0,0,4.076-1.813c-2.216,6.09,6.931,18.762,6.931,18.762,1.067,1.57,3.507.592,3.507.592,5.895-.895,16.742-17.844,18.513-20.664A7.548,7.548,0,0,0,909.944,339.709Z" transform="translate(-373.151 -149.828)" opacity="0.1"/>
        <path id="Path_3425" data-name="Path 3425" d="M910.634,526.423c-3.46.788-22.6,5.024-29.858,3.963-7.986-1.185-23.514-1.943-23.514-1.943s-9.887.533-12.932-.859v-.592l5.64-6.754s54.551-4.094,58.65,0C909.645,521.263,910.267,523.55,910.634,526.423Z" transform="translate(-362.591 -223.223)" opacity="0.1"/>
        <path id="Path_3426" data-name="Path 3426" d="M865.416,359.124s-10.279-14.218-6.4-19.787l-17.364,7.109s-10.45-1.268-14.218,14.331a27.14,27.14,0,0,0-.646,7.915,23.414,23.414,0,0,1-2.861,11.849c-4.283,8.572-3.312,28.253,5.456,30.214s11.878.972,11.878.972-1.185,35.652-6.232,39.746,12.915,3.116,12.915,3.116,15.527.782,23.519,1.949,30.391-4.094,30.391-4.094-3.312-15-4.485-24.544-3.9-29.876-3.9-29.876l19.87-26.92s3.507-16.268-8.768-23.478-16.89-8.975-16.89-8.975-12.334,20.083-18.762,21.055C868.923,359.7,866.482,360.688,865.416,359.124Z" transform="translate(-353.268 -149.954)" fill="#fff"/>
        <path id="Path_3427" data-name="Path 3427" d="M854.9,382.74s-.19,6.434.977,8.963,5.456,16.588,5.456,16.588H851.59s5.261-5.652,4.876-8.383S854.9,382.74,854.9,382.74Z" transform="translate(-365.55 -167.924)" opacity="0.1"/>
        <path id="Path_3428" data-name="Path 3428" d="M884.5,445.845s-21.517-5.261-23.519-9.74-7.53-14.508-7.53-14.508l2.269-3.057,10.462,8.211s12.441,9.935,18.318,10.913S884.5,445.845,884.5,445.845Z" transform="translate(-366.308 -182.516)" fill="#fbbebe"/>
        <path id="Path_3429" data-name="Path 3429" d="M884.5,445.845s-21.517-5.261-23.519-9.74-7.53-14.508-7.53-14.508l2.269-3.057,10.462,8.211s12.441,9.935,18.318,10.913S884.5,445.845,884.5,445.845Z" transform="translate(-366.308 -182.516)" opacity="0.05"/>
        <path id="Path_3430" data-name="Path 3430" d="M910.519,421.791v11.671h-1.872a54.555,54.555,0,0,0-26.5,6.866l-3.509,1.944-.942.527-6.043-13.626,5.652-5.065h.29c1.38.136,7.358.634,9.894-.219,2.405-.818,5.391-3.406,12.476-1.6,3.489.895,6.475,4.8,9.858,3.584Z" transform="translate(-373.726 -183.788)" fill="#fbbebe"/>
        <path id="Path_3431" data-name="Path 3431" d="M939.814,376.889l3.892,4.384V391.9s-3.312,33.508-13.827,37.21-29.3-2.145-29.3-2.145-4.852-12.856-2.583-13.626,20.054-5.474,20.054-5.474-.249-19.657,3.643-25.5c0,0-2.53-18.312,6.238-18.7S939.814,376.889,939.814,376.889Z" transform="translate(-384.217 -160.142)" opacity="0.1"/>
        <path id="Path_3432" data-name="Path 3432" d="M940.816,376.889l3.9,4.384V391.9s-3.312,33.508-13.833,37.21-29.3-2.145-29.3-2.145-4.852-12.856-2.577-13.626,20.054-5.474,20.054-5.474-.255-19.657,3.643-25.5c0,0-2.536-18.312,6.232-18.7S940.816,376.889,940.816,376.889Z" transform="translate(-384.627 -160.142)" fill="#fff"/>
        <path id="Path_3433" data-name="Path 3433" d="M903.247,290.477a7.832,7.832,0,0,0-.444-3.8,2.891,2.891,0,0,0-3.092-1.777c-1.665.391-2.37,2.559-4.017,3.081a3.21,3.21,0,0,1-3.555-1.825,9.089,9.089,0,0,1-.676-4.242v-4.882c0-1.777-.059-3.685-1.149-5.077-1.357-1.73-4.55-2.488-6.683-2.417a5.67,5.67,0,0,0-3.815,1.534,4.91,4.91,0,0,1-4.011,1.428,3.453,3.453,0,0,1-2.8-2.417v-.059A19.87,19.87,0,1,1,902.548,296.4,53.6,53.6,0,0,0,903.247,290.477Z" transform="translate(-374.281 -118.755)" opacity="0.1"/>
        <path id="Path_3434" data-name="Path 3434" d="M872.262,263.634a3.483,3.483,0,0,1-2.8-2.423c-.16-.628-.119-1.3-.3-1.919-.456-1.534-2.091-2.328-3.187-3.5-2.192-2.328-2.05-6.155-.5-8.958,1.256-2.257,3.685-4.147,6.232-3.72,1.576.273,2.962,1.392,4.538,1.5s2.962-.764,4.343-1.4a16.363,16.363,0,0,1,10.794-.96,6.22,6.22,0,0,1,2.962,1.5,25.88,25.88,0,0,1,1.582,2.222c1.813,2.31,5.065,2.767,7.962,3.288s6.173,1.671,7.109,4.455c.634,1.848,0,3.851-.344,5.77a1.743,1.743,0,0,0,.077,1.185c.456.746,1.588.433,2.441.592,1.641.35,2.062,2.465,2.127,4.147q.1,2.879.154,5.764a7.343,7.343,0,0,1-.172,2.133,7.532,7.532,0,0,1-1.653,2.684l-6.434,7.731c-2.855,3.424-5.883,7.417-5.332,11.849-1.351.592-2.962-.563-3.4-1.979a8.852,8.852,0,0,1,.213-4.39,53.838,53.838,0,0,0,1.031-7.613,7.806,7.806,0,0,0-.444-3.792,2.891,2.891,0,0,0-3.092-1.777c-1.671.391-2.37,2.559-4.017,3.081a3.21,3.21,0,0,1-3.555-1.825,9.064,9.064,0,0,1-.675-4.236v-4.888c0-1.777-.059-3.685-1.149-5.077-1.357-1.73-4.55-2.488-6.683-2.417a5.669,5.669,0,0,0-3.809,1.534A4.919,4.919,0,0,1,872.262,263.634Z" transform="translate(-370.737 -110.46)" fill="#7c5c5c"/>
        <path id="Path_3435" data-name="Path 3435" d="M885.3,381.92l6.1,25.066S896.212,406.956,885.3,381.92Z" transform="translate(-379.29 -167.59)" opacity="0.1"/>
        <path id="Path_3436" data-name="Path 3436" d="M916.643,374.85s-7.986,13.081-4.87,26.612l1.487.107S910.607,395.307,916.643,374.85Z" transform="translate(-389.785 -164.709)" opacity="0.1"/>
        <path id="Path_3437" data-name="Path 3437" d="M929,499.341s9.811-3.246,10.521,4.283C939.545,503.624,937.7,498.464,929,499.341Z" transform="translate(-397.1 -215.164)" opacity="0.1"/>
        <path id="Path_3438" data-name="Path 3438" d="M869.652,426.81S867.7,440.436,871.21,445.9a42.728,42.728,0,0,1-17.145,2.34L852.88,426.81Z" transform="translate(-366.076 -185.886)" opacity="0.1"/>
        <path id="Path_3439" data-name="Path 3439" d="M878.635,443.954l-.942.527-6.043-13.626,5.652-5.065h.29C877.5,426.465,875.927,438.178,878.635,443.954Z" transform="translate(-373.726 -185.47)" opacity="0.1"/>
        <path id="Path_3440" data-name="Path 3440" d="M865.776,425.83s-1.949,13.626,1.558,19.088a42.6,42.6,0,0,1-17.145,2.34L843.37,425.83Z" transform="translate(-362.2 -185.487)" fill="#fff"/>
        <path id="Path_3441" data-name="Path 3441" d="M820.967,798.7a4.414,4.414,0,0,1-3.786,3.862c-5.29.788-18.033,2.8-21.25,4.337-4.094,1.949-20.261.592-21.043-1.363a3.093,3.093,0,0,1,.279-2.37,6.244,6.244,0,0,1,2.613-2.808,6.928,6.928,0,0,1,1.185-.521c3.045-1.013,8.8-3.169,10.35-5.433,0,0,7.174-6.274,9.218-9.662a4.681,4.681,0,0,1,3.744-2.334c1.706-.077,3.608.782,4.39,4.52,0,0,9.343,5.332,11.849.658,0,0,.391,7.18,1.943,9.147h0A2.607,2.607,0,0,1,820.967,798.7Z" transform="translate(-334.24 -330.816)" fill="#a27772"/>
        <path id="Path_3442" data-name="Path 3442" d="M820.967,808.557a4.413,4.413,0,0,1-3.786,3.863c-5.29.788-18.033,2.8-21.25,4.337-4.094,1.949-20.261.593-21.043-1.363a3.093,3.093,0,0,1,.279-2.37,6.244,6.244,0,0,1,2.613-2.808c2.636,1.777,8.489,3.46,21.363,1.451,12.281-1.919,18.365-3.8,21.327-5.077h0a2.607,2.607,0,0,1,.5,1.967Z" transform="translate(-334.24 -340.674)" opacity="0.1"/>
        <g id="Group_641" data-name="Group 641" transform="translate(493.561 140.502)" opacity="0.1">
            <path id="Path_3443" data-name="Path 3443" d="M942.442,269.04v-.095a17.443,17.443,0,0,0,.592-4.425,29.177,29.177,0,0,1-.592,3.555A2.156,2.156,0,0,0,942.442,269.04Z" transform="translate(-896.118 -260.243)"/>
            <path id="Path_3444" data-name="Path 3444" d="M899.241,284.332a5.631,5.631,0,0,1,.48,2.228,6.717,6.717,0,0,0-.48-3.1,2.88,2.88,0,0,0-3.087-1.777c-1.671.391-2.37,2.559-4.022,3.081a3.217,3.217,0,0,1-3.555-1.825,9.012,9.012,0,0,1-.676-4.242v-4.882c0-1.777-.059-3.685-1.149-5.077-1.363-1.736-4.55-2.488-6.683-2.423a5.675,5.675,0,0,0-3.815,1.54,4.922,4.922,0,0,1-4.017,1.428,3.472,3.472,0,0,1-2.8-2.417c-.16-.628-.118-1.3-.3-1.925-.456-1.528-2.091-2.328-3.187-3.489a6.38,6.38,0,0,1-1.641-4.147,6.641,6.641,0,0,0,1.641,4.994c1.1,1.185,2.731,1.961,3.187,3.489.184.592.142,1.3.3,1.925a3.472,3.472,0,0,0,2.8,2.417,4.922,4.922,0,0,0,4.017-1.428,5.675,5.675,0,0,1,3.815-1.54c2.133-.065,5.332.687,6.683,2.423,1.09,1.392,1.143,3.306,1.149,5.077v4.882a8.964,8.964,0,0,0,.676,4.236,3.225,3.225,0,0,0,3.555,1.831c1.635-.521,2.37-2.69,4.022-3.081A2.992,2.992,0,0,1,899.241,284.332Z" transform="translate(-864.285 -257.3)"/>
            <path id="Path_3445" data-name="Path 3445" d="M941.075,293.012a7.489,7.489,0,0,1-1.659,2.678l-6.434,7.731c-2.707,3.252-5.569,7.02-5.332,11.173.2-3.809,2.849-7.275,5.332-10.3l6.434-7.731a7.488,7.488,0,0,0,1.659-2.678,7.388,7.388,0,0,0,.172-2.139A5.622,5.622,0,0,1,941.075,293.012Z" transform="translate(-890.106 -271.341)"/>
            <path id="Path_3446" data-name="Path 3446" d="M921.853,327.393a4.551,4.551,0,0,1-.2-1.043,5.257,5.257,0,0,0,.2,1.919c.438,1.41,2.044,2.577,3.4,1.973a8.315,8.315,0,0,1-.071-.853C923.832,329.928,922.268,328.779,921.853,327.393Z" transform="translate(-887.661 -285.443)"/>
        </g>
        <path id="Path_3447" data-name="Path 3447" d="M812.69,789.36s2.038,3.555,9.42.427" transform="translate(-349.696 -333.652)" opacity="0.1"/>
        <path id="Path_3448" data-name="Path 3448" d="M918,790.82s6.363,7.494,14.384,2.459" transform="translate(-392.617 -334.247)" opacity="0.1"/>
        <path id="Path_3449" data-name="Path 3449" d="M946.065,641.23s-4.5,2.808-4.639,4.414,2.322-1.185,2.322-1.185Z" transform="translate(-402.163 -273.278)" opacity="0.1"/>
        <path id="Path_3450" data-name="Path 3450" d="M946.706,677.59a9.4,9.4,0,0,1-5.539,2.162c-3.365.148-3.081,4.532-.883,3.217A55.131,55.131,0,0,0,946.706,677.59Z" transform="translate(-401.027 -288.097)" opacity="0.1"/>
        <path id="Path_3451" data-name="Path 3451" d="M951.01,682.34s-2.156,10.6-3.91,8.555" transform="translate(-404.478 -290.033)" opacity="0.1"/>
        <path id="Path_3452" data-name="Path 3452" d="M246.015,577.368s13.537,3.714,20.054-1.226,9.343-3.353,9.343-3.353,15.539-.859,16.819-4.532-5.96-17.015-5.96-17.015c-.515-1.185-1.268-2.69-1.605-2.69l.071-5.628h0l2.251-23.549c5.2-13.324.095-30.54.095-30.54l-.93-4.271a10.806,10.806,0,0,1,.883-7.109l9.437-18.958a28.375,28.375,0,0,1,1.777-3.638c.592-1.084,1.38-2.423,2.37-4.028.29-.462.592-.942.924-1.446,1.143-1.777,2.53-3.792,4.206-6.114,4.177-5.788,6.374-13.033,7.512-18.365l.5,1.671h.113l.136.03h.225l.243.042h.089l2.9,36.944c.178,14.408,5.468,22.382,5.468,22.382l-.729,31.807c1,7.66-1.185,17.873-2.186,21.949l-2.287,5.16a6.2,6.2,0,0,0-3.371,4.692c-.45,3.809-4.461,12.02-4.461,12.02-1.552,1.967-4.923,7.281-4.923,7.281s-1.588,5.13-.6,7.05,9.206,1.724,9.206,1.724c9.39,2.079,16.588-2.962,16.132-6.434s1.463-4.354,1.463-4.354c3.732-1.185,3.371-3.715,3.371-3.715a23.247,23.247,0,0,0-2.826-15.131l-.592,1.368a20.835,20.835,0,0,1,1.126-8.075l-.344.237-.107.065h-.036c.592-5.2,6.049-14.811,6.049-14.811,10.024-17.583,6.38-41.411,6.38-41.411l-1.552-7.429-.089-2.8a93.523,93.523,0,0,1,1.511-19.965c.539-2.915,1.1-6.434,1.523-10.314a91.163,91.163,0,0,1,5.142-20.243l.4-.071h.047c.545-.095,1.1-.19,1.653-.3h.107s.32-1.73.592-4.674c.16-1.878.29-4.26.29-7a78.718,78.718,0,0,0-3.738-24.355l.3-.432s.717-.972,2.026-2.654h0c2.405-3.057,6.149-7.7,10.764-12.939,8.264-9.426,5.835-18.958,5.835-18.958s-5.984-21.926-8.649-35.09a39.9,39.9,0,0,0-6.564-15.61,31.071,31.071,0,0,0,.829-6.327c.178-3.9.041-7.962-1.712-11.464s-5.486-6.268-9.384-5.8a3.59,3.59,0,0,1-1.682,0,2.559,2.559,0,0,1-1.108-.966c-2.281-3.146-2.429-7.376-1.718-11.191s2.168-7.465,2.82-11.292.355-8.075-2.079-11.108c-2.861-3.555-7.85-4.556-11.57-7.228-2.613-1.878-4.574-4.574-7.328-6.238s-5.332-1.031-8.324-.4c-5.03,1.06-9.811,1.546-14.568,3.709a38.8,38.8,0,0,0-12.7,9.236,12.051,12.051,0,0,0-2.832,4.467c-1.185,3.916,1.132,8.087.646,12.139-.344,2.873-2.038,5.373-3.383,7.939s-2.37,5.61-1.315,8.294c1.659,4.194,7.068,5.083,11,7.316a3.359,3.359,0,0,1,1.3,1.132c.972,1.694-1.013,3.454-2.263,4.959a7.471,7.471,0,0,0-1.481,3.01,10.735,10.735,0,0,0-6.44,7.773c-1.333,5.966.717,13.5,2.524,18.472-1.973,11.084.592,15.456,2.482,17.133a9.508,9.508,0,0,1,3.294,6.481v.207c.124,2.014.338,4.023.622,6.025h0c-.065-.468-.13-.966-.166-1.185-1.546,2.861-4.491,10.172-6.149,22.471a67.524,67.524,0,0,1-1.5,7.826,42.8,42.8,0,0,0-1.256,13.993l.3,3.987a1.256,1.256,0,0,1-.806-.267l2.079,3.809v6.428a23.7,23.7,0,0,1-1.576,8.478c-.148.391-.308.782-.48,1.185a6.9,6.9,0,0,0-.7,3.489c-4.473,6.854-14.728,45.267-14.728,45.267-5.563,12.6.456,20.735.456,20.735s2.915,35.066,3.46,36.879,1.754,23.188,1.754,23.188h0v1.7a3.986,3.986,0,0,0-1.013-.29c-4.876-.273-6.2,7.429-6.2,7.429l-9.977,9.526s-4.556-.77-11.256,4.26S246.015,577.368,246.015,577.368ZM345.632,374.7l-.03-.107-.272.16h0l-.113.065-.053.036h0l-4.6-16.227a26.944,26.944,0,0,1-.338-13.347l3.555-15.569h0v-3.744l11.3,30.107C355.8,360.137,349.091,369.966,345.632,374.7Z" transform="translate(-116.089 -105.629)" fill="url(#linear-gradient-4)"/>
        <path id="Path_3453" data-name="Path 3453" d="M402,557s-4.562,11.1-5.723,21.742c-.421,3.839-.966,7.311-1.5,10.19a93.122,93.122,0,0,0-1.457,19.71l.089,2.767,1.481,7.328s3.555,23.537-6.262,40.877c0,0-5.818,10.385-6,15.3l-3.94,1.523-7.962-2.234s3.845-13.786,2.595-23.448l.717-31.4s-5.172-7.856-5.35-22.074l-3.039-39.017Z" transform="translate(-167.494 -238.948)" fill="#fdc2cc"/>
        <path id="Path_3454" data-name="Path 3454" d="M330.314,547.62s-.978,15.214-8.5,25.7-9.123,15.036-9.123,15.036l-9.266,18.733a10.729,10.729,0,0,0-.871,7.008l.912,4.218s5.012,17-.089,30.16l-2.417,25.415H286.824s-1.185-21.12-1.7-22.909-3.4-36.422-3.4-36.422-5.924-8.057-.45-20.492c0,0,12.352-46.535,15.658-45.729S330.314,547.62,330.314,547.62Z" transform="translate(-132.158 -235.125)" fill="#fdc2cc"/>
        <g id="Group_642" data-name="Group 642" transform="translate(167.367 312.495)" opacity="0.1">
            <path id="Path_3455" data-name="Path 3455" d="M316.186,618.344l-.906-4.218a10.664,10.664,0,0,1,.865-7.038l9.266-18.75s1.605-4.562,9.123-15.036c7.222-10.071,8.412-24.5,8.5-25.611l1.44-.071s-.978,15.214-8.5,25.7-9.123,15.036-9.123,15.036l-9.266,18.733a10.729,10.729,0,0,0-.871,7.008l.912,4.218s5.012,17-.089,30.16l-2.417,25.415H313.68l2.417-25.415C321.2,635.317,316.186,618.344,316.186,618.344Z" transform="translate(-313.68 -547.62)"/>
        </g>
        <path id="Path_3456" data-name="Path 3456" d="M389.619,674.934c.178-4.917,6-15.3,6-15.3,9.846-17.358,6.262-40.878,6.262-40.878l-1.517-7.334-.089-2.767a93.118,93.118,0,0,1,1.457-19.71c.527-2.879,1.072-6.351,1.493-10.19,1.12-10.249,5.391-20.913,5.705-21.695L410.4,557s-4.562,11.1-5.723,21.742c-.421,3.839-.966,7.311-1.5,10.19a93.116,93.116,0,0,0-1.457,19.71l.089,2.767,1.481,7.328s3.555,23.537-6.262,40.877c0,0-5.818,10.385-6,15.3l-3.94,1.523-.829-.231Z" transform="translate(-175.894 -238.948)" opacity="0.1"/>
        <path id="Path_3457" data-name="Path 3457" d="M378,754.185a6.848,6.848,0,0,0,6.517-.806,21.032,21.032,0,0,0-.533,11.813C385.6,771.638,368.95,760,368.95,760l3.555-8.122S373.885,754.451,378,754.185Z" transform="translate(-168.839 -318.376)" fill="#d39999"/>
        <path id="Path_3458" data-name="Path 3458" d="M379.249,754.534a6.653,6.653,0,0,0,5.29-1.185,21.031,21.031,0,0,0-.533,11.813c1.611,6.446-15.036-5.19-15.036-5.19l3.555-8.122a5.079,5.079,0,0,0,4.058,2.287C377.5,754.243,378.378,754.368,379.249,754.534Z" transform="translate(-168.848 -318.364)" opacity="0.1"/>
        <path id="Path_3459" data-name="Path 3459" d="M289.32,453.708h6.955V414.246l-5.219-.936Z" transform="translate(-117.924 -168.452)" fill="#fdc2cc"/>
        <path id="Path_3460" data-name="Path 3460" d="M289.32,453.708h6.955V414.246l-5.219-.936Z" transform="translate(-117.924 -168.452)" opacity="0.05"/>
        <path id="Path_3461" data-name="Path 3461" d="M365.713,760.423a6.934,6.934,0,0,1,6.351,3.667l2.417,1.878,1.185-2.773a23.105,23.105,0,0,1,2.737,14.947s.355,2.5-3.312,3.667c0,0-1.878.895-1.434,4.3s-6.617,8.412-15.836,6.351c0,0-8.057.184-9.04-1.7s.628-6.89.628-6.89,3.312-5.249,4.828-7.186c0,0,3.94-8.116,4.39-11.849S363.385,758.361,365.713,760.423Z" transform="translate(-160.489 -321.569)" fill="#7e5659"/>
        <path id="Path_3462" data-name="Path 3462" d="M306.076,762.465l.071-5.563s-8,2.3-14.485-.3c0,0,.545,5.592-.355,6.357s3,7.962,3,7.962l4.354,4.562,7.488-2.725,2.032-6.4S306.609,762.465,306.076,762.465Z" transform="translate(-137.139 -320.3)" fill="#d39999"/>
        <path id="Path_3463" data-name="Path 3463" d="M306.076,762.465l.071-5.563s-8,2.3-14.485-.3c0,0,.545,5.592-.355,6.357s3,7.962,3,7.962l4.354,4.562,7.488-2.725,2.032-6.4S306.609,762.465,306.076,762.465Z" transform="translate(-137.139 -320.3)" opacity="0.1"/>
        <path id="Path_3464" data-name="Path 3464" d="M270.582,763.1s4.254.492,3.715,5.924.225,0,.225,0,4.52,1.831,6.132,4.384,4.52-2.281,4.739-3.667,2.032-1.961,2.032-1.961,7.109,13.182,5.853,16.807-16.517,4.461-16.517,4.461-2.779-1.564-9.177,3.312S247.9,793.54,247.9,793.54s-10.83-4.52-4.248-9.479,11.049-4.206,11.049-4.206l9.8-9.443S265.795,762.823,270.582,763.1Z" transform="translate(-116.905 -322.944)" fill="#7e5659"/>
        <path id="Path_3465" data-name="Path 3465" d="M347.342,236.357c2.707,1.641,4.633,4.307,7.2,6.161,3.649,2.636,8.549,3.62,11.357,7.139,2.37,3,2.678,7.186,2.038,10.966s-2.073,7.388-2.767,11.155-.551,7.944,1.688,11.049a2.506,2.506,0,0,0,1.084.954,3.554,3.554,0,0,0,1.653,0c3.827-.462,7.5,2.275,9.218,5.729s1.854,7.471,1.677,11.321a23.4,23.4,0,0,1-1.89,9.224c-2.37,4.834-7.3,7.82-12.163,10.107a94.215,94.215,0,0,1-9.71,3.922c-2.275.77-4.674,1.463-7.038,1.06-4.046-.7-6.914-4.378-10.753-5.818-3.146-1.185-6.635-.758-9.982-.462-2.855.249-6.12.243-8.087-1.842-2.524-2.678-1.386-7-.095-10.444a7.435,7.435,0,0,1-5.261-12.157c1.22-1.487,3.169-3.223,2.216-4.9a3.247,3.247,0,0,0-1.28-1.114c-3.857-2.2-9.171-3.087-10.794-7.222-1.043-2.66-.036-5.67,1.286-8.2s2.962-5.006,3.324-7.838c.474-4-1.777-8.122-.634-11.985a12.015,12.015,0,0,1,2.778-4.419,38.128,38.128,0,0,1,12.441-9.117c4.674-2.139,9.36-2.619,14.3-3.661C342.111,235.338,344.563,234.675,347.342,236.357Z" transform="translate(-142.865 -107.829)" fill="#865a61"/>
        <path id="Path_3466" data-name="Path 3466" d="M322.65,337.755s-11.333-.592-13.478,9.07,4.651,23.5,4.651,23.5Z" transform="translate(-144.305 -149.587)" fill="#fdc2cc"/>
        <path id="Path_3467" data-name="Path 3467" d="M322.65,337.755s-11.333-.592-13.478,9.07,4.651,23.5,4.651,23.5Z" transform="translate(-144.305 -149.587)" opacity="0.05"/>
        <path id="Path_3468" data-name="Path 3468" d="M320,350.395l4.3,3.4,20.042.895,12.512-8.59,12.725-21.837a15.732,15.732,0,0,1-12.1-12.382,27.11,27.11,0,0,1-.249-10.344s-20.4-10.563-17.9,5.924a22.392,22.392,0,0,1,.19,6.126c-1.185,9.657-10.557,7.838-10.557,7.838l-3.6,5.545L321.25,340.6Z" transform="translate(-148.889 -133.47)" fill="#fdc2cc"/>
        <path id="Path_3469" data-name="Path 3469" d="M352.513,307.435a22.394,22.394,0,0,1,.19,6.126,18.087,18.087,0,0,0,17.957-1.683,27.109,27.109,0,0,1-.249-10.344S350.007,290.972,352.513,307.435Z" transform="translate(-162.053 -133.467)" opacity="0.1"/>
        <circle id="Ellipse_221" data-name="Ellipse 221" cx="18.075" cy="18.075" r="18.075" transform="translate(180.093 144.862)" fill="#fdc2cc"/>
        <path id="Path_3470" data-name="Path 3470" d="M331.218,362.694c.438,0,.871.065,1.3.107,2.37.237,12.269.77,17.909-5.966,6.309-7.536,14.71-16.843,15.054-17.222l8.549,2.583s-6.766-2.405-11.256,10.178a13.033,13.033,0,0,0,4.4,14.994,13.543,13.543,0,0,0,5.593,2.37.03.03,0,0,1,0,.03v5.521h0l-3.5,15.4a26.7,26.7,0,0,0,.332,13.181l5.332,18.845c-.806.557-33.887,23.057-55.984,7.518h0c.083-.675,2.814-22.791.918-33.614a74.75,74.75,0,0,1-.989-8.365v-.207a9.432,9.432,0,0,0-3.241-6.4c-1.991-1.777-4.686-6.517-2.02-19.041a46.006,46.006,0,0,1,2.962-9.023L324,336.84h0l6.831.136v.047c-.592.735-8.513,10.628-9.372,17C320.613,360.087,319.576,361.947,331.218,362.694Z" transform="translate(-145.835 -149.217)" fill="#fff"/>
        <path id="Path_3471" data-name="Path 3471" d="M403.254,348.635s6.683,5.729,9.307,18.733,8.472,34.6,8.472,34.6S423.4,411.4,415.3,420.7s-13.484,16.588-13.484,16.588l-5.332,7.856a6.688,6.688,0,0,1-3.839,2.713c-2.429.64-6.161,1.1-9.4-.669a5.474,5.474,0,0,1-2.37-6.914l1.185-2.743s-10.978,6.919-11.931,3.1S382.9,433,382.9,433s11.333-1.908,13.626-7.275c0,0,12.168-15.634,11.215-21l-11.754-31.5s-14.7-1.943-9.686-18.454S403.254,348.635,403.254,348.635Z" transform="translate(-169.304 -152.712)" fill="#fdc2cc"/>
        <path id="Path_3472" data-name="Path 3472" d="M307.371,520.915s26.849,5.367,33.176,4.651l.681,2.269s10.19,2.281,33.229-1.374q2.257-.355,4.686-.8l.539-.095s.314-1.706.563-4.615c.551-6.606.746-19.4-3.9-32.489l-3.875-11.932s-23.946,14.355-39.8,13.033c-1.416-.118-2.82-.231-4.236-.278-3.252-.124-8.294,0-11.57-2.624l-6.872,1.185V507.4a23.426,23.426,0,0,1-1.552,8.365c-.148.391-.3.776-.474,1.185A6.221,6.221,0,0,0,307.371,520.915Z" transform="translate(-143.7 -206.151)" fill="#65617d"/>
        <path id="Path_3473" data-name="Path 3473" d="M364.58,552.31v6.084s11.73,2.624,38.454-2.269c0,0,.314-1.706.563-4.615C395.4,552.825,372.785,555.989,364.58,552.31Z" transform="translate(-167.058 -236.71)" opacity="0.1"/>
        <path id="Path_3474" data-name="Path 3474" d="M307.373,547.92s26.849,5.367,33.176,4.65l.681,2.269v-6.084c-3.057,1.268-24.882-3.993-32.791-5.966-.148.391-.3.776-.474,1.185A6.221,6.221,0,0,0,307.373,547.92Z" transform="translate(-143.702 -233.156)" opacity="0.1"/>
        <path id="Path_3475" data-name="Path 3475" d="M417.31,537.375l1.991,12.346q2.257-.355,4.686-.8c-.622-3.608-1.979-11.848-1.606-13.217l-2.506-2.145Z" transform="translate(-188.55 -229.395)" fill="#65617d"/>
        <path id="Path_3476" data-name="Path 3476" d="M417.78,536.925l1.991,12.352q2.257-.361,4.686-.8c-.622-3.608-1.979-11.849-1.605-13.217l-2.506-2.151Z" transform="translate(-188.741 -229.211)" opacity="0.1"/>
        <g id="Group_643" data-name="Group 643" transform="translate(172.006 270.362)" opacity="0.05">
            <path id="Path_3477" data-name="Path 3477" d="M337.032,496.523c-1.41-.118-2.82-.231-4.236-.278-3.164-.118-7.992,0-11.286-2.423l1.149-.2c3.294,2.613,8.294,2.5,11.57,2.624,1.416.047,2.82.16,4.236.278.462.041.936.065,1.416.077a26.583,26.583,0,0,1-2.85-.077Z" transform="translate(-321.51 -483.478)"/>
            <path id="Path_3478" data-name="Path 3478" d="M402.611,526.448q2.257-.355,4.686-.794l.545-.1s.314-1.706.557-4.615a79.823,79.823,0,0,0-3.9-32.489l-3.649-11.256c.776-.438,1.185-.693,1.185-.693l3.874,11.932c4.651,13.093,4.455,25.883,3.9,32.489-.249,2.909-.563,4.615-.563,4.615l-.539.1q-2.423.438-4.686.794A147.572,147.572,0,0,1,379.88,528.5,152.266,152.266,0,0,0,402.611,526.448Z" transform="translate(-345.3 -476.5)"/>
            <path id="Path_3479" data-name="Path 3479" d="M360.47,559.3v.065h-.77Q360.138,559.336,360.47,559.3Z" transform="translate(-337.075 -510.247)"/>
        </g>
        <ellipse id="Ellipse_222" data-name="Ellipse 222" cx="1.013" cy="2.085" rx="1.013" ry="2.085" transform="translate(231.083 306.115)" fill="#d39999"/>
        <path id="Path_3480" data-name="Path 3480" d="M311.86,453.826c1.635-12.145,4.52-19.361,6.043-22.186.059.385.213,1.635.284,2.02.308,1.777.036,4.017.13,6.274L316.8,467.4l2.032,8.59c1.908,6.8-5.16,1.428-5.16,1.428-1.463,3.223-4.147,2.867-4.147,2.867l-.367-4.929a42.572,42.572,0,0,1,1.232-13.821,65.87,65.87,0,0,0,1.469-7.707Z" transform="translate(-144.421 -187.855)" fill="#fdc2cc"/>
        <path id="Path_3481" data-name="Path 3481" d="M311.86,453.826c1.635-12.145,4.52-19.361,6.043-22.186.059.385.213,1.635.284,2.02.308,1.777.036,4.017.13,6.274L316.8,467.4l2.032,8.59c1.908,6.8-5.16,1.428-5.16,1.428-1.463,3.223-4.147,2.867-4.147,2.867l-.367-4.929a42.572,42.572,0,0,1,1.232-13.821,65.87,65.87,0,0,0,1.469-7.707Z" transform="translate(-144.421 -187.855)" opacity="0.05"/>
        <path id="Path_3482" data-name="Path 3482" d="M405.381,485.729c-1.286,1.665-1.991,2.618-1.991,2.618l-5.332,7.85a6.659,6.659,0,0,1-3.839,2.713c-2.429.64-6.161,1.108-9.4-.669a5.462,5.462,0,0,1-2.37-6.908l1.185-2.749s-10.978,6.92-11.931,3.1,12.767-7.636,12.767-7.636,11.333-1.908,13.626-7.281c0,0,.989-1.268,2.37-3.211" transform="translate(-169.944 -204.94)" fill="#fdc2cc"/>
        <path id="Path_3483" data-name="Path 3483" d="M404.255,510.335s-12.98-1.262-17.091-8.685l-1.884,6.132s13.626,9.408,16.736,8.187Z" transform="translate(-175.495 -216.389)" fill="#65617d"/>
        <path id="Path_3484" data-name="Path 3484" d="M403.479,510.231s-12.974-1.262-17.092-8.691l-1.878,6.114s13.626,9.408,16.73,8.187Z" transform="translate(-175.181 -216.344)" opacity="0.1"/>
        <path id="Path_3485" data-name="Path 3485" d="M313.838,510.46s-4.544,1.611-5.438.717l2.044,3.762,3.863-2.962Z" transform="translate(-144.161 -219.98)" fill="#65617d"/>
        <path id="Path_3486" data-name="Path 3486" d="M313.838,510.46s-4.544,1.611-5.438.717l2.044,3.762,3.863-2.962Z" transform="translate(-144.161 -219.98)" opacity="0.1"/>
        <path id="Path_3487" data-name="Path 3487" d="M332.136,527.32v-7.85l-1.866,8.039Z" transform="translate(-134.614 -211.72)" opacity="0.1"/>
        <path id="Path_3488" data-name="Path 3488" d="M367.44,267.365a6.971,6.971,0,0,1-4.87,2.565,38.367,38.367,0,0,1-5.658,0c-2.962-.047-6.114.409-8.537,2.151a21.706,21.706,0,0,0-3.916,4.147c-3.661,4.473-8.744,8.661-14.514,8.193a3.762,3.762,0,0,1-2.7-1.138,4.325,4.325,0,0,1-.687-2.453,56.07,56.07,0,0,1,.35-11.055,23.308,23.308,0,0,1,1.671-6.594,22.514,22.514,0,0,1,4.017-5.735,24.567,24.567,0,0,1,7.008-5.616,12.571,12.571,0,0,1,8.768-1.132c3.454.942,6.143,3.643,9.437,5.036C361.575,257.318,371.564,261.542,367.44,267.365Z" transform="translate(-151.512 -113.973)" opacity="0.1"/>
        <path id="Path_3489" data-name="Path 3489" d="M367.44,266.151a6.971,6.971,0,0,1-4.87,2.565,38.371,38.371,0,0,1-5.658,0c-2.962-.053-6.114.4-8.537,2.145a21.7,21.7,0,0,0-3.916,4.147c-3.661,4.473-8.744,8.661-14.514,8.193a3.738,3.738,0,0,1-2.7-1.137,4.307,4.307,0,0,1-.687-2.453,56.062,56.062,0,0,1,.35-11.055,23.307,23.307,0,0,1,1.671-6.594,22.359,22.359,0,0,1,4.017-5.729,24.484,24.484,0,0,1,7.008-5.622,12.572,12.572,0,0,1,8.768-1.132c3.454.942,6.143,3.643,9.437,5.036C361.575,256.1,371.564,260.316,367.44,266.151Z" transform="translate(-151.512 -113.475)" fill="#865a61"/>
        <path id="Path_3490" data-name="Path 3490" d="M291.933,473.47l-.047,2.162-.486-2.068Z" transform="translate(-118.772 -192.972)" fill="#fdc2cc"/>
        <path id="Path_3491" data-name="Path 3491" d="M291.933,473.47l-.047,2.162-.486-2.068Z" transform="translate(-118.772 -192.972)" opacity="0.05"/>
        <g id="Group_644" data-name="Group 644" transform="translate(215.652 193.21)" opacity="0.05">
            <path id="Path_3492" data-name="Path 3492" d="M398.381,353.983c-5.018,16.511,9.609,18.448,9.609,18.448l11.754,31.5c.954,5.367-11.221,21-11.221,21-.847,2-2.962,3.525-5.273,4.651a8.258,8.258,0,0,0,3.128-3.436s12.168-15.628,11.215-21l-11.754-31.505s-14.621-1.937-9.609-18.448c1.677-5.516,4.147-8.027,6.647-8.928C401.153,347.656,399.571,350.056,398.381,353.983Z" transform="translate(-395.184 -346.27)"/>
        </g>
        <g id="Group_645" data-name="Group 645" transform="translate(166.714 187.617)" opacity="0.1">
            <path id="Path_3493" data-name="Path 3493" d="M401,384.61a12.349,12.349,0,0,0,2.37,2.245,13.467,13.467,0,0,0,5.593,2.37v.622a13.425,13.425,0,0,1-5.071-2.245A12.292,12.292,0,0,1,401,384.61Z" transform="translate(-348.616 -356.304)"/>
            <path id="Path_3494" data-name="Path 3494" d="M322.825,420.906v.207a76.511,76.511,0,0,0,1.019,8.395c1.777,10.213-.551,30.492-.883,33.294-.19-.124-.379-.243-.592-.379.089-.675,2.82-22.791.924-33.608a75.079,75.079,0,0,1-.989-8.365v-.207a9.141,9.141,0,0,0-1.594-4.532A9.212,9.212,0,0,1,322.825,420.906Z" transform="translate(-315.892 -368.979)"/>
            <path id="Path_3495" data-name="Path 3495" d="M330.417,337.642l-5.794-.113a.029.029,0,0,0-.03,0l-7.405,16.742a46.157,46.157,0,0,0-2.962,9.023c-2.156,10.131-.8,15.178.847,17.672-1.854-2.186-3.768-7.168-1.38-18.365a45.672,45.672,0,0,1,2.933-9.029l7.459-16.742h0l6.831.136v.041C330.861,337.079,330.678,337.3,330.417,337.642Z" transform="translate(-312.577 -336.83)"/>
            <path id="Path_3496" data-name="Path 3496" d="M416.39,345.87l.1.03Z" transform="translate(-354.889 -340.514)"/>
            <path id="Path_3497" data-name="Path 3497" d="M378.421,344.015l-5.806-1.748h-.03c-.344.379-8.738,9.686-15.048,17.222-5.64,6.736-15.527,6.209-17.909,5.972-.433-.047-.871-.083-1.3-.113-6.475-.415-9.023-1.185-9.876-2.82,1.214,1.185,3.886,1.777,9.337,2.109.438,0,.871.065,1.3.107,2.37.237,12.269.764,17.909-5.966,6.309-7.542,14.71-16.849,15.054-17.228h0l8.448,2.559A5.278,5.278,0,0,0,378.421,344.015Z" transform="translate(-319.047 -338.754)"/>
        </g>
        <path id="Path_3498" data-name="Path 3498" d="M290.057,776.754s-8.175,2.233-9.757-1.274" transform="translate(-132.708 -327.995)" opacity="0.1"/>
        <path id="Path_3499" data-name="Path 3499" d="M376.351,773.879s-9.479,2.447-11.671-1.339" transform="translate(-167.099 -326.796)" opacity="0.1"/>
        <path id="Path_3500" data-name="Path 3500" d="M571.017,754.414c.136-1.185.332-2.37.545-3.555a24.776,24.776,0,0,0-1.185-12.014h0c-.219-.622-.379-.972-.379-.972-3.774-1.031-18.65,10.51-24.07,14.858-1.878,0-3.916.083-6.143.231-.972.071-1.943.095-2.915.077h-3.555c-5.03-4.052-20.6-16.238-24.473-15.184,0,0-.16.35-.379.972h0a24.345,24.345,0,0,0-1.214,12.014c.213,1.185.409,2.37.545,3.555.29,2.6,1.38,7.595,5.332,10.966.847,6.161,4.017,14.26,6.457,19.177a13.733,13.733,0,0,0,.829,2.707c-1.007,3.886-2.168,8.958-1.837,10.664,0,0-5.261-1.274-5.794,5.059v.2c-1.9.871-4.277,2.867-1.605,7.05a2.743,2.743,0,0,0,1.374,1.12c.474.166.936.166.889-.5l3.288,3.7s5.96.687,6.031-2.773l.35.053c.8.119,1.635.219,2.494.308l.415,1.368s-4.473-.095-3.253,2.66c0,0,1.126,1.043,1.511.664,0,0-.592,1.807,1.742,1.807,0,0,2.506,1.327,3.483.379s3-2.37,3.193-2.962c.053-.16.077-1.564.089-3.507h.385c4.994.118,10.3-.041,15.119-.3h.391c0,2.1.03,3.655.083,3.821.2.593,2.227,2,3.2,2.962s3.478-.379,3.478-.379c2.322,0,1.742-1.807,1.742-1.807.391.379,1.517-.663,1.517-.663,1.22-2.755-3.258-2.66-3.258-2.66l.533-1.777,2.47-.207.391-.036c-.237,3.762,6.025,3.039,6.025,3.039l3.294-3.7c-.053.664.409.664.883.5a2.72,2.72,0,0,0,1.333-1.132c4.034-6.309-3.418-7.648-3.418-7.648a3.664,3.664,0,0,0-.7-.112,1.219,1.219,0,0,1,.03-.326h0a12.99,12.99,0,0,0,.047-2.5c-.278-1.143-2.115-2.962-4.437-3.229-1.517-.19-1.546-7.156-1.392-11.985a13.8,13.8,0,0,0,.237-2.749,14.506,14.506,0,0,0-.592-4.4c2.962-5.024,5.332-10.291,5.6-11.849C569.636,761.991,570.727,757.015,571.017,754.414Z" transform="translate(-225.08 -312.634)" fill="url(#linear-gradient-5)"/>
        <path id="Path_3501" data-name="Path 3501" d="M569.9,831.946h0c-.237,3.282-.871,8.549-.871,8.549s-2.636.32-6.712.687l-2.767.237c-2.121.172-4.5.338-7.02.48-4.651.255-9.757.415-14.574.3-2.405-.053-4.739-.178-6.9-.391-.966-.095-1.9-.207-2.79-.338-5.521-.823-9.479-2.4-9.817-5.166a16,16,0,0,1-.124-3.555c.515-6.221,5.581-4.965,5.581-4.965-.326-1.718.9-7.056,1.9-10.918.628-2.435,1.185-4.283,1.185-4.283l35.617-2.37h.119a1.742,1.742,0,0,1,1.742,1.831c-.213,4.271-.515,14.052,1.232,14.271a5.369,5.369,0,0,1,4.283,3.169A13.282,13.282,0,0,1,569.9,831.946Z" transform="translate(-229.703 -342.15)" fill="#fff"/>
        <path id="Path_3502" data-name="Path 3502" d="M535.813,756.594s-13.43,16.167-19.9,11.689c-.154-.107-.3-.213-.444-.326-4.349-3.294-5.492-8.6-5.794-11.3-.13-1.185-.32-2.328-.527-3.483a24.189,24.189,0,0,1,1.185-11.8h0c.213-.592.361-.954.361-.954C515.167,739.182,535.813,756.594,535.813,756.594Z" transform="translate(-225.86 -313.682)" fill="#fff"/>
        <path id="Path_3503" data-name="Path 3503" d="M528.577,758.786s-4.23,2.962-10.2,7.832a21.549,21.549,0,0,1-2.962,2.038c-4.349-3.294-5.492-8.6-5.794-11.3-.13-1.185-.32-2.328-.527-3.483a24.19,24.19,0,0,1,1.185-11.8h0C518.648,742.661,528.577,758.786,528.577,758.786Z" transform="translate(-225.84 -314.382)" fill="#fff"/>
        <path id="Path_3504" data-name="Path 3504" d="M528.577,758.786s-4.23,2.962-10.2,7.832a21.549,21.549,0,0,1-2.962,2.038c-4.349-3.294-5.492-8.6-5.794-11.3-.13-1.185-.32-2.328-.527-3.483a24.19,24.19,0,0,1,1.185-11.8h0C518.648,742.661,528.577,758.786,528.577,758.786Z" transform="translate(-225.84 -314.382)" fill="#fff" opacity="0.5"/>
        <path id="Path_3505" data-name="Path 3505" d="M527.179,761.456s-2.257,1.594-5.444,4.183a11.458,11.458,0,0,1-1.564,1.084,8.721,8.721,0,0,1-3.092-6.025c-.065-.628-.166-1.244-.278-1.866a12.951,12.951,0,0,1,.657-6.292h0C521.883,752.848,527.179,761.456,527.179,761.456Z" transform="translate(-229.045 -318.645)" opacity="0.1"/>
        <path id="Path_3506" data-name="Path 3506" d="M569.05,756.594s13.43,16.167,19.9,11.689c.148-.107.3-.213.444-.326,4.348-3.294,5.492-8.6,5.794-11.3.13-1.185.32-2.328.521-3.483a24.117,24.117,0,0,0-1.185-11.8h0c-.213-.592-.367-.954-.367-.954C589.7,739.182,569.05,756.594,569.05,756.594Z" transform="translate(-250.395 -313.682)" fill="#fff"/>
        <path id="Path_3507" data-name="Path 3507" d="M581.22,758.786s4.236,2.962,10.2,7.832a21.55,21.55,0,0,0,2.933,2.038c4.348-3.294,5.492-8.6,5.794-11.3.13-1.185.32-2.328.521-3.483a24.117,24.117,0,0,0-1.185-11.8h0C591.161,742.661,581.22,758.786,581.22,758.786Z" transform="translate(-255.355 -314.382)" fill="#fff"/>
        <path id="Path_3508" data-name="Path 3508" d="M581.22,758.786s4.236,2.962,10.2,7.832a21.55,21.55,0,0,0,2.933,2.038c4.348-3.294,5.492-8.6,5.794-11.3.13-1.185.32-2.328.521-3.483a24.117,24.117,0,0,0-1.185-11.8h0C591.161,742.661,581.22,758.786,581.22,758.786Z" transform="translate(-255.355 -314.382)" fill="#fff" opacity="0.5"/>
        <path id="Path_3509" data-name="Path 3509" d="M589.05,761.465s2.245,1.588,5.409,4.147a10.839,10.839,0,0,0,1.558,1.078,8.749,8.749,0,0,0,3.075-5.989c.065-.592.166-1.238.278-1.854a12.973,12.973,0,0,0-.622-6.256h0C594.317,752.91,589.05,761.465,589.05,761.465Z" transform="translate(-258.546 -318.665)" opacity="0.1"/>
        <path id="Path_3510" data-name="Path 3510" d="M567.766,810.23a32.169,32.169,0,0,1-5.142,6.552c-5.332,4.74-28.354,2.856-29.846,2.613-.314-.053-.966-.983-1.777-2.494.628-2.435,1.185-4.283,1.185-4.283Z" transform="translate(-234.887 -342.158)" opacity="0.1"/>
        <path id="Path_3511" data-name="Path 3511" d="M544.478,765.31c-.936.065-1.872.089-2.814.071-4.8-.083-20.99.13-22.785,6.665-2.115,7.7,7.34,28.324,8.827,28.573s24.5,2.115,29.852-2.613,12.311-19.55,11.937-20.895C569.5,777.111,576.131,763.118,544.478,765.31Z" transform="translate(-229.821 -323.754)" fill="#fff"/>
        <path id="Path_3512" data-name="Path 3512" d="M548.463,786.479s-11.848-1.825-17.405,9.834a14.218,14.218,0,0,0,1.049,14.331c1.848,2.6,4.562,4.538,8.335,2.962C548.83,810.152,548.463,786.479,548.463,786.479Z" transform="translate(-234.316 -332.435)" opacity="0.1"/>
        <path id="Path_3513" data-name="Path 3513" d="M547.833,785.219s-11.849-1.825-17.405,9.834a14.218,14.218,0,0,0,1.049,14.331c1.848,2.6,4.562,4.538,8.335,2.962C548.2,808.892,547.833,785.219,547.833,785.219Z" transform="translate(-234.059 -331.921)" opacity="0.1"/>
        <path id="Path_3514" data-name="Path 3514" d="M547.833,785.849s-11.849-1.825-17.405,9.834a14.218,14.218,0,0,0,1.049,14.331c1.848,2.6,4.562,4.538,8.335,2.962C548.2,809.522,547.833,785.849,547.833,785.849Z" transform="translate(-234.059 -332.178)" fill="#fff"/>
        <path id="Path_3515" data-name="Path 3515" d="M547.833,785.849s-11.849-1.825-17.405,9.834a14.218,14.218,0,0,0,1.049,14.331c1.848,2.6,4.562,4.538,8.335,2.962C548.2,809.522,547.833,785.849,547.833,785.849Z" transform="translate(-234.059 -332.178)" fill="#fff" opacity="0.5"/>
        <path id="Path_3516" data-name="Path 3516" d="M538.457,803.13s-1.617,1.493-1,1.866S538.457,803.13,538.457,803.13Z" transform="translate(-237.462 -339.264)" fill="#3f2b3b"/>
        <path id="Path_3517" data-name="Path 3517" d="M541.85,806.35s-.883,1.949-.255,2.162,1-1.4,1-1.4Z" transform="translate(-239.113 -340.576)" fill="#3f2b3b"/>
        <path id="Path_3518" data-name="Path 3518" d="M535.326,811.32s-.865,2.3,0,2.3S535.326,811.32,535.326,811.32Z" transform="translate(-236.493 -342.602)" fill="#3f2b3b"/>
        <path id="Path_3519" data-name="Path 3519" d="M533.78,821.71s1.73,4.42,6.232,4.105" transform="translate(-236.02 -346.837)" fill="none" stroke="#3f2b3b" stroke-miterlimit="10" stroke-width="1"/>
        <path id="Path_3520" data-name="Path 3520" d="M540.61,823.91a3.117,3.117,0,0,0,3.726.5" transform="translate(-238.803 -347.733)" fill="none" stroke="#3f2b3b" stroke-miterlimit="10" stroke-width="1"/>
        <path id="Path_3521" data-name="Path 3521" d="M564,786.479s11.849-1.825,17.406,9.834a14.218,14.218,0,0,1-1.049,14.331c-1.842,2.6-4.562,4.538-8.335,2.962C563.607,810.152,564,786.479,564,786.479Z" transform="translate(-248.334 -332.435)" opacity="0.1"/>
        <path id="Path_3522" data-name="Path 3522" d="M564.589,785.219s11.849-1.825,17.406,9.834a14.218,14.218,0,0,1-1.049,14.331c-1.843,2.6-4.562,4.538-8.335,2.962C564.239,808.892,564.589,785.219,564.589,785.219Z" transform="translate(-248.575 -331.921)" opacity="0.1"/>
        <path id="Path_3523" data-name="Path 3523" d="M564.589,785.849s11.849-1.825,17.406,9.834a14.219,14.219,0,0,1-1.049,14.331c-1.843,2.6-4.562,4.538-8.335,2.962C564.239,809.522,564.589,785.849,564.589,785.849Z" transform="translate(-248.575 -332.178)" fill="#fff"/>
        <path id="Path_3524" data-name="Path 3524" d="M564.589,785.849s11.849-1.825,17.406,9.834a14.219,14.219,0,0,1-1.049,14.331c-1.843,2.6-4.562,4.538-8.335,2.962C564.239,809.522,564.589,785.849,564.589,785.849Z" transform="translate(-248.575 -332.178)" fill="#fff" opacity="0.5"/>
        <path id="Path_3525" data-name="Path 3525" d="M586.16,803.13s1.617,1.493,1,1.866S586.16,803.13,586.16,803.13Z" transform="translate(-257.368 -339.264)" fill="#3f2b3b"/>
        <path id="Path_3526" data-name="Path 3526" d="M582.706,806.35s.883,1.949.255,2.162-1-1.4-1-1.4Z" transform="translate(-255.656 -340.576)" fill="#3f2b3b"/>
        <path id="Path_3527" data-name="Path 3527" d="M589.557,811.32s.859,2.3,0,2.3S589.557,811.32,589.557,811.32Z" transform="translate(-258.597 -342.602)" fill="#3f2b3b"/>
        <path id="Path_3528" data-name="Path 3528" d="M587.332,821.71s-1.73,4.42-6.232,4.105" transform="translate(-255.306 -346.837)" fill="none" stroke="#3f2b3b" stroke-miterlimit="10" stroke-width="1"/>
        <path id="Path_3529" data-name="Path 3529" d="M582.232,823.91a3.124,3.124,0,0,1-3.732.5" transform="translate(-254.246 -347.733)" fill="none" stroke="#3f2b3b" stroke-miterlimit="10" stroke-width="1"/>
        <path id="Path_3530" data-name="Path 3530" d="M553.2,842.1c.314-.059,6.22-2.613,12.311,0Z" transform="translate(-243.935 -354.669)" fill="#3f2b3b"/>
        <path id="Path_3531" data-name="Path 3531" d="M528.269,856.387c-5.521-.823-9.479-2.4-9.817-5.166a16,16,0,0,1-.124-3.555,7.973,7.973,0,0,1,2.109-.77c1-.278,2.24-.089,4.852.658s2.423,3.821,2.962,7.832A3.31,3.31,0,0,1,528.269,856.387Z" transform="translate(-229.703 -357.052)" opacity="0.1"/>
        <path id="Path_3532" data-name="Path 3532" d="M518.23,847.549s-7.18,1.315-3.294,7.512a2.649,2.649,0,0,0,1.327,1.1c.456.16.895.16.847-.492l3.175,3.637s6.339.746,5.782-3.264-.373-7.109-2.962-7.832S519.243,847.271,518.23,847.549Z" transform="translate(-227.869 -357.32)" fill="#fff"/>
        <path id="Path_3533" data-name="Path 3533" d="M524.18,854.67s1.523,3.478,3.638.557" transform="translate(-232.107 -360.27)" fill="none" stroke="#3f2b3b" stroke-miterlimit="10" stroke-width="1"/>
        <path id="Path_3534" data-name="Path 3534" d="M518.28,857s.788,3.294,3.774.841" transform="translate(-229.702 -361.22)" fill="none" stroke="#3f2b3b" stroke-miterlimit="10" stroke-width="1"/>
        <path id="Path_3535" data-name="Path 3535" d="M600.191,846.859h0c-.237,3.282-.871,8.549-.871,8.549s-2.636.32-6.712.687a3.439,3.439,0,0,1,0-.687c.557-4.011.373-7.109,2.962-7.832C598,846.918,599.237,846.675,600.191,846.859Z" transform="translate(-259.989 -357.063)" opacity="0.1"/>
        <path id="Path_3536" data-name="Path 3536" d="M601.108,847.549s7.186,1.315,3.3,7.512a2.672,2.672,0,0,1-1.327,1.1c-.456.16-.9.16-.853-.492l-3.169,3.637s-6.345.746-5.782-3.264.373-7.109,2.962-7.832S600.112,847.271,601.108,847.549Z" transform="translate(-260.254 -357.32)" fill="#fff"/>
        <path id="Path_3537" data-name="Path 3537" d="M601.137,854.67s-1.528,3.478-3.637.557" transform="translate(-261.99 -360.27)" fill="none" stroke="#3f2b3b" stroke-miterlimit="10" stroke-width="1"/>
        <path id="Path_3538" data-name="Path 3538" d="M606.94,857s-.794,3.294-3.78.841" transform="translate(-264.297 -361.22)" fill="none" stroke="#3f2b3b" stroke-miterlimit="10" stroke-width="1"/>
        <path id="Path_3539" data-name="Path 3539" d="M545.138,854.974c-2.405-.053-4.739-.178-6.9-.391l-2.15-7.239a4.7,4.7,0,0,1-.2-1.321,4.609,4.609,0,0,1,9.212-.03C545.126,848.812,545.15,852.385,545.138,854.974Z" transform="translate(-236.88 -354.928)" opacity="0.1"/>
        <path id="Path_3540" data-name="Path 3540" d="M535.038,847.236l2.536,8.543s-4.313-.095-3.134,2.613c0,0,1.084,1.025,1.457.652,0,0-.563,1.777,1.677,1.777,0,0,2.417,1.309,3.353.373s2.9-2.334,3.087-2.891c.118-.367.083-7.512.041-12.441a4.6,4.6,0,0,0-4.6-4.562h0a4.6,4.6,0,0,0-4.414,5.936Z" transform="translate(-236.205 -354.821)" fill="#fff"/>
        <path id="Path_3541" data-name="Path 3541" d="M540.559,869.47s-1.884,1.777-.889,2.826" transform="translate(-238.302 -366.302)" fill="none" stroke="#3f2b3b" stroke-miterlimit="10" stroke-width="1"/>
        <path id="Path_3542" data-name="Path 3542" d="M538.8,867.56a2.558,2.558,0,0,0-1.742,2.186" transform="translate(-237.356 -365.524)" fill="none" stroke="#3f2b3b" stroke-miterlimit="10" stroke-width="1"/>
        <path id="Path_3543" data-name="Path 3543" d="M585.368,845.913a4.682,4.682,0,0,1-.19,1.321l-2.008,6.854c-2.121.172-4.5.338-7.02.48,0-2.559,0-5.966.042-8.685a4.6,4.6,0,0,1,9.206.03Z" transform="translate(-253.288 -354.819)" opacity="0.1"/>
        <path id="Path_3544" data-name="Path 3544" d="M585.774,847.236l-2.536,8.543s4.319-.095,3.14,2.613c0,0-1.084,1.025-1.457.652,0,0,.557,1.777-1.682,1.777,0,0-2.417,1.309-3.353.373s-2.891-2.334-3.081-2.891c-.119-.367-.083-7.512-.042-12.441a4.6,4.6,0,0,1,4.6-4.562h0a4.6,4.6,0,0,1,4.408,5.936Z" transform="translate(-253.522 -354.821)" fill="#fff"/>
        <path id="Path_3545" data-name="Path 3545" d="M586.23,869.47s1.884,1.777.889,2.826" transform="translate(-257.397 -366.302)" fill="none" stroke="#3f2b3b" stroke-miterlimit="10" stroke-width="1"/>
        <path id="Path_3546" data-name="Path 3546" d="M587.63,867.56a2.558,2.558,0,0,1,1.742,2.186" transform="translate(-257.967 -365.524)" fill="none" stroke="#3f2b3b" stroke-miterlimit="10" stroke-width="1"/>
        <path id="Path_3547" data-name="Path 3547" d="M554.589,782.769s-8.774-.278-9.052,6.517,13.709,3.916,13.709,3.916,5.877-.788,4.852-4.917S560.934,783.142,554.589,782.769Z" transform="translate(-240.81 -330.965)" opacity="0.1"/>
        <path id="Path_3548" data-name="Path 3548" d="M554.589,781.509s-8.774-.278-9.052,6.517,13.709,3.916,13.709,3.916,5.877-.788,4.852-4.917S560.934,781.882,554.589,781.509Z" transform="translate(-240.81 -330.451)" opacity="0.1"/>
        <path id="Path_3549" data-name="Path 3549" d="M554.589,782.139s-8.774-.278-9.052,6.517,13.709,3.916,13.709,3.916,5.877-.788,4.852-4.917S560.934,782.512,554.589,782.139Z" transform="translate(-240.81 -330.708)" fill="#3f2b3b"/>
        <path id="Path_3550" data-name="Path 3550" d="M527.78,839.92s2.962,1.054,3.555,3.075" transform="translate(-233.574 -354.259)" opacity="0.1"/>
        <path id="Path_3551" data-name="Path 3551" d="M596.93,837.4s-2.1.883-1.955,4.568" transform="translate(-260.958 -353.232)" opacity="0.1"/>
        <ellipse id="Ellipse_223" data-name="Ellipse 223" cx="1.373" cy="2.277" rx="1.373" ry="2.277" transform="translate(293.127 499.773) rotate(-29.887)" fill="#fff"/>
        <ellipse id="Ellipse_224" data-name="Ellipse 224" cx="2.269" cy="1.369" rx="2.269" ry="1.369" transform="translate(334.824 500.308) rotate(-60)" fill="#fff"/>
        <ellipse id="Ellipse_225" data-name="Ellipse 225" cx="1.373" cy="2.277" rx="1.373" ry="2.277" transform="translate(293.127 499.773) rotate(-29.887)" fill="#fff" opacity="0.5"/>
        <ellipse id="Ellipse_226" data-name="Ellipse 226" cx="2.269" cy="1.369" rx="2.269" ry="1.369" transform="translate(334.824 500.308) rotate(-60)" fill="#fff" opacity="0.5"/>
        <ellipse id="Ellipse_227" data-name="Ellipse 227" cx="15.954" cy="2.696" rx="15.954" ry="2.696" transform="translate(98.142 421.519)" fill="#fff" opacity="0.1"/>
        <ellipse id="Ellipse_228" data-name="Ellipse 228" cx="15.954" cy="2.696" rx="15.954" ry="2.696" transform="translate(35.292 459.749)" fill="#fff" opacity="0.1"/>
        <ellipse id="Ellipse_229" data-name="Ellipse 229" cx="23.821" cy="4.029" rx="23.821" ry="4.029" transform="translate(10.812 424.215)" fill="#fff"/>
        <path id="Path_3552" data-name="Path 3552" d="M71.384,724.328A6.89,6.89,0,0,1,69.11,720.9a3.053,3.053,0,0,1,1.588-3.49c1.457-.557,3.015.45,4.194,1.469s2.536,2.186,4.082,1.973a6.214,6.214,0,0,1-1.919-5.818,2.369,2.369,0,0,1,.533-1.185c.806-.865,2.275-.492,3.246.19,3.075,2.168,3.94,6.351,3.951,10.119a18.662,18.662,0,0,0,.059-4.147c.006-1.375.391-2.962,1.564-3.685a4.739,4.739,0,0,1,2.37-.593c1.386-.047,2.927.089,3.874,1.1,1.185,1.256.871,3.371-.154,4.74a15.491,15.491,0,0,1-4,3.211,8.84,8.84,0,0,0-2.867,2.731,2.79,2.79,0,0,0-.213.486H76.758a23.957,23.957,0,0,1-5.373-3.679Z" transform="translate(-46.603 -302.672)" fill="#fff"/>
        <ellipse id="Ellipse_230" data-name="Ellipse 230" cx="15.954" cy="2.696" rx="15.954" ry="2.696" transform="translate(594.14 444.067)" fill="#fff" opacity="0.1"/>
        <path id="Path_3553" data-name="Path 3553" d="M1042.91,749.728s9.1-.278,11.848-2.233,13.993-4.283,14.675-1.149,13.679,15.575,3.4,15.658-23.869-1.6-26.606-3.27S1042.91,749.728,1042.91,749.728Z" transform="translate(-443.527 -315.495)" fill="#a8a8a8"/>
        <path id="Path_3554" data-name="Path 3554" d="M1073.011,764.3c-10.273.083-23.869-1.6-26.606-3.27-2.085-1.268-2.915-5.824-3.193-7.927h-.3s.592,7.34,3.312,9,16.333,3.353,26.606,3.27c2.962,0,3.993-1.078,3.934-2.642C1076.352,763.7,1075.221,764.3,1073.011,764.3Z" transform="translate(-443.527 -318.873)" opacity="0.2"/>
    </g>
</svg>
